<svg width="90" height="90" viewBox="0 0 90 90" fill="none" xmlns="http://www.w3.org/2000/svg">
<rect width="90" height="90" fill="#C5192D"/>
<path fill-rule="evenodd" clip-rule="evenodd" d="M27.1089 15.39V14.8905C26.1225 14.7168 25.6995 13.9887 25.6995 12.9906V9.43019C25.6995 8.27999 26.2548 7.44479 27.5661 7.44479C28.8774 7.44479 29.4417 8.28089 29.4417 9.43019V12.9906C29.4417 13.7943 29.16 14.4234 28.53 14.7267L29.4417 14.9013V15.8247L27.1089 15.39ZM27.5671 8.47709C27.1315 8.47709 26.9371 8.79119 26.9371 9.23579V13.2516C26.9371 13.6854 27.1225 14.0121 27.5671 14.0121C28.0117 14.0121 28.2061 13.6854 28.2061 13.2516V9.23579C28.2061 8.79119 28.0027 8.47709 27.5671 8.47709Z" fill="white"/>
<path d="M32.1011 14.9778C33.3611 14.9778 33.8489 14.2389 33.8489 13.0995V7.5312H32.7086V13.2192C32.7086 13.653 32.5349 13.9464 32.1011 13.9464C31.6673 13.9464 31.4936 13.653 31.4936 13.2192V7.5312H30.2561V13.0995C30.2561 14.2389 30.7961 14.9778 32.1011 14.9778Z" fill="white"/>
<path fill-rule="evenodd" clip-rule="evenodd" d="M36.99 13.5441H35.6814L35.46 14.8905H34.29L35.6814 7.5312H37.0917L38.4885 14.8941H37.2186L36.99 13.5441ZM36.3438 9.60479H36.3312L35.8416 12.5568H36.8316L36.3438 9.60479Z" fill="white"/>
<path d="M41.8221 13.8807H40.3479V7.5312H39.1104V14.8905H41.8221V13.8807Z" fill="white"/>
<rect x="42.3962" y="7.5312" width="1.23658" height="7.3584" fill="white"/>
<path d="M45.2349 14.8905H46.4814V8.541H47.502V7.5312H44.2161V8.541H45.2349V14.8905Z" fill="white"/>
<path d="M49.2579 14.8905H50.4954V12.0897L51.8616 7.5312H50.679L49.9302 10.3212H49.9194L49.1715 7.5312H47.88L49.2579 12.0897V14.8905Z" fill="white"/>
<path d="M28.6479 24.6717H26.9343V22.4343H28.1592V21.4371H26.9343V19.3311H28.6479V18.3213H25.6977V25.6797H28.6479V24.6717Z" fill="white"/>
<path fill-rule="evenodd" clip-rule="evenodd" d="M33.1065 20.2968V23.7042L33.1092 23.6961C33.1092 24.8292 32.6439 25.6761 31.32 25.6761H29.4066V18.3168H31.3173C32.6412 18.3168 33.1065 19.1574 33.1065 20.2968ZM30.6468 19.3302V24.6627L31.1679 24.6708C31.6773 24.6708 31.8717 24.3666 31.8717 23.922V20.0682C31.8717 19.6344 31.6773 19.3302 31.1679 19.3302H30.6468Z" fill="white"/>
<path d="M33.921 18.3213V23.8896C33.921 25.0299 34.461 25.767 35.7651 25.767C37.0251 25.767 37.512 25.0299 37.512 23.8896V18.3213H36.3735V24.0084C36.3735 24.4431 36.1989 24.7356 35.7651 24.7356C35.3313 24.7356 35.1576 24.4431 35.1576 24.0084V18.3213H33.921Z" fill="white"/>
<path d="M38.3256 23.7807C38.3256 24.9201 38.8656 25.767 40.1706 25.767C41.4756 25.767 41.9166 24.9858 41.9166 23.9319V22.6629H40.7889V24.0192C40.7889 24.4539 40.6368 24.7392 40.1922 24.7392C39.7476 24.7392 39.5622 24.4251 39.5622 23.9787V20.0259C39.5622 19.5804 39.7422 19.2654 40.1922 19.2654C40.6422 19.2654 40.7889 19.5255 40.7889 19.9854V20.9511H41.9166V20.079C41.9166 18.999 41.5368 18.234 40.1706 18.234C38.8683 18.234 38.3256 19.0701 38.3256 20.2203V23.7807Z" fill="white"/>
<path fill-rule="evenodd" clip-rule="evenodd" d="M45 24.3333H43.6842L43.4646 25.6833H42.2946L43.6842 18.3249H45.0945L46.494 25.6833H45.2277L45 24.3333ZM44.3449 20.394H44.3341L43.8436 23.346H44.8336L44.3449 20.394Z" fill="white"/>
<path d="M46.3401 19.3311H47.3589V25.6797H48.6072V19.3311H49.626V18.3213H46.3401V19.3311Z" fill="white"/>
<rect x="50.3099" y="18.3213" width="1.2375" height="7.35929" fill="white"/>
<path fill-rule="evenodd" clip-rule="evenodd" d="M56.1133 23.7798C56.1133 24.921 55.5499 25.767 54.2386 25.767C52.9363 25.767 52.3728 24.921 52.3728 23.7798V20.2203C52.3728 19.0701 52.9273 18.2349 54.2386 18.2349C55.5499 18.2349 56.1133 19.0701 56.1133 20.2203V23.7798ZM54.2385 19.2663C53.8038 19.2663 53.6085 19.5804 53.6085 20.025V23.9751C53.6085 24.4215 53.7939 24.7356 54.2385 24.7356C54.6831 24.7356 54.8784 24.4251 54.8784 23.9751V20.025C54.8784 19.5804 54.6732 19.2663 54.2385 19.2663Z" fill="white"/>
<path d="M57.9709 21.0555L59.4253 25.6815H60.5107V18.3204H59.4793V22.5432L58.1446 18.3204H56.9305V25.6815H57.9709V21.0555Z" fill="white"/>
<path fill-rule="evenodd" clip-rule="evenodd" d="M16.9884 25.6887H14.0985V22.7448H8.71832V20.871L13.9905 7.542H16.9884V20.3634H18.2205V22.7448H16.9884V25.6887ZM14.1282 12.8934L11.3985 20.3634H14.1552V12.8934H14.1282Z" fill="white"/>
<path d="M39.4471 48.2571L23.3065 38.9367V69.0867L39.4471 73.9566V48.2571Z" fill="white"/>
<path d="M41.2228 48.3183V73.9674L57.4677 69.0831V38.9376L41.2228 48.3183Z" fill="white"/>
<path d="M70.1388 38.1735C70.1538 37.4815 69.7932 36.8355 69.1963 36.4851C68.5994 36.1346 67.8596 36.1346 67.2626 36.4851C66.6657 36.8355 66.3051 37.4815 66.3201 38.1735V40.23H70.1388V38.1735Z" fill="white"/>
<path d="M66.7944 68.5521H66.3201L68.2308 75.2265L70.1379 68.5521H69.6636H70.1379V41.7276H69.6636H69.1893H68.6871H67.7367H67.2678H66.7944H66.3192V68.5521H66.7944Z" fill="white"/>
<path d="M60.9354 40.2318L59.2047 38.8647V69.9048L41.2704 75.6999H40.4406H40.2759H39.447L21.5928 70.7112V38.8647L19.8612 40.2318V71.9253L39.3651 77.3253H40.2759H40.4406H41.3514L59.346 71.6121L60.9354 71.1441V40.2318Z" fill="white"/>
</svg>
