<svg width="90" height="90" viewBox="0 0 90 90" fill="none" xmlns="http://www.w3.org/2000/svg">
<rect width="90" height="90" fill="#00689D"/>
<path d="M6.94998 10.8531V14.0373H6.97788L9.11808 11.8161H9.14508V25.704H12.1961V7.5609H9.76158L6.94998 10.8531Z" fill="white"/>
<path fill-rule="evenodd" clip-rule="evenodd" d="M22.8734 18.6669V21.3435H22.8779C22.8779 24.1533 21.6179 25.9191 18.3779 25.9191C15.1676 25.9191 13.9355 23.8851 13.9355 21.0753V12.2454C13.9355 9.40859 15.1397 7.3476 18.3509 7.3476C21.7232 7.3476 22.6061 9.22049 22.6061 11.8962V12.861H19.8233V11.655C19.8233 10.5318 19.5029 9.88919 18.4049 9.88919C17.3069 9.88919 16.9604 10.665 16.9604 11.763V15.6699H16.9865C17.441 14.7861 18.2168 14.1975 19.502 14.1975C21.6962 14.1975 22.8734 15.6969 22.8734 18.6669ZM18.382 23.4324C19.4251 23.4324 19.8535 22.7637 19.8535 21.6135V18.4536C19.8535 17.2755 19.4512 16.6329 18.409 16.6329C17.4451 16.6329 17.0167 17.2755 16.9645 18.2925V21.6135C16.9645 22.7376 17.365 23.4324 18.382 23.4324Z" fill="white"/>
<path d="M58.1527 44.19C58.1527 44.19 57.3958 45.1953 57.6127 46.1754C57.8296 47.1555 58.9519 47.7378 58.9519 47.7378C58.9519 47.7378 59.7088 46.7325 59.4919 45.7533C59.275 44.7741 58.1527 44.19 58.1527 44.19Z" fill="white"/>
<path d="M56.919 49.9356C56.919 49.9356 57.6759 48.9294 57.459 47.9502C57.2421 46.971 56.1207 46.3878 56.1207 46.3878C56.1207 46.3878 55.3629 47.3931 55.5807 48.3732C55.7985 49.3533 56.9199 49.9356 56.9199 49.9356" fill="white"/>
<path d="M60.03 48.8592C60.03 48.8592 60.8292 49.6692 61.74 49.5846C62.6508 49.5 63.3249 48.5667 63.3249 48.5667C63.3249 48.5667 62.5266 47.7567 61.6149 47.8404C60.7032 47.9241 60.03 48.8592 60.03 48.8592Z" fill="white"/>
<path d="M61.3402 44.55C60.5995 45.3015 60.7039 46.6317 60.7039 46.6317C60.7039 46.6317 62.0098 46.7451 62.7522 45.9945C63.4947 45.2439 63.3885 43.9128 63.3885 43.9128C63.3885 43.9128 62.0818 43.7994 61.3402 44.55Z" fill="white"/>
<path d="M59.7063 51.8481C60.6135 51.9561 61.4667 51.1767 61.4667 51.1767C61.4667 51.1767 60.8484 50.22 59.9403 50.1165C59.0322 50.013 58.179 50.7888 58.179 50.7888C58.179 50.7888 58.7973 51.741 59.7045 51.8481" fill="white"/>
<path d="M60.5163 67.6107H53.7348C53.2049 67.6107 52.7754 68.0403 52.7754 68.5701C52.7754 69.1 53.2049 69.5295 53.7348 69.5295H60.5163C61.0461 69.5295 61.4757 69.1 61.4757 68.5701C61.4757 68.0403 61.0461 67.6107 60.5163 67.6107Z" fill="white"/>
<path d="M60.5163 78.1866H53.7348C53.2049 78.1866 52.7754 78.6162 52.7754 79.146C52.7754 79.6759 53.2049 80.1054 53.7348 80.1054H60.5163C61.0461 80.1054 61.4757 79.6759 61.4757 79.146C61.4757 78.6162 61.0461 78.1866 60.5163 78.1866Z" fill="white"/>
<path d="M30.0161 65.5359C29.8615 65.3844 29.7044 65.2593 29.5454 65.1609C29.5454 65.1609 29.7191 65.3288 30.0161 65.5359Z" fill="white"/>
<path fill-rule="evenodd" clip-rule="evenodd" d="M53.9819 70.2H60.2666C60.5684 70.1995 60.8137 70.4435 60.8147 70.7454V76.9707C60.8137 77.2725 60.5693 77.5169 60.2675 77.5179H53.9828C53.6811 77.5169 53.4369 77.2724 53.4365 76.9707V75.069L49.3343 74.619L29.2832 75.078V72.6336L40.0202 72.8784V69.3738C38.7475 69.277 37.4923 69.0197 36.2843 68.6079C35.2715 68.2611 34.1997 67.5902 33.1413 66.9276C32.06 66.2508 30.9927 65.5826 30.0167 65.2779C31.0652 65.5182 33.6608 65.9205 35.5067 64.6479C36.5568 63.923 37.1574 63.3235 37.6554 62.8264C38.2779 62.205 38.7401 61.7436 39.7196 61.3971C36.5525 61.128 34.2314 59.1768 33.3125 54.8568C32.4368 50.742 31.8293 49.1229 30.0968 48.3849C32.6294 48.1392 36.3266 48.114 40.5566 52.4484C43.766 55.7316 47.0537 55.6497 49.6646 53.2179C52.2755 50.7861 54.107 49.6152 55.5299 51.21C55.8421 51.5593 56.1729 51.8916 56.5208 52.2054C56.8466 50.625 57.8087 49.6296 58.7609 48.6549L58.7769 48.6385C59.2948 48.1081 59.8307 47.5593 60.2405 46.9233L60.5807 47.1429C60.1424 47.8197 59.5907 48.3876 59.0507 48.9375C58.0742 49.9374 57.1256 50.9148 56.8664 52.506C57.271 52.8544 57.707 53.1647 58.1687 53.433C57.7124 53.4033 57.2543 53.4171 56.8007 53.4744C56.8097 54.2952 56.9762 55.2573 57.3659 56.4273C57.2264 56.4417 57.0941 56.4534 56.9564 56.4606C56.5829 55.3176 56.42 54.3573 56.4029 53.532C55.9662 53.6042 55.5373 53.7178 55.1222 53.8713C53.5769 54.4518 52.5014 55.7568 52.6265 59.1183C52.7525 62.4186 51.4943 67.1886 45.7244 68.8158C44.9427 69.0358 44.1458 69.1976 43.3403 69.3V72.9621L49.3334 73.0989L53.4356 72.6489V70.7454C53.4361 70.444 53.6805 70.2 53.9819 70.2ZM42.3515 69.3963C41.9024 69.4269 41.4569 69.4404 41.0069 69.4332V72.909L42.3515 72.9396V69.3963Z" fill="white"/>
<path d="M28.6957 74.682C28.6957 75.1977 28.3357 75.6153 27.8929 75.6153H27.4096C26.9668 75.6153 26.6059 75.1977 26.6059 74.682V72.99C26.6059 72.4743 26.9659 72.0567 27.4096 72.0567H27.8929C28.3357 72.0567 28.6957 72.4743 28.6957 72.99V74.682Z" fill="white"/>
<path fill-rule="evenodd" clip-rule="evenodd" d="M30.5772 7.55009H28.7439V14.9049H29.9805V12.4092H30.5772C31.8246 12.4092 32.2809 11.7801 32.2809 10.7496V9.1989C32.2809 8.16839 31.8246 7.55009 30.5772 7.55009ZM29.9808 11.4552V8.559H30.4371C30.8601 8.559 31.0446 8.7543 31.0446 9.1557V10.8477C31.0446 11.2491 30.8601 11.4552 30.4371 11.4552H29.9808Z" fill="white"/>
<path d="M32.8226 7.55009H35.7737V8.559H34.0592V10.6632H35.285V11.6613H34.0592V13.896H35.7737V14.9049H32.8226V7.55009Z" fill="white"/>
<path fill-rule="evenodd" clip-rule="evenodd" d="M37.6393 7.55009L36.2506 14.9049H37.4224L37.6393 13.5549H38.9515L39.1792 14.9049H40.4482L39.0496 7.55009H37.6393ZM38.7894 12.5721H37.7994L38.2908 9.6219H38.3016L38.7894 12.5721Z" fill="white"/>
<path d="M40.86 13.0059V9.45C40.86 8.2998 41.4 7.4646 42.7041 7.4646C44.0712 7.4646 44.451 8.2242 44.451 9.3087V10.1763H43.3233V9.2097C43.3233 8.7543 43.1721 8.4897 42.7266 8.4897C42.2811 8.4897 42.0966 8.8047 42.0966 9.2493V13.1976C42.0966 13.6422 42.2811 13.9572 42.7266 13.9572C43.1721 13.9572 43.3233 13.6755 43.3233 13.2372V11.889H44.4519V13.158C44.4519 14.2101 44.0181 14.9913 42.705 14.9913C41.3919 14.9913 40.86 14.1453 40.86 13.0059Z" fill="white"/>
<path d="M45.1236 7.55009H48.0747V8.559H46.3647V10.6632H47.5905V11.6613H46.3602V13.896H48.0702V14.9049H45.1236V7.55009Z" fill="white"/>
<path d="M50.0597 13.8195L49.4297 15.4791H48.7358L48.8879 13.7223H50.0579L50.0597 13.8195Z" fill="white"/>
<path d="M55.299 7.55009V13.23C55.299 14.2938 54.8319 14.9877 53.5953 14.9877C52.3155 14.9877 51.969 14.283 51.969 13.3497V11.889H53.139V13.3749C53.139 13.7439 53.2695 13.9608 53.5944 13.9608C53.9193 13.9608 54.0615 13.7439 54.0615 13.3641V7.55009H55.299Z" fill="white"/>
<path d="M59.6385 7.55009V13.1148C59.6385 14.2533 59.1498 14.9913 57.8916 14.9913C56.5902 14.9913 56.0475 14.2533 56.0475 13.1148V7.55009H57.2841V13.23C57.2841 13.6647 57.4578 13.9572 57.8916 13.9572C58.3254 13.9572 58.5 13.6683 58.5 13.23V7.55009H59.6385Z" fill="white"/>
<path d="M60.3319 13.32V12.33H61.4821V13.3389C61.4821 13.7511 61.6666 13.9896 62.0896 13.9896C62.4802 13.9896 62.6539 13.7295 62.6539 13.3389V13.0572C62.6539 12.6342 62.4802 12.3732 62.1004 12.015L61.3732 11.2887C60.6685 10.5948 60.3427 10.1709 60.3427 9.3249V9.0756C60.3427 8.1648 60.8746 7.4556 62.0788 7.4556C63.3154 7.4556 63.8032 8.0631 63.8032 9.126V9.7227H62.6755V9.09C62.6755 8.667 62.4802 8.46 62.0896 8.46C61.7422 8.46 61.5037 8.6553 61.5037 9.0675V9.2196C61.5037 9.6318 61.7314 9.8703 62.0896 10.2177L62.8816 10.998C63.5539 11.682 63.8797 12.0942 63.8797 12.9078V13.2678C63.8797 14.2758 63.3397 14.9922 62.0797 14.9922C60.8197 14.9922 60.3319 14.2866 60.3319 13.32Z" fill="white"/>
<path d="M64.4394 7.55009H67.7271V8.559H66.711V14.9049H65.4636V8.559H64.4394V7.55009Z" fill="white"/>
<path d="M68.3604 7.55009H69.597V14.9049H68.3604V7.55009Z" fill="white"/>
<path d="M70.3663 13.0059V9.45C70.3663 8.2998 70.9063 7.4646 72.2104 7.4646C73.5775 7.4646 73.9574 8.2242 73.9574 9.3087V10.1763H72.8287V9.2097C72.8287 8.7543 72.6775 8.4897 72.232 8.4897C71.7865 8.4897 71.602 8.8047 71.602 9.2493V13.1976C71.602 13.6422 71.782 13.9572 72.232 13.9572C72.682 13.9572 72.8287 13.6755 72.8287 13.2372V11.889H73.9574V13.158C73.9574 14.2101 73.5235 14.9913 72.2104 14.9913C70.8973 14.9913 70.3663 14.1453 70.3663 13.0059Z" fill="white"/>
<path d="M74.6839 7.55009H77.635V8.559H75.9205V10.6632H77.1463V11.6613H75.9205V13.896H77.635V14.9049H74.6839V7.55009Z" fill="white"/>
<path fill-rule="evenodd" clip-rule="evenodd" d="M29.9816 18.3366L28.5929 25.6914H29.7647L29.9816 24.3468H31.2938L31.5215 25.6914H32.7905L31.3919 18.3366H29.9816ZM31.1343 23.3595H30.1443L30.6357 20.4093H30.6465L31.1343 23.3595Z" fill="white"/>
<path d="M34.4503 21.0708V25.6914H33.409V18.3366H34.624L35.9587 22.5567V18.3366H36.9901V25.6914H35.9047L34.4503 21.0708Z" fill="white"/>
<path fill-rule="evenodd" clip-rule="evenodd" d="M41.502 23.7177V20.3112C41.502 19.17 41.0403 18.3366 39.7092 18.3366H37.8003V25.6914H39.7119C41.0358 25.6914 41.502 24.8454 41.502 23.7177ZM40.2655 23.9346C40.2655 24.3792 40.0702 24.6825 39.5599 24.6825H39.0397V19.3455H39.5599C40.0702 19.3455 40.2655 19.6497 40.2655 20.0835V23.9346Z" fill="white"/>
<path d="M43.4975 24.1083V23.1183H44.6468V24.1272C44.6468 24.5394 44.8313 24.7779 45.2543 24.7779C45.6449 24.7779 45.8186 24.5178 45.8186 24.1272V23.85C45.8186 23.427 45.6449 23.1669 45.2651 22.8087L44.5388 22.0824C43.8332 21.3876 43.5083 20.9646 43.5083 20.1186V19.8693C43.5083 18.9576 44.0393 18.2493 45.2435 18.2493C46.4801 18.2493 46.9687 18.8568 46.9687 19.9197V20.52H45.8402V19.8801C45.8402 19.4571 45.6449 19.2501 45.2543 19.2501C44.9078 19.2501 44.6684 19.4454 44.6684 19.8576V20.0097C44.6684 20.4219 44.8961 20.6604 45.2543 21.0069L46.0463 21.7881C46.7185 22.4721 47.0443 22.8843 47.0443 23.6979V24.0579C47.0443 25.0668 46.5044 25.7832 45.2444 25.7832C43.9844 25.7832 43.4975 25.0731 43.4975 24.1083Z" fill="white"/>
<path d="M47.4997 18.3366H50.7865V19.35H49.7695V25.6959H48.5194V19.35H47.4997V18.3366Z" fill="white"/>
<path fill-rule="evenodd" clip-rule="evenodd" d="M52.7078 25.6932V22.32L53.8679 25.6914H55.1702L53.9849 22.3506C54.6923 22.1895 54.9749 21.7215 54.9749 20.9295V19.9854C54.9749 18.9549 54.5186 18.3366 53.2712 18.3366H51.4712V25.6932H52.7078ZM52.7081 21.6387V19.35L53.1203 19.3455C53.5469 19.3455 53.7269 19.5408 53.7269 19.9422V21.0321C53.7269 21.4218 53.5433 21.6387 53.1203 21.6387H52.7081Z" fill="white"/>
<path fill-rule="evenodd" clip-rule="evenodd" d="M55.7547 20.2356V23.7933C55.7547 24.93 56.3091 25.7787 57.6213 25.7787C58.9335 25.7787 59.4978 24.9327 59.4978 23.7933V20.2356C59.4978 19.0854 58.9236 18.2502 57.6213 18.2502C56.319 18.2502 55.7547 19.0854 55.7547 20.2356ZM58.2615 20.0403V23.9886C58.2615 24.4332 58.0572 24.7482 57.6216 24.7482C57.186 24.7482 56.9916 24.4332 56.9916 23.9886V20.0403C56.9916 19.5957 57.177 19.2807 57.6216 19.2807C58.0662 19.2807 58.2615 19.5957 58.2615 20.0403Z" fill="white"/>
<path d="M61.3531 21.0708V25.6914H60.3118V18.3366H61.5268L62.8606 22.5567V18.3366H63.8911V25.6914H62.8111L61.3531 21.0708Z" fill="white"/>
<path d="M66.5706 21.7647H68.3283V25.6914H67.4382V24.8886C67.2762 25.4421 66.9288 25.7787 66.2565 25.7787C65.1936 25.7787 64.7049 24.9327 64.7049 23.7933V20.2356C64.7049 19.0854 65.2584 18.2502 66.5598 18.2502C67.9269 18.2502 68.3283 19.0098 68.3283 20.0943V20.745H67.1997V19.9971C67.1997 19.5408 67.026 19.2771 66.5814 19.2771C66.1368 19.2771 65.9415 19.5921 65.9415 20.0367V23.985C65.9415 24.4296 66.126 24.7446 66.549 24.7446C66.9504 24.7446 67.1565 24.5169 67.1565 24.039V22.7412H66.5706V21.7647Z" fill="white"/>
<path d="M28.8002 29.241H30.0368V36.5958H28.8002V29.241Z" fill="white"/>
<path d="M31.9015 31.9743V36.5958H30.8602V29.241H32.0752L33.409 33.4602V29.241H34.4404V36.5958H33.355L31.9015 31.9743Z" fill="white"/>
<path d="M35.1902 35.01V34.02H36.3404V35.0289C36.3404 35.4411 36.5249 35.6796 36.9479 35.6796C37.3385 35.6796 37.5113 35.4195 37.5113 35.0289V34.7472C37.5113 34.3242 37.3385 34.0632 36.9587 33.7059L36.2315 32.9787C35.5268 32.2848 35.201 31.8618 35.201 31.0149V30.7656C35.201 29.8548 35.7329 29.1456 36.9371 29.1456C38.1737 29.1456 38.6615 29.7531 38.6615 30.816V31.4127H37.5302V30.78C37.5302 30.357 37.3349 30.15 36.9443 30.15C36.5969 30.15 36.3584 30.3453 36.3584 30.7575V30.9096C36.3584 31.3218 36.5861 31.5603 36.9443 31.9077L37.7363 32.6889C38.4086 33.372 38.7335 33.7842 38.7335 34.5978V34.9578C38.7335 35.9667 38.1935 36.6822 36.9335 36.6822C35.6735 36.6822 35.1902 35.9775 35.1902 35.01Z" fill="white"/>
<path d="M39.1915 29.241H42.4801V30.2499H41.4586V36.5958H40.2112V30.2499H39.1915V29.241Z" fill="white"/>
<path d="M43.1614 29.241H44.398V36.5958H43.1614V29.241Z" fill="white"/>
<path d="M45.0813 29.241H48.3681V30.2499H47.3484V36.5958H46.101V30.2499H45.0813V29.241Z" fill="white"/>
<path d="M52.642 29.241V34.8057C52.642 35.9442 52.1542 36.6822 50.896 36.6822C49.5937 36.6822 49.0519 35.9442 49.0519 34.8057V29.241H50.2885V34.9245C50.2885 35.3592 50.4622 35.6517 50.896 35.6517C51.3298 35.6517 51.5035 35.3592 51.5035 34.9245V29.241H52.642Z" fill="white"/>
<path d="M53.3147 29.241H56.6014V30.2499H55.5817V36.5958H54.3344V30.2499H53.3147V29.241Z" fill="white"/>
<path d="M57.2846 29.241H58.5212V36.5958H57.2846V29.241Z" fill="white"/>
<path fill-rule="evenodd" clip-rule="evenodd" d="M59.3461 31.14V34.6968C59.3461 35.8362 59.9014 36.6831 61.2136 36.6831C62.5258 36.6831 63.0901 35.8371 63.0901 34.6977V31.14C63.0901 29.9889 62.5132 29.1546 61.2118 29.1546C59.9104 29.1546 59.3461 29.9898 59.3461 31.14ZM61.8513 30.9438V34.8921C61.8513 35.3367 61.6461 35.6517 61.2114 35.6517C60.7767 35.6517 60.5814 35.3367 60.5814 34.8921V30.9438C60.5814 30.4992 60.7668 30.1842 61.2114 30.1842C61.656 30.1842 61.8513 30.4992 61.8513 30.9438Z" fill="white"/>
<path d="M64.9432 31.9743V36.5958H63.9001V29.241H65.1151L66.4498 33.4602V29.241H67.4821V36.5958H66.3967L64.9432 31.9743Z" fill="white"/>
<path d="M68.2299 35.01V34.02H69.3801V35.0289C69.3801 35.4411 69.5646 35.6796 69.9876 35.6796C70.3782 35.6796 70.5519 35.4195 70.5519 35.0289V34.7472C70.5519 34.3242 70.3782 34.0632 69.9984 33.7059L69.2712 32.9787C68.5665 32.2848 68.2407 31.8618 68.2407 31.0149V30.7656C68.2407 29.8548 68.7726 29.1456 69.9768 29.1456C71.2134 29.1456 71.7012 29.7531 71.7012 30.816V31.4127H70.5735V30.78C70.5735 30.357 70.3782 30.15 69.9876 30.15C69.6402 30.15 69.4017 30.3453 69.4017 30.7575V30.9096C69.4017 31.3218 69.6294 31.5603 69.9876 31.9077L70.7796 32.6889C71.4519 33.372 71.7777 33.7842 71.7777 34.5978V34.9578C71.7777 35.9667 71.2377 36.6822 69.9777 36.6822C68.7177 36.6822 68.2299 35.9775 68.2299 35.01Z" fill="white"/>
</svg>
