<svg width="90" height="90" viewBox="0 0 90 90" fill="none" xmlns="http://www.w3.org/2000/svg">
<rect width="90" height="90" fill="#19486A"/>
<path fill-rule="evenodd" clip-rule="evenodd" d="M30.5542 7.5312H28.72V14.8914H29.9575V12.3948H30.5542C31.8016 12.3948 32.257 11.7657 32.257 10.7334V9.1818C32.257 8.1495 31.8016 7.5312 30.5542 7.5312ZM29.9574 11.439V8.54011H30.4119C30.8385 8.54011 31.0185 8.73721 31.0185 9.13771V10.8306C31.0185 11.2329 30.8358 11.439 30.4119 11.439H29.9574Z" fill="white"/>
<path fill-rule="evenodd" clip-rule="evenodd" d="M33.7984 7.5312L32.4088 14.8914H33.5806L33.7984 13.5414H35.1106L35.3383 14.8914H36.6064L35.2078 7.5312H33.7984ZM34.9515 12.5568H33.9615L34.452 9.6039H34.4628L34.9515 12.5568Z" fill="white"/>
<path fill-rule="evenodd" clip-rule="evenodd" d="M38.4642 14.8959V11.52L39.6225 14.8914H40.923L39.7404 11.5479C40.4487 11.3859 40.7304 10.9179 40.7304 10.1259V9.1818C40.7304 8.1495 40.275 7.5312 39.0276 7.5312H37.2276V14.8959H38.4642ZM38.4641 10.8351V8.54461L38.8799 8.54011C39.3083 8.54011 39.4883 8.73721 39.4883 9.13771V10.2276C39.4883 10.6182 39.3038 10.8351 38.8799 10.8351H38.4641Z" fill="white"/>
<path d="M41.1717 7.5312H44.4594V8.5401H43.4388V14.8914H42.1914V8.5401H41.1717V7.5312Z" fill="white"/>
<path d="M46.2844 10.2672V14.8914H45.2431V7.5312H46.4563L47.7928 11.7531V7.5312H48.8224V14.8914H47.7379L46.2844 10.2672Z" fill="white"/>
<path d="M49.8385 7.5312H52.7888V8.5401H51.076V10.6461H52.3019V11.646H51.076V13.8816H52.7888V14.8914H49.8385V7.5312Z" fill="white"/>
<path fill-rule="evenodd" clip-rule="evenodd" d="M54.7964 14.8959V11.52L55.9565 14.8914H57.2561L56.0735 11.5479C56.7809 11.3859 57.0635 10.9179 57.0635 10.1259V9.1818C57.0635 8.1495 56.609 7.5312 55.3598 7.5312H53.5598V14.8959H54.7964ZM54.7962 10.8351V8.54461L55.2093 8.54011C55.6323 8.54011 55.8168 8.73721 55.8168 9.13771V10.2276C55.8168 10.6182 55.6323 10.8351 55.2093 10.8351H54.7962Z" fill="white"/>
<path d="M57.681 13.3056V12.3156H58.8321V13.3245C58.8321 13.7376 59.0121 13.9761 59.4378 13.9761C59.8293 13.9761 60.0021 13.7151 60.0021 13.3245V13.05C60.0021 12.6261 59.8293 12.3651 59.4477 12.0069L58.7223 11.2788C58.0167 10.5858 57.6918 10.161 57.6918 9.31589V9.06569C57.6918 8.15309 58.2237 7.44569 59.427 7.44569C60.6636 7.44569 61.1532 8.05319 61.1532 9.11789V9.7146H60.0237V9.07469C60.0237 8.64989 59.8293 8.44469 59.4378 8.44469C59.0904 8.44469 58.8528 8.64089 58.8528 9.05309V9.20519C58.8528 9.61829 59.0814 9.8559 59.4378 10.2033L60.2298 10.9845C60.903 11.6685 61.227 12.0807 61.227 12.8952V13.2552C61.227 14.2659 60.687 14.9805 59.427 14.9805C58.167 14.9805 57.681 14.2758 57.681 13.3092" fill="white"/>
<path d="M64.419 11.646H63.2265V14.8914H61.9881V7.5312H63.2265V10.6479H64.419V7.5312H65.6655V14.8914H64.419V11.646Z" fill="white"/>
<rect x="66.4811" y="7.5312" width="1.23661" height="7.3593" fill="white"/>
<path fill-rule="evenodd" clip-rule="evenodd" d="M70.3797 7.5312H68.5419V14.8914H69.7839V12.3948H70.3797C71.628 12.3948 72.0834 11.7657 72.0834 10.7334V9.1818C72.0834 8.1495 71.628 7.5312 70.3797 7.5312ZM69.7793 11.439V8.54011H70.2293C70.6577 8.54011 70.8377 8.73721 70.8377 9.13771V10.8306C70.8377 11.2329 70.6532 11.439 70.2293 11.439H69.7793Z" fill="white"/>
<path d="M72.5624 13.3056V12.3156H73.7099V13.3245C73.7099 13.7376 73.8944 13.9761 74.3183 13.9761C74.708 13.9761 74.8826 13.7151 74.8826 13.3245V13.05C74.8826 12.6261 74.708 12.3651 74.3291 12.0069L73.6019 11.2788C72.8972 10.5858 72.5714 10.161 72.5714 9.31589V9.06569C72.5714 8.15309 73.1042 7.44569 74.3066 7.44569C75.5442 7.44569 76.0311 8.05319 76.0311 9.11789V9.7146H74.9061V9.07469C74.9061 8.64989 74.7098 8.44469 74.3201 8.44469C73.9727 8.44469 73.7351 8.64089 73.7351 9.05309V9.20519C73.7351 9.61829 73.961 9.8559 74.3201 10.2033L75.1122 10.9845C75.7845 11.6685 76.1094 12.0807 76.1094 12.8952V13.2552C76.1094 14.2659 75.5694 14.9805 74.3093 14.9805C73.0493 14.9805 72.5633 14.2758 72.5633 13.3092" fill="white"/>
<path d="M13.4666 7.54291V25.6878H10.4156V11.7981H10.3886L8.24752 14.0193H8.22142V10.8342L11.0321 7.54291H13.4666Z" fill="white"/>
<path d="M14.859 7.54291H22.5144V10.3527L18.5256 25.6878H15.4998L19.5687 10.0314H14.859V7.54291Z" fill="white"/>
<path d="M28.7215 18.2214H31.6645V19.2456H29.9779V21.384H31.2343V22.3965H29.9779V25.6914H28.7215V18.2214Z" fill="white"/>
<path fill-rule="evenodd" clip-rule="evenodd" d="M32.1048 20.1492V23.76H32.1138C32.1138 24.9165 32.67 25.776 34.0038 25.776C35.3376 25.776 35.91 24.9165 35.91 23.76V20.1492C35.91 18.9819 35.3124 18.1332 33.9948 18.1332C32.6772 18.1332 32.1048 18.9792 32.1048 20.1492ZM34.6579 19.9512V23.958V23.9616C34.6579 24.4134 34.4491 24.7329 34.0081 24.7329C33.5671 24.7329 33.37 24.4116 33.37 23.9616V19.9512C33.37 19.4994 33.5563 19.1799 34.0081 19.1799C34.4599 19.1799 34.6579 19.5012 34.6579 19.9512Z" fill="white"/>
<path fill-rule="evenodd" clip-rule="evenodd" d="M37.98 25.6914V22.2651L39.1563 25.6887H40.4766L39.2769 22.2948C39.9924 22.1328 40.2795 21.6585 40.2795 20.8548V19.8963C40.2795 18.8514 39.816 18.2214 38.5488 18.2214H36.72V25.6914H37.98ZM37.9798 21.5712V19.2456H38.3983C38.8276 19.2456 39.0157 19.4436 39.0157 19.8513V20.9538C39.0157 21.3507 38.8276 21.5712 38.3983 21.5712H37.9798Z" fill="white"/>
<path d="M42.2667 18.2214H45.6048V19.2456H44.5698V25.6914H43.3026V19.2456H42.2667V18.2214Z" fill="white"/>
<path d="M48.6566 22.3965H47.4443V25.6914H46.1888V18.2214H47.4443V21.384H48.6566V18.2214H49.9239V25.6914H48.6566V22.3965Z" fill="white"/>
<path d="M50.7412 18.2214H53.7382V19.2456H51.9976V21.384H53.2423V22.3965H51.9976V24.6672H53.7382V25.6914H50.7412V18.2214Z" fill="white"/>
<path d="M57.7509 21.7026H59.5356V25.6914H58.6356V24.876C58.4709 25.4385 58.1181 25.776 57.435 25.776C56.355 25.776 55.8591 24.9165 55.8591 23.76V20.1492C55.8591 18.9792 56.4207 18.1332 57.7437 18.1332C59.1315 18.1332 59.5437 18.9045 59.5437 20.0061V20.6667H58.3899V19.9071C58.3899 19.4445 58.2099 19.1799 57.7599 19.1799C57.3099 19.1799 57.1101 19.4994 57.1101 19.9512V23.9616C57.1101 24.4116 57.2964 24.7329 57.7275 24.7329C58.1343 24.7329 58.344 24.5007 58.344 24.0129V22.6944H57.7491L57.7509 21.7026Z" fill="white"/>
<path fill-rule="evenodd" clip-rule="evenodd" d="M60.2522 20.1492V23.76C60.2522 24.9165 60.8084 25.776 62.1422 25.776C63.476 25.776 64.0494 24.9165 64.0494 23.76V20.1492C64.0494 18.9819 63.4598 18.1332 62.1422 18.1332C60.8246 18.1332 60.2522 18.9792 60.2522 20.1492ZM62.7976 19.9512V23.958V23.9616C62.7976 24.4134 62.587 24.7329 62.1469 24.7329C61.7068 24.7329 61.5088 24.4116 61.5088 23.9616V19.9512C61.5088 19.4994 61.6951 19.1799 62.1469 19.1799C62.5987 19.1799 62.7976 19.5012 62.7976 19.9512Z" fill="white"/>
<path fill-rule="evenodd" clip-rule="evenodd" d="M65.8162 18.2214L64.4059 25.6914H65.5966L65.8162 24.3243H67.15L67.3804 25.6914H68.6701L67.249 18.2214H65.8162ZM66.9845 23.3226H65.9811L66.4779 20.3256H66.4878L66.9845 23.3226Z" fill="white"/>
<path d="M69.3892 18.2214H70.6456V24.6672H72.1432V25.6914H69.3892V18.2214Z" fill="white"/>
<path d="M72.594 24.0831V23.0805H73.764V24.1047C73.764 24.5232 73.9521 24.7662 74.3805 24.7662C74.7783 24.7662 74.9547 24.5007 74.9547 24.1047V23.8185C74.9547 23.3883 74.7747 23.1246 74.3922 22.7601L73.6551 22.023C72.9351 21.3174 72.6084 20.8881 72.6084 20.0277V19.7748C72.6084 18.8496 73.1484 18.1332 74.3706 18.1332C75.6306 18.1332 76.1229 18.7497 76.1229 19.8297V20.4354H74.9745V19.7865C74.9745 19.3563 74.7756 19.1466 74.3778 19.1466C74.0259 19.1466 73.7838 19.3455 73.7838 19.764V19.9179C73.7838 20.3364 74.016 20.5794 74.3778 20.9322L75.1824 21.7251C75.8664 22.419 76.1976 22.8375 76.1976 23.6637V24.0237C76.1976 25.0488 75.6459 25.776 74.3679 25.776C73.0899 25.776 72.594 25.056 72.594 24.0795" fill="white"/>
<path fill-rule="evenodd" clip-rule="evenodd" d="M67.3434 54.5832C67.3434 48.2625 62.3151 43.0992 56.0511 42.8706C54.3972 38.1846 49.968 35.0509 44.9987 35.0509C40.0294 35.0509 35.6002 38.1846 33.9462 42.8706C27.6831 43.0992 22.6566 48.2634 22.6566 54.5832C22.6569 58.1962 24.3265 61.6064 27.18 63.8226C26.8739 64.8803 26.7182 65.9759 26.7174 67.077C26.7174 73.5372 31.9761 78.7959 38.4408 78.7959C40.8028 78.7982 43.1098 78.0826 45.0558 76.7439C46.9793 78.0335 49.2434 78.7209 51.5592 78.7185C58.023 78.7185 63.2817 73.4598 63.2817 66.9987C63.2815 65.9204 63.1322 64.8474 62.838 63.81C65.6802 61.5924 67.3422 58.1891 67.3434 54.5841V54.5832ZM54.3598 46.773C54.3598 51.4656 50.8867 55.35 46.3786 56.0214C46.3003 55.5453 46.2594 55.0639 46.2562 54.5814C46.2632 49.949 49.6559 46.0177 54.2374 45.333C54.3154 45.8091 54.3563 46.2906 54.3598 46.773ZM42.196 67.055C42.213 69.5636 43.2389 71.9599 45.0425 73.7037C46.8231 71.9361 47.817 69.5261 47.8001 67.0171C47.7831 64.5082 46.7568 62.1118 44.9525 60.3684C43.1726 62.1364 42.1791 64.5463 42.196 67.055ZM35.7599 45.3339L35.7624 45.3343C35.6846 45.81 35.6438 46.291 35.6402 46.773C35.6402 51.4656 39.1106 55.35 43.6169 56.0232C43.6955 55.5472 43.7367 55.0657 43.7402 54.5832C43.7402 49.8906 40.2692 46.0058 35.7624 45.3343L35.7626 45.333L35.7599 45.3339ZM37.2742 63.4866C39.6556 62.712 41.6254 61.0123 42.7404 58.77C40.5196 57.6128 37.9268 57.3972 35.5454 58.1718C33.164 58.9464 31.1942 60.6461 30.0792 62.8884C32.3 64.0456 34.8928 64.2612 37.2742 63.4866ZM47.2284 58.707C49.4614 57.5341 52.0741 57.3152 54.4711 58.1003C56.8681 58.8853 58.8452 60.6074 59.9517 62.874C57.7187 64.0469 55.106 64.2658 52.709 63.4807C50.312 62.6957 48.3349 60.9736 47.2284 58.707ZM53.5814 43.0407C52.0937 39.6258 48.7248 37.4162 44.9999 37.4121C41.2751 37.4164 37.9063 39.626 36.4184 43.0407C40.1793 43.7115 43.3797 46.1681 44.9999 49.6278C46.6213 46.1691 49.8211 43.7129 53.5814 43.0407ZM25.02 54.5832C25.0262 49.8036 28.6269 45.7939 33.3783 45.2754C32.8801 49.0678 34.2735 52.8634 37.107 55.4328C33.296 55.873 29.9402 58.1468 28.1187 61.5231C26.1478 59.7543 25.0213 57.2314 25.02 54.5832ZM29.2824 65.1366C29.1465 65.7745 29.078 66.4248 29.0781 67.077C29.0736 70.4292 30.8651 73.527 33.7728 75.1951C36.6805 76.8632 40.259 76.846 43.1505 75.15C40.4953 72.4266 39.3342 68.58 40.0392 64.8423C36.7141 66.6813 32.7031 66.791 29.2824 65.1366ZM60.9221 66.9987C60.9269 70.3319 59.1564 73.4155 56.2752 75.0914C53.394 76.7674 49.8383 76.7822 46.9433 75.1302C49.5548 72.388 50.6735 68.5491 49.9439 64.8333C53.2769 66.6844 57.3031 66.7942 60.7322 65.1276C60.8585 65.7433 60.9221 66.3702 60.9221 66.9987ZM56.7217 46.773C56.7226 50.0353 55.3604 53.1497 52.9642 55.3635C56.7672 55.8277 60.1049 58.1176 61.9066 61.4988C64.64 59.0267 65.6652 55.1789 64.524 51.6746C63.3828 48.1702 60.2885 45.6639 56.6236 45.2754C56.6877 45.772 56.7204 46.2722 56.7217 46.773Z" fill="white"/>
</svg>
