<svg width="90" height="90" viewBox="0 0 90 90" fill="none" xmlns="http://www.w3.org/2000/svg">
<rect width="90" height="90" fill="#FD6925"/>
<path fill-rule="evenodd" clip-rule="evenodd" d="M12.0429 7.2657C15.2523 7.2657 16.4835 9.2979 16.4835 12.1077V20.9349C16.4835 23.7708 15.1983 25.8309 11.9898 25.8309C8.6184 25.8309 7.6545 23.958 7.6545 21.2841V20.3202H10.44V21.5235C10.44 22.6476 10.8396 23.2929 11.9358 23.2929C13.032 23.2929 13.4595 22.5171 13.4595 21.42V17.5122H13.4334C12.9789 18.3933 12.204 18.9828 10.9197 18.9828C8.7246 18.9828 7.5483 17.4852 7.5483 14.5152V11.8395C7.5483 9.0306 8.8029 7.2657 12.0429 7.2657ZM12.0194 16.5474C12.9788 16.5474 13.4063 15.9057 13.4594 14.8896L13.4675 11.5722C13.4675 10.4481 13.067 9.7533 12.0509 9.7533C11.006 9.7533 10.5794 10.422 10.5794 11.5722V14.7285C10.5794 15.9057 10.9772 16.5474 12.0194 16.5474Z" fill="white"/>
<path fill-rule="evenodd" clip-rule="evenodd" d="M56.7899 52.9803L67.4891 59.1552C67.713 59.2839 67.8521 59.5215 67.8545 59.7798V72.5598C67.8534 72.8199 67.7143 73.0598 67.4891 73.1898L56.4254 79.5798C56.1993 79.7095 55.9215 79.7095 55.6955 79.5798L44.9999 73.4049L34.3025 79.5852C34.0764 79.7149 33.7986 79.7149 33.5726 79.5852L22.5107 73.1952C22.2854 73.0652 22.1463 72.8253 22.1453 72.5652V59.7852C22.1461 59.5251 22.2853 59.2851 22.5107 59.1552L33.2099 52.9803V40.626C33.2094 40.367 33.3465 40.1271 33.5699 39.996L44.639 33.6078C44.8648 33.4772 45.1431 33.4772 45.3689 33.6078L56.4299 39.9978C56.6533 40.1289 56.7903 40.3688 56.7899 40.6278V52.9803ZM35.3968 66.1743L44.269 71.298L44.2699 61.0515L35.3968 66.1743ZM54.601 53.4024L45.7288 58.5225V48.2787L54.601 53.4024ZM35.3978 53.4015L44.27 58.5234V48.2787L35.3978 53.4015ZM46.4596 59.7834L56.0608 54.2448L65.6648 59.787L56.0608 65.3319L46.4596 59.7834ZM46.4596 47.0097L55.3309 52.1334V41.8878L46.4596 47.0097ZM43.541 47.0097L34.6679 52.1334V41.8923L43.541 47.0097ZM23.6069 72.1404L33.2099 77.6835V66.6L23.6069 61.0515V72.1404ZM34.6688 77.6835V67.4388L43.5419 72.5625L34.6688 77.6835ZM56.7898 77.6835L66.3964 72.1404L66.3946 61.0551L56.7898 66.6V77.6835Z" fill="white"/>
<path d="M21.2464 7.68419H22.4254V14.7042H21.2464V7.68419Z" fill="white"/>
<path d="M23.9465 10.2915V14.7015H22.9502V7.6815H24.1085L25.3811 11.7063V7.6842H26.3702V14.7042H25.3334L23.9465 10.2915Z" fill="white"/>
<path fill-rule="evenodd" clip-rule="evenodd" d="M30.4129 12.816V9.5679C30.4129 8.4816 29.9701 7.6842 28.7101 7.6797H26.8849V14.6997H28.7029C29.9683 14.6997 30.4129 13.896 30.4129 12.816ZM29.2339 13.023C29.2339 13.4478 29.0476 13.7376 28.5607 13.7376H28.0648V8.6472H28.5607C29.0476 8.6472 29.2339 8.9361 29.2339 9.3501V13.023Z" fill="white"/>
<path d="M34.3549 7.68419V12.9942C34.3549 14.0805 33.8896 14.7843 32.689 14.7843C31.4479 14.7843 30.9304 14.0805 30.9304 12.9942V7.68419H32.1103V13.1058C32.1103 13.5198 32.275 13.7997 32.689 13.7997C33.103 13.7997 33.2686 13.5198 33.2686 13.1058V7.68419H34.3549Z" fill="white"/>
<path d="M34.8102 13.1886V12.2472H35.91V13.2093C35.91 13.6026 36.0855 13.8303 36.4887 13.8303C36.8613 13.8303 37.0287 13.5819 37.0287 13.2093V12.9393C37.0287 12.5361 36.8631 12.2877 36.5013 11.9493L35.8083 11.2554C35.1351 10.5939 34.8246 10.1898 34.8246 9.3834V9.1449C34.8246 8.2764 35.3322 7.6032 36.4806 7.6032C37.6596 7.6032 38.1258 8.1828 38.1258 9.1971V9.7659H37.0458V9.1557C37.0458 8.7516 36.8595 8.5554 36.4869 8.5554C36.1557 8.5554 35.9289 8.7417 35.9289 9.135V9.2799C35.9289 9.6732 36.1458 9.9009 36.4869 10.2312L37.2429 10.9764C37.8837 11.628 38.1942 12.0213 38.1942 12.7971V13.14C38.1942 14.1021 37.6767 14.7852 36.477 14.7852C35.2773 14.7852 34.8102 14.1093 34.8102 13.1886Z" fill="white"/>
<path d="M38.2663 7.68419H41.4001V8.64719H40.4281V14.6997H39.2401V8.64719H38.2681L38.2663 7.68419Z" fill="white"/>
<path fill-rule="evenodd" clip-rule="evenodd" d="M42.9733 14.6997V11.4813L44.0803 14.6952H45.3223L44.1946 11.5083C44.866 11.3526 45.136 10.908 45.136 10.1529V9.2529C45.136 8.2701 44.7013 7.6797 43.5115 7.6797H41.7943V14.6997H42.9733ZM42.9732 10.8297V8.6472H43.3665C43.7661 8.6472 43.9461 8.8326 43.9461 9.216V10.2501C43.9461 10.6227 43.7697 10.8297 43.3665 10.8297H42.9732Z" fill="white"/>
<path d="M47.6605 12.0303V14.6997H46.4806V12.0303L45.1666 7.68419H46.3978L47.1124 10.3437H47.1223L47.836 7.68419H48.9601L47.6605 12.0303Z" fill="white"/>
<path d="M49.9779 13.6647L49.3776 15.2478H48.7161L48.8601 13.572H49.9779V13.6647Z" fill="white"/>
<path d="M51.427 7.68419H52.606V14.7042H51.427V7.68419Z" fill="white"/>
<path d="M54.127 10.2915V14.7015H53.137V7.6815H54.2962L55.5688 11.7063V7.6842H56.5516V14.7042H55.5166L54.127 10.2915Z" fill="white"/>
<path d="M58.0583 10.2915V14.7015H57.0682V7.6815H58.2266L59.4992 11.7063V7.6842H60.4802V14.7042H59.4452L58.0583 10.2915Z" fill="white"/>
<path fill-rule="evenodd" clip-rule="evenodd" d="M60.9966 9.495V12.8889C60.9966 13.9752 61.5258 14.7789 62.7759 14.7789C64.026 14.7789 64.566 13.9752 64.566 12.8889V9.495C64.566 8.4024 64.0152 7.605 62.7759 7.605C61.5366 7.605 60.9966 8.3988 60.9966 9.495ZM63.387 9.3087V13.0752C63.387 13.5 63.189 13.7997 62.7759 13.7997C62.3628 13.7997 62.1765 13.4991 62.1765 13.0752V9.3087C62.1765 8.8884 62.3511 8.5887 62.7759 8.5887C63.2007 8.5887 63.387 8.8848 63.387 9.3087Z" fill="white"/>
<path d="M68.86 7.68419L67.5253 14.7042H66.2401L64.9063 7.68419H66.106L66.916 12.5784H66.9259L67.7539 7.68419H68.86Z" fill="white"/>
<path fill-rule="evenodd" clip-rule="evenodd" d="M69.814 7.6797L68.4901 14.6997H69.6052L69.8113 13.4163H71.0623L71.2801 14.6997H72.4987L71.164 7.6797H69.814ZM70.9112 12.4749H69.9698L70.4351 9.6606H70.4459L70.9112 12.4749Z" fill="white"/>
<path d="M72.1711 7.68419H75.3058V8.64719H74.3329V14.6997H73.1431V8.64719H72.1711V7.68419Z" fill="white"/>
<path d="M75.6992 7.68419H76.8782V14.7042H75.6992V7.68419Z" fill="white"/>
<path fill-rule="evenodd" clip-rule="evenodd" d="M77.4055 9.495V12.8889C77.4055 13.9752 77.9365 14.7789 79.1857 14.7789C80.4349 14.7789 80.9749 13.9752 80.9749 12.8889V9.495C80.9749 8.4024 80.4259 7.605 79.1857 7.605C77.9455 7.605 77.4055 8.3988 77.4055 9.495ZM79.7959 9.3087V13.0752C79.7959 13.5 79.5997 13.7997 79.1857 13.7997C78.7717 13.7997 78.5854 13.4991 78.5854 13.0752V9.3087C78.5854 8.8884 78.7618 8.5887 79.1857 8.5887C79.6096 8.5887 79.7959 8.8848 79.7959 9.3087Z" fill="white"/>
<path d="M82.4859 10.2915V14.7015H81.4959V7.6815H82.6551L83.9277 11.7063V7.6842H84.9105V14.7042H83.8755L82.4859 10.2915Z" fill="white"/>
<path fill-rule="evenodd" clip-rule="evenodd" d="M22.3838 18.495L21.0599 25.5096H22.1723L22.3793 24.2271H23.633L23.8499 25.5096H25.0586L23.7239 18.495H22.3838ZM23.4808 23.2857H22.5385L23.0047 20.4714H23.0146L23.4808 23.2857Z" fill="white"/>
<path d="M26.4868 21.1023V25.5123H25.4968V18.495H26.656L27.9286 22.5198V18.495H28.9078V25.5096H27.8728L26.4868 21.1023Z" fill="white"/>
<path fill-rule="evenodd" clip-rule="evenodd" d="M33.057 23.6268V20.3778C33.057 19.2915 32.6115 18.495 31.3497 18.495H29.529V25.5096H31.347C32.6115 25.5096 33.057 24.7068 33.057 23.6268ZM31.877 23.8338C31.877 24.2577 31.6907 24.5475 31.2047 24.5475L30.7079 24.5466V19.4562H31.2047C31.6907 19.4562 31.877 19.746 31.877 20.16V23.8338Z" fill="white"/>
<path d="M34.712 18.495H35.8919V25.5096H34.712V18.495Z" fill="white"/>
<path d="M37.5155 21.1023V25.5123H36.5255V18.495H37.6838L38.9564 22.5198V18.495H39.9392V25.5096H38.9024L37.5155 21.1023Z" fill="white"/>
<path d="M40.5574 18.495H43.3204V19.4571H41.7373V21.465H42.9163V22.4163H41.7373V25.5096H40.5574V18.495Z" fill="white"/>
<path fill-rule="evenodd" clip-rule="evenodd" d="M44.9648 25.5096V22.2921L46.0718 25.5096H47.3138L46.1861 22.3236C46.8575 22.1679 47.1275 21.7233 47.1275 20.9682V20.0682C47.1275 19.0845 46.6928 18.495 45.503 18.495H43.7858V25.5096H44.9648ZM44.9648 21.6405V19.4571H45.3599C45.7595 19.4571 45.9395 19.6434 45.9395 20.0268V21.0609C45.9395 21.4335 45.7631 21.6405 45.3599 21.6405H44.9648Z" fill="white"/>
<path fill-rule="evenodd" clip-rule="evenodd" d="M48.8556 18.495L47.5308 25.5096H48.6486L48.8556 24.2271H50.1075L50.3244 25.5096H51.5349L50.2002 18.495H48.8556ZM49.9501 23.2857H49.0105L49.4749 20.4714H49.4848L49.9501 23.2857Z" fill="white"/>
<path d="M51.804 23.9994V23.058H52.9011V24.0201C52.9011 24.4134 53.0811 24.6411 53.4798 24.6411C53.8524 24.6411 54.0198 24.3927 54.0198 24.0201V23.7501C54.0198 23.3469 53.8542 23.0985 53.4924 22.7601L52.7994 22.0662C52.1271 21.4047 51.8166 21.0006 51.8166 20.1933V19.9557C51.8166 19.0863 52.3233 18.414 53.4717 18.414C54.6507 18.414 55.1169 18.9936 55.1169 20.0079V20.5767H54.0369V19.9665C54.0369 19.5624 53.8506 19.3662 53.478 19.3662C53.1468 19.3662 52.92 19.5525 52.92 19.9458V20.0907C52.92 20.4831 53.1369 20.7108 53.478 21.042L54.234 21.7872C54.8748 22.4388 55.1853 22.8321 55.1853 23.6079V23.9499C55.1853 24.912 54.6678 25.5942 53.4681 25.5942C52.2684 25.5942 51.804 24.9201 51.804 23.9994Z" fill="white"/>
<path d="M55.467 18.495H58.6017V19.4571H57.6288V25.5096H56.439V19.4571H55.467V18.495Z" fill="white"/>
<path fill-rule="evenodd" clip-rule="evenodd" d="M60.2773 25.5096V22.2921L61.3798 25.5096H62.6218L61.4941 22.3236C62.1655 22.1679 62.4355 21.7233 62.4355 20.9682V20.0682C62.4355 19.0845 62.0053 18.495 60.8155 18.495H59.0983V25.5096H60.2773ZM60.2772 21.6405V19.4571H60.6705C61.0701 19.4571 61.2501 19.6434 61.2501 20.0268V21.0609C61.2501 21.4335 61.0737 21.6405 60.6705 21.6405H60.2772Z" fill="white"/>
<path d="M66.4541 18.495V23.805C66.4541 24.8913 65.9888 25.5942 64.7882 25.5942C63.547 25.5942 63.0295 24.8913 63.0295 23.805V18.495H64.2094V23.9166C64.2094 24.3306 64.375 24.6096 64.7882 24.6096C65.2013 24.6096 65.3678 24.3306 65.3678 23.9166V18.495H66.4541Z" fill="white"/>
<path d="M67.0752 23.6997V20.3058C67.0752 19.2087 67.5927 18.4158 68.8338 18.4158C70.1379 18.4158 70.4997 19.1358 70.4997 20.1744V21.0024H69.4197V20.0781C69.4197 19.6434 69.2748 19.395 68.85 19.395C68.4252 19.395 68.2506 19.6956 68.2506 20.1195V23.886C68.2506 24.3099 68.4306 24.606 68.85 24.606C69.2694 24.606 69.4197 24.336 69.4197 23.9238V22.6341H70.4997V23.8446C70.4997 24.8481 70.0857 25.5924 68.8338 25.5924C67.5819 25.5924 67.0752 24.786 67.0752 23.6997Z" fill="white"/>
<path d="M70.6966 18.495H73.8313V19.4571H72.8584V25.5096H71.6686V19.4571H70.6966L70.6966 18.495Z" fill="white"/>
<path d="M77.7527 18.495V23.805C77.7527 24.8913 77.2874 25.5942 76.0868 25.5942C74.8448 25.5942 74.3282 24.8913 74.3282 23.805V18.495H75.5099V23.9166C75.5099 24.3306 75.6755 24.6096 76.0895 24.6096C76.5035 24.6096 76.6691 24.3306 76.6691 23.9166V18.495H77.7527Z" fill="white"/>
<path fill-rule="evenodd" clip-rule="evenodd" d="M79.5527 25.5096V22.2921L80.6579 25.5096H81.8999L80.774 22.3236C81.4454 22.1679 81.7154 21.7233 81.7154 20.9682V20.0682C81.7154 19.0845 81.2807 18.495 80.0909 18.495H78.3737V25.5096H79.5527ZM79.5527 21.6405V19.4571H79.946C80.3456 19.4571 80.5256 19.6434 80.5256 20.0268V21.0609C80.5256 21.4335 80.3492 21.6405 79.946 21.6405H79.5527Z" fill="white"/>
<path d="M82.305 18.495H85.1193V19.4571H83.4849V21.465H84.6549V22.4163H83.4849V24.5475H85.1193V25.5096H82.305V18.495Z" fill="white"/>
</svg>
