<svg width="90" height="90" viewBox="0 0 90 90" fill="none" xmlns="http://www.w3.org/2000/svg">
<rect width="90" height="90" fill="#4C9F38"/>
<path d="M12.8431 25.9326C15.9219 25.9326 17.2602 24.2991 17.2602 21.7836V19.1079C17.2602 17.4483 16.5402 16.3773 15.0102 16.0299C16.2702 15.6285 17.0973 14.6106 17.0973 13.086V11.5065C17.0973 8.937 15.8661 7.3584 13.0564 7.3584C9.89735 7.3584 8.79935 9.2304 8.79935 11.9079V13.5135H11.5831V11.6667C11.5831 10.5426 11.9323 9.9009 12.8953 9.9009C13.8583 9.9009 14.2056 10.5426 14.2056 11.5326V13.4865C14.2056 14.4504 13.564 14.958 12.5749 14.958H11.4229V17.2881H12.7081C13.7781 17.2881 14.2056 17.7957 14.2056 18.7596V21.7575C14.2056 22.7205 13.7782 23.391 12.8413 23.391C11.7982 23.391 11.4229 22.6935 11.4229 21.6234V19.0278H8.64005V21.4092C8.64005 24.1668 9.73625 25.9326 12.8404 25.9326" fill="white"/>
<path d="M75.1735 56.25C75.1735 53.7174 73.5535 51.66 71.0875 51.66C69.8572 51.66 68.3722 53.01 67.5658 53.8371C66.7558 53.0064 65.3734 51.6582 64.1458 51.6582C61.6852 51.6582 59.9599 53.7111 59.9599 56.2482C59.956 57.4572 60.4246 58.6198 61.2658 59.4882L67.5748 65.8089L73.8748 59.4954L73.8694 59.4909C74.7097 58.6218 75.1776 57.4589 75.1735 56.25Z" fill="white"/>
<path d="M48.313 76.1292H48.2482C47.7684 76.1004 47.3719 75.7445 47.2915 75.2706L44.0866 56.6037L39.232 65.6037C39.0196 65.9969 38.579 66.2096 38.139 66.1313C37.699 66.053 37.3589 65.7013 37.2952 65.259L35.2342 50.8545L31.4641 59.3235C31.2977 59.6977 30.9268 59.9391 30.5173 59.94H15.8626C15.3147 59.9077 14.8869 59.4539 14.8869 58.905C14.8869 58.3561 15.3147 57.9023 15.8626 57.87H29.8441L34.804 46.7307C34.9911 46.309 35.4344 46.0618 35.8915 46.1244C36.3485 46.187 36.7091 46.5442 36.7759 47.0007L38.9008 61.8507L43.6879 52.974C43.8982 52.5857 44.3314 52.3733 44.7672 52.4447C45.203 52.5161 45.5457 52.8557 45.6211 53.2908L48.5911 70.5771L59.4046 34.65C59.5282 34.241 59.89 33.9497 60.3159 33.9163C60.7419 33.8828 61.1447 34.1141 61.3306 34.4988L67.0213 46.2969C67.1904 46.6313 67.1658 47.031 66.9568 47.342C66.7479 47.6531 66.3872 47.8271 66.0137 47.797C65.6402 47.7669 65.312 47.5374 65.1556 47.1969L60.6214 37.8L49.3039 75.3912C49.1728 75.829 48.77 76.1289 48.313 76.1292Z" fill="white"/>
<path d="M27.5608 10.9611H29.3194V14.8896H28.4293V14.0859C28.2664 14.6394 27.919 14.976 27.2467 14.976C26.1829 14.976 25.6951 14.13 25.6951 12.9906V9.43109C25.6951 8.28089 26.2486 7.44569 27.55 7.44569C28.9171 7.44569 29.3194 8.20529 29.3194 9.29069V9.94139H28.1908V9.19259C28.1908 8.73719 28.0171 8.47259 27.5725 8.47259C27.1279 8.47259 26.9317 8.78759 26.9317 9.23219V13.1823C26.9317 13.6269 27.1162 13.9419 27.5392 13.9419C27.9406 13.9419 28.1476 13.7142 28.1476 13.2363V11.9376H27.5608V10.9611Z" fill="white"/>
<path fill-rule="evenodd" clip-rule="evenodd" d="M30.1321 9.43109V12.9906C30.1321 14.13 30.6856 14.976 31.9987 14.976C33.3118 14.976 33.8761 14.13 33.8761 12.9906V9.43109C33.8761 8.27999 33.301 7.44569 31.9987 7.44569C30.6964 7.44569 30.1321 8.28089 30.1321 9.43109ZM32.6386 9.23579V13.1859C32.6386 13.6305 32.4334 13.9455 31.9987 13.9455C31.564 13.9455 31.3687 13.6305 31.3687 13.1859V9.23579C31.3687 8.79119 31.5541 8.47619 31.9987 8.47619C32.4433 8.47619 32.6386 8.79119 32.6386 9.23579Z" fill="white"/>
<path fill-rule="evenodd" clip-rule="evenodd" d="M34.6897 9.43109V12.9906C34.6897 14.13 35.2414 14.976 36.5536 14.976C37.8658 14.976 38.4301 14.13 38.4301 12.9906V9.43109C38.4301 8.27999 37.8586 7.44569 36.5563 7.44569C35.254 7.44569 34.6897 8.28089 34.6897 9.43109ZM37.1961 9.23579V13.1859C37.1961 13.6305 36.9909 13.9455 36.5562 13.9455C36.1215 13.9455 35.9262 13.6305 35.9262 13.1859V9.23579C35.9262 8.79119 36.1116 8.47619 36.5562 8.47619C37.0008 8.47619 37.1961 8.79119 37.1961 9.23579Z" fill="white"/>
<path fill-rule="evenodd" clip-rule="evenodd" d="M42.9463 12.9141V9.50759C42.9463 8.36999 42.4801 7.53299 41.1562 7.53299H39.2464V14.8896H41.1562C42.4801 14.8896 42.9463 14.0427 42.9463 12.9141ZM41.7097 13.131C41.7097 13.5765 41.5144 13.8798 41.0041 13.8798H40.4839V8.54189H41.0041C41.5144 8.54189 41.7097 8.84519 41.7097 9.27989V13.131Z" fill="white"/>
<path d="M47.8729 11.6451H46.6795V14.8896H45.442V7.53299H46.6795V10.647H47.8729V7.53299H49.1203V14.8896H47.8729V11.6451Z" fill="white"/>
<path d="M49.9338 7.53299H52.8858V8.54189H51.1758V10.647H52.4016V11.6451H51.1713V13.8798H52.8813V14.8896H49.9293L49.9338 7.53299Z" fill="white"/>
<path fill-rule="evenodd" clip-rule="evenodd" d="M54.8497 7.53299L53.4601 14.8896H54.6301L54.8497 13.5441H56.1601L56.3896 14.8896H57.6595L56.26 7.53299H54.8497ZM56.0017 12.5568H55.0117L55.5031 9.60479H55.5139L56.0017 12.5568Z" fill="white"/>
<path d="M58.2778 7.53299H59.5144V13.8798H60.9903V14.8896H58.2778V7.53299Z" fill="white"/>
<path d="M60.8167 7.53299H64.1044V8.54189H63.0847V14.8896H61.8364V8.54189H60.8167V7.53299Z" fill="white"/>
<path d="M67.2184 11.6451H66.025V14.8896H64.7884V7.53299H66.025V10.647H67.2184V7.53299H68.4658V14.8896H67.2184V11.6451Z" fill="white"/>
<path fill-rule="evenodd" clip-rule="evenodd" d="M26.8974 18.3195L25.5087 25.6761H26.6805L26.8974 24.3261H28.2123L28.44 25.6761H29.7072L28.3077 18.3195H26.8974ZM28.0504 23.3433H27.0604L27.5509 20.3922H27.5617L28.0504 23.3433Z" fill="white"/>
<path d="M31.3677 21.0537V25.6761H30.33V18.3195H31.5459L32.8797 22.5405V18.3195H33.9111V25.6761H32.8212L31.3677 21.0537Z" fill="white"/>
<path fill-rule="evenodd" clip-rule="evenodd" d="M38.4201 23.7015V20.295C38.4201 19.1556 37.9539 18.3195 36.63 18.3195H34.7202V25.6761H36.63C37.9539 25.6761 38.4201 24.8301 38.4201 23.7015ZM37.1835 23.9184C37.1835 24.3639 36.9882 24.6672 36.4779 24.6672L35.9568 24.6708V19.3329H36.4779C36.9882 19.3329 37.1835 19.6362 37.1835 20.07V23.9184Z" fill="white"/>
<path d="M43.1506 21.1302L42.4567 25.6761H41.2957L40.3057 18.3195H41.4991L42.0742 22.9851H42.085L42.7033 18.3195H43.7122L44.3962 22.9851H44.407L44.9713 18.3195H46.0126L45.0577 25.6761H43.8877L43.1605 21.1302H43.1506Z" fill="white"/>
<path d="M46.6552 18.3195H49.6063V19.3293H47.8963V21.4335H49.1221V22.4325H47.8927V24.6672H49.6027V25.6761H46.6552V18.3195Z" fill="white"/>
<path d="M50.3767 18.3195H51.6142V24.6672H53.0893V25.6761H50.3767V18.3195Z" fill="white"/>
<path d="M53.7625 18.3195H54.9991V24.6672H56.4751V25.6761H53.7625V18.3195Z" fill="white"/>
<path d="M56.3121 21.33H58.05V22.32H56.3121V21.33Z" fill="white"/>
<path fill-rule="evenodd" clip-rule="evenodd" d="M58.7862 18.3195H60.5763C61.8129 18.3195 62.2251 18.8946 62.2251 19.9395V20.6883C62.2251 21.3066 61.9974 21.6972 61.488 21.8583C62.1063 21.9987 62.4096 22.4109 62.4096 23.0841V24.0606C62.4096 25.1019 61.9434 25.6806 60.7068 25.6806H58.7862V18.3195ZM60.0228 21.42H60.4566C60.858 21.42 61.0425 21.2139 61.0425 20.8233V19.9233C61.0425 19.5219 60.8625 19.3266 60.4458 19.3266H60.0228V21.42ZM60.0228 24.6645V22.3641H60.552C60.9858 22.3641 61.1703 22.5702 61.1703 22.9608V24.0678C61.1703 24.4584 60.975 24.6645 60.5628 24.6645H60.0228Z" fill="white"/>
<path d="M63.1368 18.3195H66.0879V19.3293H64.3779V21.4335H65.6046V22.4325H64.3734V24.6672H66.0834V25.6761H63.1368V18.3195Z" fill="white"/>
<path d="M66.8583 18.3195H68.0949V25.6761H66.8583V18.3195Z" fill="white"/>
<path d="M69.9616 21.0537V25.6761H68.9203V18.3195H70.1353L71.47 22.5405V18.3195H72.5005V25.6761H71.4205L69.9616 21.0537Z" fill="white"/>
<path d="M75.1807 21.7485H76.9384V25.6761H76.0501V24.8733C75.8872 25.4268 75.5407 25.7634 74.8675 25.7634C73.8046 25.7634 73.3159 24.9165 73.3159 23.7771V20.2185C73.3159 19.0683 73.8694 18.2331 75.1717 18.2331C76.5388 18.2331 76.9402 18.9927 76.9402 20.0772V20.7288H75.8098V19.98C75.8098 19.5246 75.6361 19.26 75.1915 19.26C74.7469 19.26 74.5507 19.575 74.5507 20.0196V23.9697C74.5507 24.4143 74.7307 24.7284 75.1591 24.7284C75.5605 24.7284 75.7666 24.5007 75.7666 24.0237V22.725H75.1807V21.7485Z" fill="white"/>
</svg>
