<svg width="90" height="90" viewBox="0 0 90 90" fill="none" xmlns="http://www.w3.org/2000/svg">
<rect width="90" height="90" fill="#56C02B"/>
<path d="M28.7604 7.533V14.8932H31.4739V13.8834H29.9979V7.533H28.7604Z" fill="white"/>
<rect x="32.147" y="7.533" width="1.23659" height="7.3593" fill="white"/>
<path d="M34.1973 14.8932H35.4339V11.6469H36.6714V10.6488H35.4339V8.5428H37.0926V7.533H34.1973V14.8932Z" fill="white"/>
<path d="M37.7453 14.8932H40.6955V13.8834H38.9819V11.6469H40.2086V10.6488H38.9819V8.5428H40.6955V7.533H37.7453V14.8932Z" fill="white"/>
<path d="M6.58994 10.8261V14.0103H6.61694L8.75713 11.7891H8.78503V25.6797H11.8351V7.533H9.39973L6.58994 10.8261Z" fill="white"/>
<path d="M19.0892 13.2885C17.885 13.2885 17.0021 13.716 16.5197 14.5485H16.4927V10.0224H21.7388V7.5348H13.7099V17.7588H16.4927V17.3556C16.4927 16.2864 16.9742 15.6969 17.8301 15.6969C18.7679 15.6969 19.1432 16.3395 19.1432 17.3304V21.7197C19.1432 22.6818 18.7949 23.3514 17.858 23.3514C16.8149 23.3514 16.4414 22.6557 16.4414 21.5847V19.3104H13.6514V21.3723C13.6514 24.1281 14.7485 25.8939 17.8535 25.8939C20.9315 25.8939 22.1888 24.2613 22.1888 21.7458V17.3025C22.1888 14.4387 20.7173 13.2885 19.0847 13.2885" fill="white"/>
<path fill-rule="evenodd" clip-rule="evenodd" d="M28.7549 20.2437V23.7888C28.7549 24.9255 29.3066 25.7688 30.6152 25.7688C31.9238 25.7688 32.4854 24.9246 32.4854 23.7888V20.2437C32.4854 19.0962 31.913 18.2637 30.6152 18.2637C29.3174 18.2637 28.7549 19.0971 28.7549 20.2437ZM31.2525 20.0484V23.9832C31.2525 24.4269 31.0509 24.741 30.6153 24.741C30.1797 24.741 29.9853 24.4269 29.9853 23.9832V20.0484C29.9853 19.6047 30.1725 19.2915 30.6153 19.2915C31.0581 19.2915 31.2525 19.6047 31.2525 20.0484Z" fill="white"/>
<path d="M34.2215 21.0762V25.6806H33.1838V18.351H34.3952L35.7245 22.5558V18.351H36.7514V25.6806H35.6714L34.2215 21.0762Z" fill="white"/>
<path d="M39.4235 18.351H40.6556V24.6753H42.1271V25.6806H39.4235V18.351Z" fill="white"/>
<path fill-rule="evenodd" clip-rule="evenodd" d="M43.8742 18.351L42.49 25.6806H43.6591L43.8742 24.3405H45.1801L45.4096 25.6806H46.675L45.28 18.351H43.8742ZM45.0209 23.3568H44.0372L44.5232 20.4165H44.534L45.0209 23.3568Z" fill="white"/>
<path d="M48.2166 21.0762V25.6806H47.178V18.351H48.3894L49.7187 22.5558V18.351H50.7456V25.6806H49.6656L48.2166 21.0762Z" fill="white"/>
<path fill-rule="evenodd" clip-rule="evenodd" d="M55.232 23.7141V20.3193C55.232 19.1835 54.7676 18.351 53.4482 18.351H51.5456V25.6806H53.4482C54.7676 25.6806 55.232 24.8373 55.232 23.7141ZM53.9997 23.9301C53.9997 24.3729 53.8035 24.6753 53.2968 24.6753H52.7775V19.3563H53.2968C53.8035 19.3563 53.9997 19.6587 53.9997 20.0916V23.9301Z" fill="white"/>
<path d="M37.7273 60.8508C37.78 60.8508 37.8306 60.8717 37.8679 60.909C37.9052 60.9463 37.9262 60.9969 37.9262 61.0497V67.6035C37.9264 67.6563 37.9055 67.707 37.8682 67.7444C37.8308 67.7817 37.7801 67.8026 37.7273 67.8024H35.0759C35.023 67.8026 34.9721 67.7818 34.9346 67.7444C34.8971 67.7071 34.8761 67.6564 34.8761 67.6035V61.0497C34.8761 60.9968 34.8971 60.946 34.9346 60.9087C34.9721 60.8714 35.023 60.8505 35.0759 60.8508H37.7273Z" fill="white"/>
<path d="M66.8519 70.6158H23.1471C23.0355 70.6187 22.9467 70.7103 22.9473 70.8219V73.4931C22.9487 73.6023 23.0379 73.6898 23.1471 73.6893H66.8519C66.9609 73.6889 67.0497 73.602 67.0526 73.4931V70.8219C67.0522 70.7103 66.9635 70.6192 66.8519 70.6158Z" fill="white"/>
<path d="M66.852 75.9249H23.1471C23.0388 75.9263 22.9515 76.0137 22.95 76.122V78.8013C22.952 78.9104 23.0407 78.9979 23.1498 78.9984H66.852C66.961 78.9975 67.0498 78.9103 67.0527 78.8013V76.122C67.0502 76.0128 66.9612 75.9254 66.852 75.9249" fill="white"/>
<path d="M58.5351 53.5968C57.9897 53.1693 56.5317 52.1721 54.7551 52.1721C53.4843 52.1721 52.3026 52.6725 51.2451 53.6634C51.1711 53.7338 51.1289 53.8313 51.1281 53.9334V54.18C51.1227 54.2933 51.1686 54.4031 51.2532 54.4788C51.3384 54.5505 51.4528 54.5773 51.561 54.5508C51.5888 54.5463 51.6162 54.5394 51.6429 54.5301C51.7249 54.5003 51.7996 54.453 51.8616 54.3915C52.0902 54.2376 52.7166 54.0315 53.6121 54.0315C54.5373 54.0315 56.3571 54.2799 58.1121 55.9215L58.1526 55.9575C58.2525 56.0595 58.3896 56.1166 58.5324 56.1159C58.6715 56.1164 58.805 56.0606 58.9023 55.9611L58.9383 55.9242C60.7059 54.2826 62.5221 54.0342 63.4473 54.0342C64.3473 54.0342 64.9773 54.2448 65.2023 54.3942C65.2711 54.4606 65.3538 54.511 65.4444 54.5418C65.5284 54.5619 65.6162 54.5613 65.7 54.54C65.8622 54.4955 65.9749 54.3482 65.9754 54.18V53.9694C65.9742 53.8673 65.9321 53.77 65.8584 53.6994C64.791 52.6824 63.5967 52.1694 62.3061 52.1694C60.5448 52.1694 59.094 53.1513 58.5324 53.5959" fill="white"/>
<path d="M55.8233 36.18C55.7298 36.2261 55.6605 36.3099 55.6325 36.4104L55.5884 36.5562C55.5544 36.6686 55.5758 36.7905 55.646 36.8847C55.7094 36.9718 55.8085 37.026 55.916 37.0323C55.9342 37.0358 55.9528 37.0358 55.9709 37.0323C56.0444 37.0312 56.1166 37.0127 56.1815 36.9783C56.27 36.9573 56.3607 36.9473 56.4515 36.9486C56.6468 36.9486 58.409 37.008 59.5736 38.988L59.5889 39.0168C59.6466 39.1269 59.7478 39.2079 59.8679 39.24C59.9133 39.2534 59.9602 39.2606 60.0074 39.2616C60.0842 39.2618 60.1599 39.2432 60.2279 39.2076L60.2567 39.1932C60.8601 38.8827 61.5276 38.7175 62.2061 38.7108C63.3104 38.7108 64.0313 39.1608 64.1996 39.3489C64.2346 39.4121 64.2828 39.467 64.3409 39.51C64.3865 39.5364 64.434 39.5593 64.4831 39.5784C64.5043 39.5838 64.5261 39.5868 64.5479 39.5874C64.5608 39.5888 64.5738 39.5888 64.5866 39.5874C64.6471 39.5871 64.7067 39.5723 64.7603 39.5442C64.8502 39.498 64.9172 39.417 64.9457 39.3201L64.9826 39.1914C64.9934 39.157 64.9985 39.1212 64.9979 39.0852C64.9985 39.019 64.9807 38.9539 64.9466 38.8971C64.0979 37.4238 62.8667 37.116 61.982 37.116C61.4445 37.1227 60.9122 37.2226 60.4088 37.4112C60.0092 36.8712 58.9967 35.7597 57.4613 35.7597C56.8904 35.7673 56.3293 35.9092 55.8233 36.1737" fill="white"/>
<path d="M46.5884 42.9021L46.601 43.0992C46.6078 43.211 46.6644 43.3139 46.7553 43.3795C46.8461 43.4451 46.9616 43.4664 47.0699 43.4376C47.0917 43.4325 47.113 43.4259 47.1338 43.4178C47.2073 43.3874 47.2722 43.3395 47.3228 43.2783C47.5082 43.1442 48.1067 42.8994 48.9896 42.8994C49.8383 42.8994 51.1289 43.1262 52.4447 44.2071L52.4753 44.2386C52.5691 44.3198 52.6888 44.3648 52.8128 44.3655H52.8452C52.9764 44.3566 53.0992 44.2977 53.1881 44.2008L53.2169 44.1675C54.674 42.6258 56.2427 42.3972 57.0482 42.3972C57.6224 42.3972 58.0292 42.5151 58.1876 42.6051C58.2538 42.6608 58.3316 42.7011 58.4153 42.723C58.4986 42.7439 58.5863 42.7398 58.6673 42.7113C58.8245 42.6557 58.9256 42.5024 58.9148 42.336L58.9049 42.165C58.8985 42.064 58.8511 41.97 58.7735 41.9049C57.9041 41.1732 56.9654 40.8051 55.9781 40.8051C54.4409 40.8051 53.2142 41.7123 52.7066 42.1551C52.2422 41.8383 51.1136 41.1867 49.7906 41.1867C48.6278 41.1867 47.5856 41.67 46.6901 42.6195C46.6203 42.6955 46.5836 42.7963 46.5884 42.8994" fill="white"/>
<path d="M24.472 46.4103C24.4716 45.1532 24.9706 43.9475 25.8593 43.0585C26.748 42.1695 27.9535 41.67 29.2105 41.67C29.3131 41.67 29.413 41.679 29.5138 41.6853C29.7051 39.1116 31.4217 36.9039 33.8689 36.0845C36.3161 35.265 39.0161 35.9938 40.7186 37.9334C42.4211 39.8729 42.7937 42.6446 41.6639 44.9649C45.2353 45.7531 47.6391 49.1055 47.2397 52.7409C46.8403 56.3764 43.766 59.127 40.1087 59.121C39.8198 59.121 30.5479 59.0652 30.5479 59.0652C28.5236 59.0683 26.6917 57.8659 25.8892 56.0074C25.0867 54.1489 25.4676 51.9911 26.8579 50.5197C25.3828 49.6773 24.4723 48.109 24.472 46.4103Z" fill="white"/>
</svg>
