<svg width="90" height="90" viewBox="0 0 90 90" fill="none" xmlns="http://www.w3.org/2000/svg">
<rect width="90" height="90" fill="#FCC30B"/>
<path d="M9.23126 10.0305H13.9428L9.87296 25.6878H12.8988L16.8867 10.3518V7.5411H9.23126V10.0305Z" fill="white"/>
<path fill-rule="evenodd" clip-rule="evenodd" d="M45 43.6041C39.6637 43.6019 34.8516 46.8148 32.808 51.7443C30.7645 56.6739 31.892 62.349 35.6647 66.123C39.4374 69.897 45.1122 71.0264 50.0424 68.9846C54.9726 66.9427 58.1871 62.1317 58.1868 56.7954C58.1873 49.5116 52.2838 43.6061 45 43.6041ZM44.0234 48.8151C44.0234 48.3768 44.4635 47.8926 45.0053 47.8926C45.5471 47.8926 45.9818 48.3768 45.9818 48.8151V53.3448C45.9818 53.7813 45.5453 54.2601 45.0053 54.2601C44.4653 54.2601 44.0234 53.7813 44.0234 53.3448V48.8151ZM38.2272 57.724C38.7362 61.0728 41.6128 63.549 45 63.5544C48.393 63.5537 51.276 61.0731 51.7831 57.7182C52.2901 54.3633 50.2689 51.1415 47.0277 50.1381V52.6932C48.8811 53.6309 49.8495 55.7174 49.3691 57.7383C48.8887 59.7591 47.0849 61.1866 45.0077 61.1899C42.9306 61.1931 41.1223 59.7711 40.6357 57.7518C40.149 55.7325 41.1109 53.6429 42.9615 52.6995V50.1444C39.7289 51.1561 37.7181 54.3753 38.2272 57.724Z" fill="white"/>
<path d="M29.8556 56.6802C29.8556 56.0817 29.3255 55.6002 28.8422 55.6002H23.0651C22.5782 55.6002 22.0436 56.0844 22.0436 56.6802C22.0436 57.276 22.5782 57.7665 23.0651 57.7665H28.8422C29.3255 57.7665 29.8556 57.2796 29.8556 56.6802Z" fill="white"/>
<path d="M67.9562 56.6802C67.9562 56.0817 67.4261 55.6002 66.9428 55.6002H61.1666C60.6797 55.6002 60.1451 56.0844 60.1451 56.6802C60.1451 57.276 60.6797 57.7665 61.1666 57.7665H66.9428C67.4261 57.7665 67.9562 57.2796 67.9562 56.6802Z" fill="white"/>
<path d="M45 41.5377C45.5967 41.5377 46.08 41.0076 46.08 40.5243V34.7472C46.08 34.2603 45.5949 33.7257 45 33.7257C44.4051 33.7257 43.9119 34.2603 43.9119 34.7472V40.5243C43.9119 41.0076 44.4006 41.5377 45 41.5377Z" fill="white"/>
<path d="M45 79.6374C45.5967 79.6374 46.08 79.1073 46.08 78.624V72.8478C46.08 72.3618 45.5949 71.8263 45 71.8263C44.4051 71.8263 43.9119 72.3618 43.9119 72.8478V78.624C43.9119 79.1073 44.4006 79.6374 45 79.6374Z" fill="white"/>
<path d="M31.8599 49.1571C32.1578 48.6378 31.9391 47.9547 31.5179 47.7171L26.5049 44.8479C26.0819 44.6058 25.3781 44.7579 25.0802 45.2799C24.7823 45.8019 25.0055 46.4886 25.4276 46.7307L30.4415 49.5999C30.8609 49.8402 31.5629 49.6809 31.8599 49.1598" fill="white"/>
<path d="M64.925 68.0823C65.2211 67.5648 65.0024 66.8799 64.583 66.6423L59.57 63.7731C59.147 63.5319 58.4423 63.6831 58.1453 64.206C57.8483 64.7289 58.0697 65.4147 58.4918 65.6559L63.5057 68.5251C63.9251 68.7654 64.6271 68.6061 64.925 68.085" fill="white"/>
<path d="M52.5248 43.5393C53.0432 43.8354 53.7263 43.6167 53.9648 43.1973L56.8331 38.1834C57.0761 37.7604 56.9231 37.0557 56.402 36.7587C55.8809 36.4617 55.1924 36.6831 54.9512 37.1061L52.0847 42.12C51.8444 42.5403 52.0037 43.2423 52.5248 43.5402" fill="white"/>
<path d="M33.5996 76.6071C34.118 76.9032 34.8011 76.6845 35.0396 76.2642L37.9079 71.2512C38.15 70.8291 37.9979 70.1235 37.4759 69.8265C36.9539 69.5295 36.2699 69.75 36.0287 70.1739L33.1595 75.1869C32.9192 75.6063 33.0785 76.3092 33.5996 76.6071Z" fill="white"/>
<path d="M37.4525 43.5519C37.97 43.254 38.1266 42.5529 37.8854 42.1335L35.0055 37.1259C34.7625 36.7038 34.0767 36.4824 33.5583 36.7803C33.0399 37.0782 32.8824 37.7856 33.1263 38.2077L36.0063 43.2144C36.2484 43.6338 36.9333 43.8507 37.4543 43.5519" fill="white"/>
<path d="M56.4453 76.581C56.9637 76.2831 57.1194 75.582 56.8791 75.1635L53.9991 70.1559C53.7561 69.7329 53.0703 69.5115 52.551 69.8094C52.0317 70.1073 51.8751 70.8147 52.1199 71.2377L54.9999 76.2444C55.2411 76.6638 55.9269 76.8798 56.4471 76.581" fill="white"/>
<path d="M58.13 49.1337C58.4279 49.6521 59.1281 49.8078 59.5475 49.5675L64.5542 46.6875C64.9772 46.4445 65.2004 45.7578 64.9016 45.2394C64.6028 44.721 63.8972 44.5644 63.4742 44.8074L58.4675 47.6874C58.0472 47.9286 57.8312 48.6153 58.13 49.1346" fill="white"/>
<path d="M25.101 68.13C25.3989 68.6484 26.0991 68.8041 26.5194 68.5629L31.5261 65.6829C31.9482 65.4399 32.1714 64.7532 31.8717 64.2348C31.572 63.7164 30.8673 63.5598 30.4452 63.8019L25.4385 66.6819C25.0182 66.9222 24.8022 67.6098 25.101 68.1291" fill="white"/>
<path fill-rule="evenodd" clip-rule="evenodd" d="M26.9019 7.5303L25.5132 14.886H26.685L26.9019 13.5414H28.2123L28.44 14.886H29.7126L28.3131 7.5303H26.9019ZM28.0548 12.5532H27.0648L27.5562 9.60211H27.567L28.0548 12.5532Z" fill="white"/>
<path d="M30.168 7.5303H33.0651V8.5392H31.4046V10.6443H32.6421V11.6424H31.4046V14.8824H30.168V7.5303Z" fill="white"/>
<path d="M33.5529 7.5303H36.45V8.5392H34.7895V10.6443H36.027V11.6424H34.7895V14.8824H33.5529V7.5303Z" fill="white"/>
<path fill-rule="evenodd" clip-rule="evenodd" d="M36.8298 9.4284V12.9879C36.8298 14.13 37.3869 14.9733 38.7 14.9733C40.0131 14.9733 40.5774 14.1273 40.5774 12.9879V9.4284C40.5774 8.2782 40.0059 7.443 38.7 7.443C37.3941 7.443 36.8298 8.28 36.8298 9.4284ZM39.3363 9.2331V13.1832C39.3363 13.6278 39.1302 13.9428 38.6955 13.9428C38.2608 13.9428 38.0655 13.6278 38.0655 13.1832V9.2331C38.0655 8.7885 38.25 8.4735 38.6955 8.4735C39.141 8.4735 39.3363 8.7885 39.3363 9.2331Z" fill="white"/>
<path fill-rule="evenodd" clip-rule="evenodd" d="M42.4602 14.886V11.5119L43.6212 14.8869H44.9226L43.74 11.5452C44.4483 11.3841 44.73 10.9161 44.73 10.1241V9.18C44.73 8.1486 44.2728 7.5303 43.02 7.5303H41.22V14.886H42.4602ZM42.4603 10.8306V8.5419L42.8725 8.5464C43.2964 8.5464 43.4809 8.7417 43.4809 9.1431V10.2231C43.4809 10.6137 43.2964 10.8306 42.8725 10.8306H42.4603Z" fill="white"/>
<path fill-rule="evenodd" clip-rule="evenodd" d="M49.05 12.9114V9.5049C49.05 8.37 48.5802 7.5303 47.2563 7.5303H45.3465V14.886H47.2599C48.5838 14.886 49.05 14.04 49.05 12.9114ZM47.8135 13.1283C47.8135 13.5738 47.6182 13.8771 47.1079 13.8771H46.5868V8.5392H47.1079C47.6182 8.5392 47.8135 8.8425 47.8135 9.2763V13.1283Z" fill="white"/>
<path fill-rule="evenodd" clip-rule="evenodd" d="M50.7276 7.5303L49.3389 14.886H50.5107L50.7276 13.5414H52.0407L52.2684 14.886H53.5383L52.1388 7.5303H50.7276ZM51.8805 12.5532H50.8905L51.3792 9.60211H51.39L51.8805 12.5532Z" fill="white"/>
<path fill-rule="evenodd" clip-rule="evenodd" d="M53.9937 7.5303H55.7838C57.0213 7.5303 57.4335 8.1045 57.4335 9.1503V9.9C57.4335 10.5183 57.2049 10.9089 56.6955 11.07C57.3138 11.2104 57.618 11.6235 57.618 12.2958V13.2723C57.618 14.3136 57.1509 14.8923 55.9143 14.8923H53.9937V7.5303ZM55.2303 10.6335H55.665C56.0664 10.6335 56.2509 10.4265 56.2509 10.0359V9.1359C56.2509 8.7345 56.0709 8.5392 55.6542 8.5392H55.2303V10.6335ZM55.2303 13.8771V11.5767H55.7595C56.1933 11.5767 56.3778 11.7828 56.3778 12.1734V13.2804C56.3778 13.671 56.1825 13.8771 55.7703 13.8771H55.2303Z" fill="white"/>
<path d="M58.1815 7.5303H59.419V13.8771H60.8941V14.886H58.1815V7.5303Z" fill="white"/>
<path d="M61.4034 7.5303H64.3554V8.5392H62.64V10.6443H63.8658V11.6424H62.64V13.8771H64.35V14.886H61.398L61.4034 7.5303Z" fill="white"/>
<path fill-rule="evenodd" clip-rule="evenodd" d="M67.2409 7.5303L65.8522 14.886H67.024L67.2409 13.5414H68.554L68.7817 14.886H70.0516L68.6512 7.5303H67.2409ZM68.3938 12.5532H67.4038L67.8943 9.60211H67.906L68.3938 12.5532Z" fill="white"/>
<path d="M71.5499 10.2645V14.886H70.5068V7.5303H71.7218L73.0565 11.7504V7.5303H74.087V14.886H73.0025L71.5499 10.2645Z" fill="white"/>
<path fill-rule="evenodd" clip-rule="evenodd" d="M78.4378 12.9114V9.5049C78.4378 8.37 77.9716 7.5303 76.6477 7.5303H74.7379V14.886H76.6477C77.9716 14.886 78.4378 14.04 78.4378 12.9114ZM77.2056 13.1283C77.2056 13.5738 77.0103 13.8771 76.5 13.8771H75.9798V8.5392H76.5C77.0103 8.5392 77.2056 8.8425 77.2056 9.2763V13.1283Z" fill="white"/>
<path d="M25.6986 23.7897V20.25C25.6986 19.1061 26.2386 18.27 27.5337 18.27C28.8936 18.27 29.2716 19.026 29.2716 20.1051V20.97H28.1484V20.0115C28.1484 19.5615 27.9972 19.2996 27.5553 19.2996C27.1134 19.2996 26.9253 19.6119 26.9253 20.0547V23.9841C26.9253 24.4269 27.1053 24.7392 27.5553 24.7392C28.0053 24.7392 28.1484 24.4584 28.1484 24.0273V22.68H29.2716V23.94C29.2716 24.9867 28.8396 25.7643 27.5337 25.7643C26.2278 25.7643 25.6986 24.9228 25.6986 23.7897Z" fill="white"/>
<path d="M30.0482 18.36H31.2786V24.6744H32.7465V25.6788H30.0464L30.0482 18.36Z" fill="white"/>
<path d="M33.4161 18.36H36.3519V19.3644H34.65V21.4578H35.8695V22.4478H34.65V24.6708H36.36V25.6752H33.4161V18.36Z" fill="white"/>
<path fill-rule="evenodd" clip-rule="evenodd" d="M38.3058 18.36L36.9243 25.6788H38.0898L38.3058 24.3405H39.6144L39.8412 25.6788H41.1012L39.7089 18.36H38.3058ZM39.4496 23.3577H38.4677L38.9528 20.4219H38.9636L39.4496 23.3577Z" fill="white"/>
<path d="M42.7499 21.0807V25.6788H41.7158V18.36H42.9299L44.2574 22.5594V18.36H45.2825V25.6788H44.2025L42.7499 21.0807Z" fill="white"/>
<path d="M48.5703 18.36H51.5061V19.3644H49.8006V21.4578H51.0201V22.4478H49.8006V24.6708H51.5061V25.6752H48.5703V18.36Z" fill="white"/>
<path d="M53.28 21.0807V25.6788H52.2405V18.36H53.4492L54.7767 22.5594V18.36H55.8V25.6788H54.72L53.28 21.0807Z" fill="white"/>
<path d="M56.6009 18.36H59.5367V19.3644H57.8312V21.4578H59.0507V22.4478H57.8312V24.6708H59.5367V25.6752H56.6009V18.36Z" fill="white"/>
<path fill-rule="evenodd" clip-rule="evenodd" d="M61.5123 25.677V22.32L62.667 25.6788H63.9621L62.7858 22.3542C63.4869 22.1922 63.7677 21.7278 63.7677 20.9403V20.0007C63.7677 18.9756 63.315 18.36 62.073 18.36H60.2811V25.677H61.5123ZM61.5122 21.6396V19.3626H61.9199C62.3447 19.3626 62.5247 19.5561 62.5247 19.9557V21.0357C62.5247 21.4236 62.3411 21.6396 61.9199 21.6396H61.5122Z" fill="white"/>
<path d="M66.4011 21.771H68.1498V25.6788H67.2651V24.8796C67.1031 25.4304 66.7575 25.7652 66.0888 25.7652C65.0304 25.7652 64.5453 24.9228 64.5453 23.7897V20.25C64.5453 19.1061 65.0952 18.27 66.3903 18.27C67.7511 18.27 68.1498 19.026 68.1498 20.1051V20.7531H67.0275V20.0079C67.0275 19.5579 66.8547 19.296 66.4128 19.296C65.9709 19.296 65.7756 19.6083 65.7756 20.0511V23.9805C65.7756 24.4233 65.9556 24.7356 66.3795 24.7356C66.7791 24.7356 66.9843 24.5088 66.9843 24.0345V22.743H66.4011V21.771Z" fill="white"/>
<path d="M71.334 22.8933V25.6788H70.1037V22.8933L68.733 18.36H70.02L70.7652 21.1347H70.776L71.5176 18.36H72.6938L71.334 22.8933Z" fill="white"/>
</svg>
