<svg width="90" height="90" viewBox="0 0 90 90" fill="none" xmlns="http://www.w3.org/2000/svg">
<rect width="90" height="90" fill="#0A97D9"/>
<path d="M11.7258 7.5726V25.7103H8.67482V11.8269H8.64872L6.50942 14.0463H6.48152V10.863L9.29042 7.5726H11.7258Z" fill="white"/>
<rect x="32.0041" y="7.53391" width="1.23661" height="7.3593" fill="white"/>
<path d="M33.9652 14.8941H35.2018V11.6469H36.4384V10.6488H35.2018V8.5428H36.8614V7.53391H33.9652V14.8941Z" fill="white"/>
<path d="M40.3632 8.5428V7.53391H37.413V14.8941H40.3632V13.8843H38.6496V11.6469H39.8754V10.6488H38.6496V8.5428H40.3632Z" fill="white"/>
<path fill-rule="evenodd" clip-rule="evenodd" d="M46.2948 12.2985C46.2948 11.6262 45.9924 11.214 45.3741 11.0727C45.8826 10.9098 46.1121 10.5192 46.1121 9.9027V9.153C46.1121 8.1126 45.699 7.533 44.4624 7.533H42.6723V14.8923H44.592C45.8295 14.8923 46.2948 14.3172 46.2948 13.2723V12.2985ZM43.9088 8.5428H44.3318C44.7449 8.5428 44.9294 8.7399 44.9294 9.1404V10.0404C44.9294 10.4319 44.7449 10.638 44.3426 10.638H43.9088V8.5428ZM44.4519 13.8834C44.8632 13.8834 45.0594 13.6773 45.0594 13.2867L45.0621 12.1797C45.0621 11.7891 44.8776 11.583 44.4438 11.583H43.9119V13.8834H44.4519Z" fill="white"/>
<path d="M46.8237 14.8941H49.7739V13.8843H48.0594V11.6469H49.2852V10.6488H48.0594V8.5428H49.7739V7.53391H46.8237V14.8941Z" fill="white"/>
<path d="M50.5343 7.53391V14.8941H53.2469V13.8843H51.7709V7.53391H50.5343Z" fill="white"/>
<path fill-rule="evenodd" clip-rule="evenodd" d="M53.7176 12.9933V9.4338C53.7176 8.28 54.2702 7.4475 55.5833 7.4475C56.8964 7.4475 57.4607 8.2836 57.4607 9.4338V12.9933C57.4607 14.1345 56.8847 14.9796 55.5833 14.9796C54.2819 14.9796 53.7176 14.1345 53.7176 12.9933ZM56.2243 13.1895V9.2376C56.2243 8.793 56.0173 8.4789 55.5835 8.4789C55.1497 8.4789 54.9535 8.793 54.9535 9.2376V13.1895C54.9535 13.6341 55.138 13.9491 55.5835 13.9491C56.029 13.9491 56.2243 13.6341 56.2243 13.1895Z" fill="white"/>
<path d="M59.68 12.2013H59.6701L59.095 7.53391H57.9016L58.8889 14.8941H60.049L60.7438 10.3446H60.7537L61.4809 14.8941H62.6527L63.6067 7.53391H62.5663L62.0011 12.2013H61.9912L61.3081 7.53391H60.2992L59.68 12.2013Z" fill="white"/>
<path d="M29.5325 25.6833H30.6926L31.3874 21.1356H31.3982L32.1254 25.6833H33.2972L34.2521 18.3249H33.2099L32.6465 22.9923H32.6348L31.9526 18.3249H30.9428L30.3245 22.9923H30.3137L29.7386 18.3249H28.5452L29.5325 25.6833Z" fill="white"/>
<path fill-rule="evenodd" clip-rule="evenodd" d="M35.2547 25.6833H34.0847L35.4725 18.3249H36.8819L38.2796 25.6833H37.0106L36.7838 24.3387H35.4707L35.2547 25.6833ZM36.1347 20.3976H36.123L35.6397 23.3496H36.6234L36.1347 20.3976Z" fill="white"/>
<path d="M40.3137 25.6833V19.3338H41.3334V18.3249H38.0466V19.3338H39.0654V25.6833H40.3137Z" fill="white"/>
<path d="M44.8561 19.3338V18.3249H41.9059V25.6833H44.8561V24.6744H43.1425V22.4379H44.3683V21.4389H43.1425V19.3338H44.8561Z" fill="white"/>
<path fill-rule="evenodd" clip-rule="evenodd" d="M49.0205 19.9746V20.9187H49.025C49.025 21.7098 48.7397 22.1778 48.035 22.3398L49.2167 25.6833H47.9144L46.7543 22.3092V25.6833H45.5177V18.3258H47.3177C48.5651 18.3258 49.0205 18.9432 49.0205 19.9746ZM47.171 21.6243C47.5976 21.6243 47.7775 21.4074 47.7775 21.0168V19.9305C47.7775 19.5291 47.5931 19.3338 47.171 19.3338H46.7579V21.6243H47.171Z" fill="white"/>
<path fill-rule="evenodd" clip-rule="evenodd" d="M21.0138 22.77V25.7148L18.123 25.7139V22.77H12.7428V20.8971L18.0159 7.5681H21.0138V20.3886H22.245V22.77H21.0138ZM18.149 12.9186L15.4193 20.3886H18.176V12.9186H18.149Z" fill="white"/>
<path fill-rule="evenodd" clip-rule="evenodd" d="M50.5545 54.81C60.8127 54.81 68.1297 64.1358 69.2619 65.6658V65.6631C69.2892 65.6968 69.3122 65.729 69.3327 65.7579L69.3402 65.7684C69.3557 65.8036 69.364 65.8415 69.3645 65.88C69.3637 65.9187 69.3555 65.9569 69.3402 65.9925C69.3239 66.0121 69.3062 66.0364 69.286 66.0641C69.2783 66.0746 69.2703 66.0855 69.2619 66.0969C68.1288 67.6242 60.8145 76.9518 50.5545 76.9518C41.6472 76.9518 32.118 68.8725 32.118 68.8725C32.118 68.8725 28.5252 76.221 21.1803 76.905C21.1553 76.9109 21.1295 76.9133 21.1038 76.9122L21.0246 76.9185C20.8732 76.9077 20.7557 76.7823 20.7546 76.6305C20.7551 76.5757 20.7706 76.5222 20.7996 76.4757L20.8635 76.3767C21.7986 74.817 24.2214 70.3476 24.2214 65.88C24.2214 61.4295 21.813 56.97 20.8689 55.4085C20.8147 55.3262 20.776 55.2347 20.7546 55.1385C20.7375 55.0062 20.8806 54.8577 21.0336 54.8487H21.0795C21.1035 54.8487 21.1277 54.8513 21.1514 54.8538C21.1738 54.8562 21.1957 54.8586 21.2163 54.8586C28.5387 55.5624 32.118 62.8884 32.118 62.8884C32.118 62.8884 41.6445 54.81 50.5545 54.81ZM53.2691 64.0653C53.2679 65.7179 54.6062 67.0588 56.2589 67.0608C57.0534 67.0613 57.8156 66.746 58.3776 66.1845C58.9397 65.6229 59.2556 64.861 59.2559 64.0665C59.2554 62.4139 57.9157 61.0743 56.2631 61.074C54.6104 61.0737 53.2702 62.4127 53.2691 64.0653Z" fill="white"/>
<path d="M20.9861 37.2753C20.9677 37.2693 20.9487 37.2651 20.9294 37.2627C20.8509 37.2632 20.7758 37.2948 20.7206 37.3507C20.6654 37.4066 20.6346 37.4821 20.6351 37.5606V39.6C20.6336 39.6792 20.6645 39.7556 20.7206 39.8115C25.6706 44.1135 30.3605 40.0815 31.4459 39.0168C31.4662 38.9845 31.4924 38.9564 31.5233 38.934C31.5714 38.901 31.6279 38.8825 31.6862 38.8809C31.7603 38.8805 31.8316 38.9089 31.8851 38.9601C31.889 38.9652 31.8939 38.9695 31.8995 38.9727C37.493 44.3097 43.3574 39.987 44.5778 38.9727L44.6975 38.8629C44.7326 38.8473 44.7707 38.8396 44.8091 38.8404C44.849 38.8392 44.8887 38.8469 44.9252 38.8629L45.0467 38.9727C46.2662 39.987 52.1306 44.3097 57.7232 38.9727C57.7272 38.9689 57.7308 38.9646 57.734 38.9601C57.7877 38.9091 57.8589 38.8808 57.9329 38.8809C57.9913 38.8821 58.048 38.9006 58.0958 38.934C58.1279 38.9565 58.1556 38.9845 58.1777 39.0168C59.2622 40.0824 63.9458 44.1135 68.9012 39.8115C68.9567 39.7551 68.9874 39.679 68.9867 39.6V37.5606C68.9882 37.4824 68.9582 37.4069 68.9036 37.3509C68.849 37.2949 68.7742 37.2632 68.696 37.2627C68.6746 37.2647 68.6535 37.2689 68.633 37.2753C68.5871 37.3014 68.543 37.3266 68.4845 37.3527C66.9617 38.115 62.2385 39.9294 57.9545 35.8731C57.914 35.8362 57.8717 35.7984 57.8294 35.7543C57.7901 35.7366 57.7475 35.7274 57.7043 35.7273C57.674 35.7292 57.6439 35.7337 57.6143 35.7408C57.5544 35.7644 57.5026 35.8047 57.4649 35.8569C56.1869 36.8307 50.3225 40.8015 45.0998 35.9298L45.0233 35.8551C44.9658 35.8003 44.8903 35.7684 44.8109 35.7651C44.7341 35.7689 44.6613 35.8009 44.6066 35.8551L44.5256 35.9298C39.3056 40.8015 33.434 36.8298 32.1578 35.8569C32.1221 35.8047 32.0717 35.7643 32.0129 35.7408C31.9833 35.7341 31.9532 35.7296 31.9229 35.7273C31.8805 35.7284 31.8386 35.7376 31.7996 35.7543C31.7608 35.7969 31.719 35.8366 31.6745 35.8731C27.3878 39.9294 22.6655 38.115 21.1445 37.3527C21.0914 37.3266 21.0401 37.3014 20.9942 37.2753" fill="white"/>
<path d="M31.4461 46.4472C31.4672 46.4158 31.4937 46.3884 31.5244 46.3662C31.5719 46.3324 31.6281 46.313 31.6864 46.3104C31.7611 46.3107 31.8328 46.34 31.8862 46.3923C31.8898 46.3974 31.8943 46.4017 31.8997 46.4049C37.4914 51.7356 43.3576 47.4147 44.578 46.4049L44.6977 46.2915C44.7333 46.2779 44.7712 46.2715 44.8093 46.2726C44.8494 46.2713 44.8895 46.2777 44.9272 46.2915L45.0469 46.4049C46.2664 47.4147 52.1299 51.7356 57.7243 46.4049C57.7243 46.4049 57.7306 46.3977 57.7342 46.3923C57.7873 46.3402 57.8586 46.3108 57.9331 46.3104C57.9914 46.3124 58.0478 46.3318 58.0951 46.3662C58.1273 46.388 58.1554 46.4154 58.1779 46.4472C59.2579 47.5137 63.9451 51.5457 68.9014 47.2392C68.9582 47.1857 68.9907 47.1112 68.9914 47.0331V44.9856C68.9916 44.908 68.9609 44.8334 68.906 44.7785C68.8511 44.7236 68.7765 44.6929 68.6989 44.6931C68.6776 44.6953 68.6565 44.6992 68.6359 44.7048L68.4874 44.7795C66.9655 45.5427 62.2396 47.3526 57.9574 43.3017L57.8332 43.1847C57.7947 43.1633 57.7511 43.1531 57.7072 43.155C57.6757 43.1545 57.6447 43.1623 57.6172 43.1775C57.5552 43.1937 57.5017 43.233 57.4678 43.2873C56.1916 44.2593 50.3254 48.231 45.1018 43.3593L45.0253 43.2828C44.9681 43.229 44.8922 43.1996 44.8138 43.2009C44.7375 43.2003 44.6641 43.2297 44.6095 43.2828L44.5285 43.3593C39.3085 48.231 33.4369 44.2593 32.1607 43.2873C32.1283 43.2334 32.0764 43.1941 32.0158 43.1775C31.9879 43.1631 31.9571 43.1554 31.9258 43.155C31.8833 43.1537 31.8413 43.164 31.8043 43.1847C31.7638 43.2252 31.7206 43.2639 31.6765 43.3017C27.3898 47.3517 22.6684 45.5427 21.1465 44.7795L20.9962 44.7048C20.9779 44.6995 20.9592 44.6956 20.9404 44.6931C20.8624 44.6926 20.7874 44.7232 20.7321 44.7781C20.6767 44.833 20.6454 44.9076 20.6452 44.9856V47.0331C20.6441 47.1106 20.675 47.1852 20.7307 47.2392C25.6807 51.5457 30.3715 47.5092 31.456 46.4472" fill="white"/>
<path d="M28.7191 7.53391V14.8941H31.4326V13.8843H29.9566V7.53391H28.7191Z" fill="white"/>
</svg>
