<svg width="90" height="90" viewBox="0 0 90 90" fill="none" xmlns="http://www.w3.org/2000/svg">
<rect width="90" height="90" fill="#26BDE2"/>
<path fill-rule="evenodd" clip-rule="evenodd" d="M18.1135 21.3498C18.1135 24.1605 16.858 25.9281 13.618 25.9281C10.405 25.9281 9.17377 23.8932 9.17377 21.0825V12.2499C9.17377 9.4131 10.3789 7.353 13.5901 7.353C16.9624 7.353 17.8462 9.2259 17.8462 11.9025V12.87H15.0625V11.6622C15.0625 10.5381 14.7412 9.8955 13.6441 9.8955C12.547 9.8955 12.1987 10.6704 12.1987 11.7693V15.6771H12.2248C12.6802 14.7942 13.456 14.2038 14.7403 14.2038C16.9363 14.2038 18.1135 15.7032 18.1135 18.6732V21.3498ZM13.6441 16.6401C12.6802 16.6401 12.2518 17.2827 12.1987 18.2988V21.6189C12.1987 22.743 12.5992 23.4387 13.618 23.4387C14.662 23.4387 15.0886 22.7691 15.0886 21.6189V18.4608C15.0886 17.2827 14.6872 16.6401 13.6441 16.6401Z" fill="white"/>
<path d="M27.5841 14.9157C28.8972 14.9157 29.3301 14.1354 29.3301 13.0815V11.8116H28.2015V13.1688C28.2015 13.6026 28.0512 13.8888 27.6048 13.8888C27.1584 13.8888 26.9748 13.5747 26.9748 13.1292V9.1782C26.9748 8.7336 27.1611 8.4186 27.6048 8.4186C28.0485 8.4186 28.2015 8.6787 28.2015 9.1386V10.1043H29.3301V9.2358C29.3301 8.1513 28.9512 7.3908 27.5841 7.3908C26.28 7.38 25.74 8.2188 25.74 9.3699V12.9294C25.74 14.0697 26.28 14.9157 27.585 14.9157" fill="white"/>
<path d="M32.8256 13.8204H31.3505V7.47H30.1113V14.8302H32.8256V13.8204Z" fill="white"/>
<path d="M36.4491 13.8204H34.7346V11.5848H35.9604V10.5849H34.7346V8.4798H36.4491V7.47H33.498V14.8302H36.4491V13.8204Z" fill="white"/>
<path fill-rule="evenodd" clip-rule="evenodd" d="M39.726 13.4838H38.4138L38.1942 14.8293H37.0242L38.4138 7.47H39.8223L41.22 14.8338H39.9546L39.726 13.4838ZM39.0752 9.54H39.0644L38.5739 12.4911H39.5639L39.0752 9.54Z" fill="white"/>
<path d="M42.8841 10.206L44.3376 14.8302H45.4221V7.47H44.3916V11.6928L43.0578 7.47H41.8419V14.8302H42.8841V10.206Z" fill="white"/>
<path d="M50.0184 14.8293L50.7132 10.2816H50.7231L51.4503 14.8293H52.623L53.577 7.4709H52.5366L51.9714 12.1374H51.9606L51.2775 7.4709H50.2686L49.6503 12.1374H49.6395L49.0635 7.4709H47.8692L48.8583 14.8293H50.0184Z" fill="white"/>
<path fill-rule="evenodd" clip-rule="evenodd" d="M56.2959 13.4838H54.9819L54.765 14.8293H53.595L54.9819 7.47H56.3922L57.7926 14.8338H56.5227L56.2959 13.4838ZM55.6442 9.54H55.6343L55.1429 12.4911H56.1329L55.6442 9.54Z" fill="white"/>
<path d="M58.6574 14.8293H59.9057V8.4798H60.9254V7.47H57.6377V8.4798H58.6574V14.8293Z" fill="white"/>
<path d="M64.4599 13.8204H62.7454V11.5848H63.9712V10.5849H62.7454V8.4798H64.4599V7.47H61.5088V14.8302H64.4599V13.8204Z" fill="white"/>
<path fill-rule="evenodd" clip-rule="evenodd" d="M67.5269 14.8302L66.3668 11.4525L66.3695 14.8302H65.1329V7.47H66.9329C68.1813 7.47 68.6367 8.0892 68.6367 9.1206V10.0647C68.6367 10.8558 68.3523 11.3247 67.6466 11.4858L68.8302 14.8302H67.5269ZM66.7799 8.4825H66.3668V10.7703H66.7799C67.2012 10.7703 67.3866 10.5525 67.3866 10.161V9.0783C67.3866 8.6778 67.2012 8.4825 66.7799 8.4825Z" fill="white"/>
<path fill-rule="evenodd" clip-rule="evenodd" d="M28.297 24.3342H26.9839L26.7652 25.6797H25.5952L26.9839 18.3213H28.3888L29.7901 25.6797H28.5247L28.297 24.3342ZM27.6471 20.394H27.6345L27.144 23.3469H28.134L27.6471 20.394Z" fill="white"/>
<path d="M30.3021 18.3213V25.6815H31.3434V21.0573L32.7969 25.6815H33.8805V18.3213H32.8518V22.5441L31.5171 18.3213H30.3021Z" fill="white"/>
<path fill-rule="evenodd" clip-rule="evenodd" d="M36.6948 25.6806H34.7868V18.3222H36.6948C38.0178 18.3222 38.4849 19.1583 38.4849 20.2968V23.7051C38.4849 24.8337 38.0178 25.6806 36.6948 25.6806ZM36.54 19.3302H36.0225L36.0198 24.6708H36.54C37.0512 24.6708 37.2447 24.3666 37.2447 23.9229V20.0691C37.2447 19.6344 37.0512 19.3302 36.54 19.3302Z" fill="white"/>
<path d="M41.2335 23.1084V24.0984C41.2335 25.0632 41.7231 25.7706 42.9804 25.7706C44.2377 25.7706 44.7804 25.0506 44.7804 24.0435V23.6835C44.7804 22.8735 44.4564 22.4568 43.7841 21.7728L42.9912 20.9916C42.6312 20.6451 42.4053 20.4048 42.4053 19.9944V19.8405C42.4053 19.4283 42.6438 19.2339 42.9912 19.2339C43.3818 19.2339 43.5771 19.44 43.5771 19.8639V20.5056H44.7057V19.9071C44.7057 18.8433 44.2179 18.2358 42.9804 18.2358C41.7762 18.2358 41.2452 18.9414 41.2452 19.8558V20.1042C41.2452 20.9511 41.571 21.375 42.2757 22.0689L43.002 22.797C43.3818 23.157 43.5546 23.4153 43.5546 23.8374V24.12C43.5546 24.5106 43.3818 24.7716 42.9912 24.7716C42.5691 24.7716 42.3846 24.5331 42.3846 24.12V23.1084H41.2335Z" fill="white"/>
<path fill-rule="evenodd" clip-rule="evenodd" d="M46.5237 24.3306L46.3068 25.6806H45.1359L46.5237 18.3222H47.9331L49.3335 25.6806H48.0645L47.8368 24.3306H46.5237ZM47.1861 20.3958H47.1753L46.6839 23.3469H47.6739L47.1861 20.3958Z" fill="white"/>
<path d="M52.4915 22.5441L51.1568 18.3222H49.9409V25.6815H50.984V21.0573L52.4366 25.6815H53.5211V18.3222H52.4915V22.5441Z" fill="white"/>
<rect x="54.5265" y="18.3213" width="1.23751" height="7.35929" fill="white"/>
<path d="M58.5918 25.6815V19.3311H59.6124V18.3231H56.3256V19.3311H57.3444V25.6815H58.5918Z" fill="white"/>
<path fill-rule="evenodd" clip-rule="evenodd" d="M60.7194 18.3222H62.1279L63.5265 25.6806H62.2575L62.0298 24.3351H60.7185L60.4998 25.6806H59.3298L60.7194 18.3222ZM61.3701 20.3958L60.8805 23.3469H61.8687L61.38 20.3958H61.3701Z" fill="white"/>
<path d="M66.4209 18.3222H63.1341V19.3311H64.1547V25.6815H65.403V19.3311H66.4209V18.3222Z" fill="white"/>
<rect x="67.0967" y="18.3213" width="1.23663" height="7.35929" fill="white"/>
<path fill-rule="evenodd" clip-rule="evenodd" d="M72.8775 23.7816C72.8775 24.9219 72.315 25.7688 71.0019 25.7688C69.7005 25.7688 69.1344 24.9219 69.1344 23.7816V20.2212C69.1344 19.0701 69.6888 18.2349 71.0019 18.2349C72.315 18.2349 72.8775 19.0701 72.8775 20.2212V23.7816ZM71.002 19.2663C70.5664 19.2663 70.372 19.5813 70.372 20.0259V23.9769C70.372 24.4215 70.5574 24.7365 71.002 24.7365C71.4466 24.7365 71.6419 24.4215 71.6419 23.9769V20.0259C71.6419 19.5813 71.4376 19.2663 71.002 19.2663Z" fill="white"/>
<path d="M77.2623 25.6815V18.3231H76.2318V22.5441L74.8971 18.3231H73.6812V25.6815H74.7234V21.0564L76.1769 25.6815H77.2623Z" fill="white"/>
<path fill-rule="evenodd" clip-rule="evenodd" d="M61.6185 36.3924C61.5429 36.3094 61.4355 36.2626 61.3233 36.2637H28.6713C28.5591 36.2595 28.4512 36.3067 28.3781 36.3918C28.305 36.477 28.2748 36.5909 28.296 36.7011L33.786 69.8778C33.8171 70.0616 33.9758 70.1964 34.1622 70.1973H40.8951L41.3559 75.5973H38.5227L45.1152 82.1889L51.723 75.582H48.8907L49.3461 70.2H56.1978C56.3867 70.2008 56.5469 70.0614 56.5722 69.8742L61.7022 36.7038C61.7202 36.5928 61.6897 36.4794 61.6185 36.3924ZM48.9987 62.9523C47.9407 63.9193 46.5326 64.4105 45.1026 64.3113C43.6712 64.4114 42.2614 63.9202 41.202 62.9523C38.7558 60.5088 39.6288 57.4686 40.482 55.8972C41.0076 54.9135 44.766 49.2696 45.09 48.7872V48.7494L45.1044 48.7674L45.117 48.7494V48.7872C45.1634 48.8579 45.2843 49.0402 45.4586 49.3029L45.4588 49.3031C46.4697 50.8266 49.274 55.0529 49.7223 55.8972C50.5728 57.4686 51.4431 60.5088 48.9987 62.9523ZM56.2734 43.5591C57.3498 43.1235 58.4721 42.9831 59.3568 43.3728L60.2811 37.7028H29.7251L31.0112 44.2962C33.1937 44.313 35.0012 43.6629 36.929 42.9695C36.9663 42.956 37.0038 42.9426 37.0412 42.9291C39.2758 42.1239 41.2515 42.9224 43.2371 43.7248C43.8883 43.9879 44.5406 44.2515 45.2033 44.4591C49.4639 45.792 52.2234 45.2016 56.2734 43.5591Z" fill="white"/>
</svg>
