<svg width="90" height="90" viewBox="0 0 90 90" fill="none" xmlns="http://www.w3.org/2000/svg">
<rect width="90" height="90" fill="#FD9D24"/>
<path d="M26.3295 14.976C27.5895 14.976 28.1295 14.256 28.1295 13.2507V12.8907C28.1295 12.0807 27.8037 11.6649 27.1314 10.9809L26.3394 10.1997C25.9794 9.8523 25.7544 9.6138 25.7544 9.1998V9.0495C25.7544 8.6364 25.9929 8.4411 26.3394 8.4411C26.7291 8.4411 26.9253 8.6472 26.9253 9.0711V9.7101H28.053V9.1143C28.053 8.0514 27.5661 7.443 26.3286 7.443C25.1235 7.443 24.5925 8.1486 24.5925 9.063V9.3141C24.5925 10.1592 24.9183 10.5831 25.623 11.277L26.3493 12.006C26.7291 12.366 26.9028 12.6234 26.9028 13.0464V13.3281C26.9028 13.7196 26.7291 13.9797 26.3394 13.9797C25.9164 13.9797 25.7319 13.7412 25.7319 13.3281V12.3201H24.5844V13.3101C24.5844 14.2758 25.0713 14.9814 26.3295 14.9814" fill="white"/>
<path d="M32.2623 13.0986V7.5303H31.1229V13.2174C31.1229 13.6521 30.9492 13.9437 30.5145 13.9437C30.0798 13.9437 29.9079 13.6521 29.9079 13.2174V7.5303H28.6704V13.0986C28.6704 14.238 29.2104 14.976 30.5145 14.976C31.7745 14.976 32.2623 14.238 32.2623 13.0986Z" fill="white"/>
<path d="M36.4393 13.2507V12.8907C36.4393 12.0807 36.1126 11.6649 35.4421 10.9809L34.6501 10.1997C34.2901 9.8532 34.0633 9.6138 34.0633 9.2025V9.0504C34.0633 8.6373 34.3036 8.442 34.6501 8.442C35.0407 8.442 35.2351 8.6472 35.2351 9.072V9.711H36.3601V9.1152C36.3601 8.0505 35.8732 7.4439 34.6357 7.4439C33.4315 7.4439 32.8996 8.1495 32.8996 9.0639V9.3132C32.8996 10.1592 33.2263 10.5831 33.9319 11.2779L34.6573 12.006C35.0371 12.366 35.2099 12.6234 35.2099 13.0464V13.3299C35.2099 13.7187 35.0371 13.9806 34.6465 13.9806C34.2235 13.9806 34.039 13.7412 34.039 13.3299V12.3165H32.8924V13.3065C32.8924 14.2722 33.3793 14.9769 34.6384 14.9769C35.8975 14.9769 36.4384 14.2569 36.4384 13.2516" fill="white"/>
<path d="M40.0256 7.5303H36.7388V8.5401H37.7576V14.8896H39.0059V8.5401H40.0256V7.5303Z" fill="white"/>
<path fill-rule="evenodd" clip-rule="evenodd" d="M41.1805 7.5303H42.5908L43.9894 14.8887H42.7195L42.4909 13.5441H41.1787L40.9618 14.8887H39.7918L41.1805 7.5303ZM41.8312 9.60389L41.3443 12.5559H42.3316L41.8429 9.60389H41.8312Z" fill="white"/>
<rect x="44.4898" y="7.5312" width="1.2366" height="7.3593" fill="white"/>
<path d="M50.013 14.8896V7.5303H48.9825V11.7513L47.6469 7.5303H46.4319V14.8896H47.4741V10.2654L48.9267 14.8896H50.013Z" fill="white"/>
<path fill-rule="evenodd" clip-rule="evenodd" d="M53.1144 13.5432H51.8013L51.5826 14.8887H50.4126L51.8013 7.5303H53.2116L54.6102 14.8932H53.3412L53.1144 13.5432ZM52.4628 9.60299H52.4511L51.9624 12.5559H52.9524L52.4628 9.60299Z" fill="white"/>
<path fill-rule="evenodd" clip-rule="evenodd" d="M58.4486 9.8991V9.1521C58.4486 8.1099 58.0373 7.5321 56.7998 7.5321H55.0088V14.8914H56.9294C58.1669 14.8914 58.6322 14.3163 58.6322 13.2714V12.2958C58.6322 11.6226 58.3298 11.2095 57.7106 11.0691C58.2209 10.9062 58.4486 10.5156 58.4486 9.8991ZM56.25 8.5401H56.6739C57.0852 8.5401 57.2706 8.7345 57.2706 9.1368V10.0368C57.2706 10.4283 57.0852 10.6344 56.6838 10.6344H56.25V8.5401ZM56.7926 13.8807C57.2048 13.8807 57.3992 13.6737 57.3992 13.2831L57.4019 12.1752C57.4019 11.7855 57.2174 11.5794 56.7836 11.5794H56.2526V13.8807H56.7926Z" fill="white"/>
<path d="M60.3783 7.5303H59.1417V14.8896H61.8525V13.8798H60.3783V7.5303Z" fill="white"/>
<path d="M65.2582 8.5401V7.5303H62.3071V14.8896H65.2582V13.8798H63.5437V11.6433H64.7695V10.6461H63.5437V8.5401H65.2582Z" fill="white"/>
<path d="M69.1821 14.976C70.4952 14.976 70.9299 14.1948 70.9299 13.1418V11.8719H69.8004V13.23C69.8004 13.662 69.6483 13.9446 69.2037 13.9446C68.7591 13.9446 68.5737 13.6305 68.5737 13.185V9.2349C68.5737 8.7849 68.7537 8.4744 69.2037 8.4744C69.6537 8.4744 69.8004 8.7345 69.8004 9.1944V10.161H70.9299V9.2925C70.9299 8.2062 70.5492 7.4466 69.1821 7.4466C67.8807 7.4466 67.338 8.2818 67.338 9.432V12.9933C67.338 14.1327 67.878 14.9787 69.1821 14.9787" fill="white"/>
<rect x="71.5105" y="7.5312" width="1.2357" height="7.3593" fill="white"/>
<path d="M75.4875 14.8896V8.5401H76.5054V7.5303H73.2195V8.5401H74.2383V14.8896H75.4875Z" fill="white"/>
<rect x="76.9887" y="7.5312" width="1.23569" height="7.3593" fill="white"/>
<path d="M78.8617 14.8896H81.8119V13.8798H80.0983V11.6433H81.3223V10.6461H80.0983V8.5401H81.8119V7.5303H78.8617V14.8896Z" fill="white"/>
<path d="M83.908 10.2006C83.548 9.8523 83.3239 9.6147 83.3239 9.2007V9.0504C83.3239 8.6373 83.5615 8.442 83.908 8.442C84.3004 8.442 84.4939 8.6481 84.4939 9.072V9.7119H85.6234V9.1152C85.6234 8.0505 85.1347 7.4439 83.8972 7.4439C82.693 7.4439 82.1629 8.1495 82.1629 9.0639V9.315C82.1629 10.1601 82.4869 10.584 83.1925 11.2779L83.9188 12.0069C84.3004 12.3669 84.4732 12.6243 84.4732 13.0473V13.329C84.4732 13.7205 84.3004 13.9806 83.908 13.9806C83.485 13.9806 83.3005 13.7421 83.3005 13.329V12.321H82.1512V13.311C82.1512 14.2767 82.639 14.9823 83.8972 14.9823C85.1554 14.9823 85.6972 14.2623 85.6972 13.257V12.897C85.6972 12.087 85.3687 11.6712 84.6982 10.9872L83.908 10.2006Z" fill="white"/>
<path fill-rule="evenodd" clip-rule="evenodd" d="M24.6023 25.6896L25.991 18.3321H27.4004L28.7999 25.6896H27.53L27.3014 24.3441H25.9892L25.7723 25.6896H24.6023ZM26.6417 20.4048L26.1539 23.3568H27.1403L26.6534 20.4048H26.6417Z" fill="white"/>
<path d="M31.9697 22.5531L30.635 18.3321H29.42V25.6905H30.4622V21.0654L31.9148 25.6905H33.0002V18.3321H31.9697V22.5531Z" fill="white"/>
<path fill-rule="evenodd" clip-rule="evenodd" d="M33.8148 18.3303H35.7246V18.3267C37.0485 18.3267 37.5138 19.1673 37.5138 20.3067V23.715C37.5138 24.8445 37.0485 25.6905 35.7246 25.6905H33.8148V18.3303ZM35.5725 24.6771C36.0819 24.6771 36.2772 24.3729 36.2772 23.9283V20.0781C36.2772 19.6443 36.0819 19.341 35.5725 19.341H35.0505V24.6771H35.5725Z" fill="white"/>
<path d="M41.4208 18.2448C40.1184 18.2448 39.5757 19.08 39.5757 20.2311V23.7915C39.5757 24.93 40.1157 25.7769 41.4208 25.7769C42.7258 25.7769 43.1668 24.9948 43.1668 23.9418V22.6728H42.0382V24.03C42.0382 24.4647 41.887 24.75 41.4433 24.75C40.9995 24.75 40.8132 24.4359 40.8132 23.9904V20.0394C40.8132 19.5948 40.9986 19.2798 41.4433 19.2798C41.8879 19.2798 42.0382 19.5399 42.0382 19.9998V20.9655H43.1668V20.097C43.1668 19.0116 42.7879 18.2529 41.4208 18.2529" fill="white"/>
<path fill-rule="evenodd" clip-rule="evenodd" d="M43.9497 20.2311C43.9497 19.08 44.5131 18.2448 45.8163 18.2448C47.1285 18.2448 47.6919 19.08 47.6919 20.2311V23.7915C47.6919 24.93 47.1195 25.7769 45.8163 25.7769C44.5131 25.7769 43.9497 24.93 43.9497 23.7915V20.2311ZM45.8163 24.7455C46.26 24.7455 46.4553 24.4314 46.4553 23.9859V20.0349C46.4553 19.5903 46.2528 19.2753 45.8163 19.2753C45.3798 19.2753 45.1863 19.5903 45.1863 20.0349V23.9859C45.1863 24.4314 45.3726 24.7455 45.8163 24.7455Z" fill="white"/>
<path d="M50.7628 22.4775H50.752L49.9501 18.3303H48.5074V25.6896H49.5262V20.9142H49.5478L50.4703 25.6896H51.0445L51.8806 20.9142H51.913V25.6896H53.0416V18.3303H51.4792L50.7628 22.4775Z" fill="white"/>
<path d="M56.1133 22.4775H56.1025L55.2997 18.3303H53.8561V25.6896H54.8767V20.9142H54.8974L55.819 25.6896H56.395L57.2293 20.9142H57.2626V25.6896H58.3903V18.3303H56.8288L56.1133 22.4775Z" fill="white"/>
<path d="M61.6564 24.0183C61.6564 24.453 61.4845 24.7473 61.0498 24.7473C60.6151 24.7473 60.4423 24.453 60.4423 24.0183V18.3321H59.2048V23.8977C59.2048 25.0389 59.7448 25.7769 61.0498 25.7769C62.3098 25.7769 62.7958 25.0389 62.7958 23.8977V18.3321H61.6564V24.0183Z" fill="white"/>
<path d="M66.1617 22.5531L64.8252 18.3321H63.6111V25.6905H64.6533V21.0654L66.1059 25.6905H67.1903V18.3321H66.1617V22.5531Z" fill="white"/>
<path d="M6.44849 10.8351V14.0193H6.47459L8.61569 11.7981H8.64359V25.6887H11.6946V7.542H9.25829L6.44849 10.8351Z" fill="white"/>
<path d="M13.4072 10.8351V14.0193H13.4342L15.5753 11.7981H15.6014V25.6887H18.6533V7.542H16.2188L13.4072 10.8351Z" fill="white"/>
<rect x="68.0076" y="18.3303" width="1.23661" height="7.3593" fill="white"/>
<path d="M69.9174 19.3401H70.9371V25.6896H72.1845V19.3401H73.2042V18.3303H69.9174V19.3401Z" fill="white"/>
<rect x="73.8883" y="18.3303" width="1.23753" height="7.3593" fill="white"/>
<path d="M75.951 25.6896H78.9021V24.6807H77.1867V22.4451H78.4134V21.4461H77.1867V19.3401H78.9021V18.3303H75.951V25.6896Z" fill="white"/>
<path d="M81.2996 21.0015C80.9396 20.6532 80.7137 20.4147 80.7137 20.0034V19.8504C80.7137 19.4373 80.9522 19.2429 81.2996 19.2429C81.6902 19.2429 81.8846 19.449 81.8846 19.8729V20.5137H83.0141V19.9161C83.0141 18.8523 82.5254 18.2457 81.2888 18.2457C80.0837 18.2457 79.5527 18.9513 79.5527 19.8657V20.115C79.5527 20.961 79.8785 21.3849 80.5841 22.0788L81.3113 22.8069C81.6902 23.1669 81.8639 23.4252 81.8639 23.8482V24.1308C81.8639 24.5214 81.6902 24.7824 81.2996 24.7824C80.8766 24.7824 80.6921 24.5439 80.6921 24.1308V23.1183H79.5419V24.1083C79.5419 25.074 80.0297 25.7796 81.2888 25.7796C82.5479 25.7796 83.0888 25.0596 83.0888 24.0552V23.6952C83.0888 22.8852 82.763 22.4703 82.0907 21.7854L81.2996 21.0015Z" fill="white"/>
<path d="M14.85 68.5179H28.3842C28.5158 68.5188 28.6353 68.4414 28.6885 68.321C28.7417 68.2006 28.7183 68.0602 28.629 67.9635L28.6101 67.9437L21.8745 59.2299L21.8088 59.157C21.7461 59.0881 21.6572 59.0489 21.564 59.049C21.4835 59.0506 21.4063 59.081 21.3462 59.1345L21.3057 59.1813L21.2418 59.2524L14.6718 67.8753L14.571 67.9986C14.5338 68.0533 14.514 68.1179 14.5143 68.184C14.5143 68.2729 14.5497 68.3581 14.6127 68.4207C14.6757 68.4834 14.7611 68.5184 14.85 68.5179Z" fill="white"/>
<path d="M28.3428 69.75H14.778C14.6899 69.75 14.6054 69.785 14.5431 69.8473C14.4809 69.9096 14.4459 69.994 14.4459 70.0821V80.6931C14.4456 80.7814 14.4805 80.8662 14.5428 80.9288C14.605 80.9914 14.6896 81.0268 14.778 81.027H19.1439V74.3481C19.1436 74.2599 19.1785 74.1753 19.2409 74.113C19.3032 74.0507 19.3878 74.0158 19.476 74.016H23.526C23.6141 74.0158 23.6987 74.0507 23.7611 74.113C23.8234 74.1753 23.8583 74.2599 23.8581 74.3481V81.027H28.3401C28.4284 81.0268 28.513 80.9914 28.5753 80.9288C28.6375 80.8662 28.6724 80.7814 28.6722 80.6931V70.0785C28.6702 69.8975 28.5237 69.7515 28.3428 69.75Z" fill="white"/>
<path fill-rule="evenodd" clip-rule="evenodd" d="M75.2246 66.9671H61.7993C61.7133 66.9657 61.6303 66.9986 61.5686 67.0586C61.5069 67.1185 61.4717 67.2006 61.4708 67.2866V80.8433C61.4738 81.0219 61.6207 81.1644 61.7993 81.1619H75.2246C75.3105 81.1634 75.3935 81.1306 75.4553 81.0709C75.5171 81.0111 75.5526 80.9293 75.554 80.8433V67.2866C75.553 67.2005 75.5177 67.1182 75.4559 67.0582C75.394 66.9982 75.3107 66.9654 75.2246 66.9671ZM67.8788 75.8177C67.8779 75.9036 67.8429 75.9857 67.7814 76.0458C67.72 76.1058 67.6372 76.1391 67.5512 76.1381H63.5399C63.4538 76.1393 63.3706 76.1062 63.3089 76.0461C63.2471 75.986 63.2117 75.9039 63.2105 75.8177V73.3805C63.2115 73.2943 63.2468 73.2119 63.3086 73.1518C63.3704 73.0917 63.4537 73.0587 63.5399 73.0601H67.5512C67.6373 73.0589 67.7202 73.092 67.7817 73.1522C67.8432 73.2123 67.8781 73.2945 67.8788 73.3805V75.8177ZM67.7814 71.5404C67.8429 71.4803 67.8779 71.3982 67.8788 71.3123V68.8733C67.8777 68.7876 67.8425 68.7059 67.781 68.6462C67.7196 68.5864 67.6369 68.5535 67.5512 68.5547H63.5399C63.3612 68.5522 63.214 68.6946 63.2105 68.8733V71.3123C63.2117 71.3985 63.2471 71.4806 63.3089 71.5407C63.3706 71.6008 63.4538 71.6339 63.5399 71.6327H67.5512C67.6372 71.6337 67.72 71.6004 67.7814 71.5404ZM74.0095 75.8177C74.0085 75.904 73.9732 75.9863 73.9114 76.0464C73.8496 76.1066 73.7663 76.1396 73.6801 76.1381H69.6706C69.5843 76.1396 69.5011 76.1066 69.4392 76.0464C69.3774 75.9863 69.3421 75.904 69.3412 75.8177V73.3805C69.3421 73.2943 69.3774 73.2119 69.4392 73.1518C69.5011 73.0917 69.5843 73.0587 69.6706 73.0601H73.6801C73.7663 73.0587 73.8496 73.0917 73.9114 73.1518C73.9732 73.2119 74.0085 73.2943 74.0095 73.3805V75.8177ZM73.9114 71.541C73.9732 71.4809 74.0085 71.3985 74.0095 71.3123V68.8733C74.008 68.7874 73.9725 68.7055 73.9108 68.6458C73.849 68.586 73.766 68.5533 73.6801 68.5547H69.6706C69.5846 68.5533 69.5016 68.586 69.4399 68.6458C69.3781 68.7055 69.3426 68.7874 69.3412 68.8733V71.3123C69.3421 71.3985 69.3774 71.4809 69.4392 71.541C69.5011 71.6011 69.5843 71.6341 69.6706 71.6327H73.6801C73.7663 71.6341 73.8496 71.6011 73.9114 71.541Z" fill="white"/>
<path fill-rule="evenodd" clip-rule="evenodd" d="M44.0152 35.4996H30.8752C30.79 35.4998 30.7084 35.5339 30.6483 35.5943C30.5882 35.6548 30.5546 35.7366 30.5548 35.8218V80.7228C30.5553 80.8997 30.6983 81.0431 30.8752 81.0441H44.0152C44.1928 81.0436 44.3368 80.9003 44.3383 80.7228V35.82C44.3378 35.6419 44.1933 35.4978 44.0152 35.4978V35.4996ZM36.1998 75.9285C36.1998 75.9743 36.1816 76.0183 36.1492 76.0507C36.1167 76.0831 36.0728 76.1013 36.027 76.1013H33.0192C32.9237 76.1013 32.8464 76.0239 32.8464 75.9285V72.5769C32.8464 72.5312 32.8646 72.4873 32.897 72.455C32.9295 72.4228 32.9734 72.4048 33.0192 72.405H36.027C36.0727 72.4048 36.1167 72.4228 36.1491 72.455C36.1815 72.4873 36.1998 72.5312 36.1998 72.5769V75.9285ZM36.1486 68.3503C36.181 68.3182 36.1994 68.2746 36.1996 68.229V64.8783C36.1999 64.8324 36.1817 64.7883 36.1493 64.7558C36.1168 64.7234 36.0727 64.7053 36.0268 64.7055H33.0226C32.9767 64.7053 32.9326 64.7234 32.9002 64.7558C32.8677 64.7883 32.8496 64.8324 32.8498 64.8783V68.229C32.8503 68.3226 32.9255 68.3986 33.019 68.4H36.0268C36.0724 68.4003 36.1162 68.3824 36.1486 68.3503ZM36.1998 60.5313C36.1998 60.5771 36.1816 60.6211 36.1492 60.6535C36.1167 60.6859 36.0728 60.7041 36.027 60.7041H33.0192C32.9237 60.7041 32.8464 60.6267 32.8464 60.5313V57.1779C32.8469 57.0828 32.9241 57.006 33.0192 57.006H36.027C36.122 57.006 36.1993 57.0828 36.1998 57.1779V60.5313ZM36.0268 53.0046C36.1223 53.0046 36.1996 52.9272 36.1996 52.8318V49.4784C36.1994 49.4329 36.181 49.3894 36.1486 49.3574C36.1162 49.3255 36.0723 49.3078 36.0268 49.3083H33.0226C32.9771 49.3078 32.9333 49.3255 32.9009 49.3574C32.8684 49.3894 32.8501 49.4329 32.8498 49.4784V52.83C32.8488 52.9248 32.9243 53.0026 33.019 53.0046H36.0268ZM36.1998 45.1341C36.1993 45.2292 36.122 45.306 36.027 45.306H33.0192C32.9241 45.306 32.8469 45.2292 32.8464 45.1341V41.7807C32.8464 41.6853 32.9237 41.6079 33.0192 41.6079H36.027C36.0728 41.6079 36.1167 41.6261 36.1492 41.6585C36.1816 41.6909 36.1998 41.7349 36.1998 41.7807V45.1341ZM42.0483 76.051C42.0809 76.0186 42.0992 75.9745 42.0992 75.9285V72.5769C42.0992 72.531 42.0808 72.487 42.0482 72.4547C42.0156 72.4224 41.9714 72.4045 41.9255 72.405H38.9186C38.8728 72.4048 38.8289 72.4228 38.7965 72.455C38.764 72.4873 38.7458 72.5312 38.7458 72.5769V75.9285C38.7455 75.9744 38.7637 76.0185 38.7961 76.0509C38.8286 76.0834 38.8727 76.1015 38.9186 76.1013H41.9255C41.9715 76.1015 42.0157 76.0834 42.0483 76.051ZM42.099 68.229C42.0993 68.2751 42.081 68.3193 42.0484 68.3518C42.0157 68.3843 41.9714 68.4023 41.9253 68.4018H38.9184C38.8724 68.4023 38.8282 68.3843 38.7957 68.3517C38.7632 68.3192 38.7451 68.275 38.7456 68.229V64.8783C38.7451 64.8323 38.7632 64.7881 38.7957 64.7556C38.8282 64.7231 38.8724 64.705 38.9184 64.7055H41.9253C41.9714 64.705 42.0157 64.723 42.0484 64.7555C42.081 64.788 42.0993 64.8323 42.099 64.8783V68.229ZM42.0483 60.6538C42.0809 60.6214 42.0992 60.5773 42.0992 60.5313V57.1779C42.099 57.1321 42.0805 57.0882 42.0479 57.056C42.0154 57.0237 41.9713 57.0058 41.9255 57.006H38.9186C38.8728 57.0058 38.8289 57.0238 38.7965 57.056C38.764 57.0883 38.7458 57.1322 38.7458 57.1779V60.5313C38.7455 60.5772 38.7637 60.6213 38.7961 60.6538C38.8286 60.6862 38.8727 60.7043 38.9186 60.7041H41.9255C41.9715 60.7043 42.0157 60.6862 42.0483 60.6538ZM42.0992 52.8318C42.0992 52.8778 42.0809 52.9219 42.0483 52.9543C42.0157 52.9867 41.9715 53.0048 41.9255 53.0046H38.9186C38.8727 53.0048 38.8286 52.9867 38.7961 52.9542C38.7637 52.9218 38.7455 52.8777 38.7458 52.8318V49.4784C38.746 49.4329 38.7644 49.3894 38.7968 49.3574C38.8293 49.3255 38.8731 49.3078 38.9186 49.3083H41.9255C41.9712 49.3076 42.0152 49.3252 42.0478 49.3571C42.0805 49.3891 42.099 49.4327 42.0992 49.4784V52.8318ZM42.0479 45.256C42.0805 45.2238 42.099 45.1799 42.0992 45.1341V41.7807C42.0992 41.7347 42.0809 41.6906 42.0483 41.6582C42.0157 41.6258 41.9715 41.6077 41.9255 41.6079H38.9186C38.8727 41.6077 38.8286 41.6258 38.7961 41.6582C38.7637 41.6907 38.7455 41.7348 38.7458 41.7807V45.1341C38.7458 45.1798 38.764 45.2237 38.7965 45.256C38.8289 45.2882 38.8728 45.3062 38.9186 45.306H41.9255C41.9713 45.3062 42.0154 45.2883 42.0479 45.256Z" fill="white"/>
<path d="M75.5389 65.6028C75.5389 65.7519 75.418 65.8728 75.2689 65.8728H61.7554C61.6063 65.8728 61.4854 65.7519 61.4854 65.6028V62.9028C61.4854 62.7537 61.6063 62.6328 61.7554 62.6328H75.2689C75.418 62.6328 75.5389 62.7537 75.5389 62.9028V65.6028Z" fill="white"/>
<path fill-rule="evenodd" clip-rule="evenodd" d="M59.8859 43.9785C59.8436 43.8308 59.7092 43.7286 59.5556 43.7274C59.4882 43.7291 59.4227 43.7507 59.3675 43.7895L59.3432 43.8057L59.2325 43.9461L46.3193 60.3261L46.2599 60.4062C46.1906 60.4735 46.1503 60.5652 46.1474 60.6618V80.7903C46.1476 80.8755 46.1817 80.9571 46.2421 81.0172C46.3026 81.0773 46.3844 81.1109 46.4696 81.1107H59.5952C59.6803 81.1109 59.7621 81.0773 59.8223 81.0172C59.8826 80.9571 59.9165 80.8754 59.9165 80.7903V44.1135C59.9158 44.0669 59.9054 44.0209 59.8859 43.9785ZM54.4499 52.8741L54.5399 52.7589C55.4228 51.6249 56.9123 49.7889 57.6377 48.9015L57.7331 48.7881C57.8042 48.7017 57.9101 48.6516 58.022 48.6513C58.1985 48.6522 58.3496 48.7783 58.382 48.9519V53.1C58.3811 53.2999 58.2218 53.4632 58.022 53.469H58.0058H57.9887H54.7658H54.7496H54.7334C54.5337 53.4627 54.3747 53.2997 54.3734 53.1C54.3737 53.0184 54.4005 52.9391 54.4499 52.8741ZM52.3131 76.0425C52.3734 75.9822 52.4072 75.9004 52.4069 75.8151L52.406 73.3644C52.406 73.2793 52.3722 73.1976 52.3119 73.1375C52.2516 73.0774 52.1699 73.0438 52.0847 73.044H48.1688C48.0837 73.0438 48.002 73.0774 47.9417 73.1375C47.8814 73.1976 47.8475 73.2793 47.8475 73.3644V75.8151C47.8473 75.9004 47.8811 75.9822 47.9414 76.0425C48.0017 76.1028 48.0835 76.1366 48.1688 76.1364H52.0856C52.1709 76.1366 52.2528 76.1028 52.3131 76.0425ZM52.4069 71.2863C52.4072 71.3716 52.3734 71.4534 52.3131 71.5137C52.2528 71.574 52.1709 71.6078 52.0856 71.6076H48.1688C48.0835 71.6078 48.0017 71.574 47.9414 71.5137C47.8811 71.4534 47.8473 71.3716 47.8475 71.2863V68.8356C47.8471 68.7502 47.8808 68.6682 47.9411 68.6079C48.0015 68.5475 48.0835 68.5138 48.1688 68.5143H52.0847C52.1701 68.5138 52.2521 68.5475 52.3125 68.6079C52.3728 68.6682 52.4065 68.7502 52.406 68.8356L52.4069 71.2863ZM52.3128 66.9844C52.3731 66.9243 52.4069 66.8426 52.4069 66.7575L52.406 64.3059C52.4063 64.2206 52.3725 64.1388 52.3122 64.0784C52.2519 64.0181 52.17 63.9844 52.0847 63.9846H48.1688C48.0835 63.9844 48.0017 64.0181 47.9414 64.0784C47.8811 64.1388 47.8473 64.2206 47.8475 64.3059V66.7575C47.8475 66.8426 47.8814 66.9243 47.9417 66.9844C48.002 67.0445 48.0837 67.0781 48.1688 67.0779H52.0856C52.1708 67.0781 52.2525 67.0445 52.3128 66.9844ZM52.4177 56.8332V62.2332C52.4172 62.4104 52.2737 62.554 52.0964 62.5545H48.1814C48.0959 62.555 48.0137 62.5213 47.953 62.461C47.8924 62.4007 47.8583 62.3187 47.8583 62.2332V61.5537C47.8598 61.5127 47.868 61.4723 47.8826 61.434C47.8882 61.4209 47.8948 61.4082 47.9024 61.3962C47.9106 61.3812 47.9203 61.3671 47.9312 61.3539C47.937 61.344 47.9455 61.3322 47.954 61.3204C47.9585 61.3141 47.9631 61.3077 47.9672 61.3017C48.4676 60.5817 50.7266 57.8025 51.6752 56.6397L51.7706 56.5245C51.8417 56.4383 51.9477 56.3884 52.0595 56.3886C52.2357 56.3898 52.3864 56.5153 52.4195 56.6883L52.4177 56.8332ZM58.2977 76.0423C58.3579 75.982 58.3918 75.9003 58.3918 75.8151V73.3644C58.3913 73.1873 58.2476 73.044 58.0705 73.044H54.1555C54.0701 73.0435 53.988 73.077 53.9274 73.1371C53.8668 73.1972 53.8326 73.279 53.8324 73.3644V75.8151C53.8324 75.9006 53.8665 75.9826 53.9271 76.0429C53.9878 76.1032 54.0699 76.1369 54.1555 76.1364H58.0705C58.1557 76.1364 58.2374 76.1025 58.2977 76.0423ZM58.3918 71.2863C58.3918 71.4637 58.2479 71.6076 58.0705 71.6076H54.1555C54.0699 71.6081 53.9877 71.5744 53.9271 71.5141C53.8665 71.4538 53.8324 71.3718 53.8324 71.2863V68.8356C53.8321 68.75 53.8661 68.6679 53.9268 68.6075C53.9875 68.5471 54.0699 68.5136 54.1555 68.5143H58.0705C58.2479 68.5143 58.3918 68.6581 58.3918 68.8356V71.2863ZM58.0705 67.0779C58.2474 67.0774 58.3908 66.9344 58.3918 66.7575V64.3059C58.3918 64.1285 58.2479 63.9846 58.0705 63.9846H54.1555C54.0699 63.9841 53.9878 64.0178 53.9271 64.0781C53.8665 64.1384 53.8324 64.2204 53.8324 64.3059V66.7575C53.8326 66.8429 53.8668 66.9246 53.9274 66.9848C53.988 67.0449 54.0701 67.0784 54.1555 67.0779H58.0705ZM58.3918 62.2278C58.3913 62.4049 58.2476 62.5482 58.0705 62.5482H54.1555C54.0701 62.5487 53.988 62.5152 53.9274 62.455C53.8668 62.3949 53.8326 62.3132 53.8324 62.2278V59.7771C53.8324 59.6916 53.8665 59.6096 53.9271 59.5493C53.9878 59.489 54.0699 59.4553 54.1555 59.4558H58.0705C58.2479 59.4558 58.3918 59.5996 58.3918 59.7771V62.2278ZM58.2977 57.9253C58.3579 57.865 58.3918 57.7833 58.3918 57.6981V55.2474C58.392 55.162 58.3583 55.0801 58.298 55.0196C58.2377 54.9592 58.1558 54.9252 58.0705 54.9252H54.1555C54.0698 54.9247 53.9875 54.9585 53.9268 55.019C53.8661 55.0795 53.8321 55.1617 53.8324 55.2474V57.6981C53.8324 57.7836 53.8665 57.8656 53.9271 57.9259C53.9877 57.9862 54.0699 58.0199 54.1555 58.0194H58.0705C58.1557 58.0194 58.2374 57.9855 58.2977 57.9253Z" fill="white"/>
</svg>
