<svg width="90" height="90" viewBox="0 0 90 90" fill="none" xmlns="http://www.w3.org/2000/svg">
<rect width="90" height="90" fill="#3F7E44"/>
<path d="M11.3596 7.5492V25.6878H8.30949V11.8035H8.28249L6.14319 14.0238H6.11529V10.8396L8.92419 7.5492H11.3596Z" fill="white"/>
<path d="M21.4201 11.4831V13.0608C21.4201 14.5845 20.5912 15.6015 19.3339 16.0038C20.8585 16.3512 21.5839 17.4213 21.5839 19.08V21.7557C21.5839 24.2694 20.2465 25.902 17.1694 25.902C14.0653 25.902 12.9673 24.1362 12.9673 21.3804V18.9999H15.7501V21.6C15.7501 22.6701 16.1236 23.364 17.1685 23.364C18.1036 23.364 18.5311 22.6962 18.5311 21.7323V18.7326C18.5311 17.7687 18.1036 17.2611 17.0344 17.2611H15.7501V14.9337H16.9012C17.8912 14.9337 18.5311 14.4243 18.5311 13.4622V11.5092C18.5311 10.5192 18.1846 9.8775 17.2216 9.8775C16.2586 9.8775 15.9112 10.5192 15.9112 11.6424V13.4883H13.1248V11.88C13.1248 9.2043 14.2219 7.3314 17.3791 7.3314C20.1889 7.3314 21.4192 8.9109 21.4192 11.4795" fill="white"/>
<path fill-rule="evenodd" clip-rule="evenodd" d="M78.0382 56.34C75.6667 53.0181 64.9405 39.7395 45.0001 39.7395C25.0597 39.7395 14.3389 53.0181 11.9638 56.34C11.9025 56.4265 11.8462 56.5076 11.7957 56.5804L11.7956 56.5805C11.7631 56.6274 11.733 56.6708 11.7055 56.7099C11.761 56.7946 11.8273 56.889 11.9024 56.996L11.9026 56.9962L11.9026 56.9962L11.9638 57.0834C14.3389 60.4107 25.0615 73.6902 45.0001 73.6902C64.9387 73.6902 75.6667 60.4107 78.0382 57.087C78.1417 56.943 78.2272 56.817 78.2947 56.7135C78.2275 56.6091 78.142 56.4858 78.0382 56.3436V56.34ZM33.8807 48.1356C34.0175 47.9351 34.3952 47.4522 34.6001 47.1902L34.6001 47.1902C34.6647 47.1076 34.7121 47.047 34.7294 47.0241C34.873 46.8394 35.1482 46.7917 35.3577 46.7555L35.4017 46.7478C35.615 46.71 35.8958 46.8261 35.93 46.9854C35.9642 47.1447 35.8481 47.7621 35.7437 47.8683C35.4512 48.1716 34.6898 48.6 34.2704 48.5325C33.9455 48.483 33.8204 48.2319 33.8807 48.1356ZM33.2113 49.5017C33.1987 49.516 33.1835 49.5332 33.1677 49.5522L33.1668 49.5549C32.7643 50.2146 32.4181 50.9071 32.1318 51.6249C32.2437 51.6793 32.3712 51.6923 32.4918 51.6618C32.8114 51.5904 33.2959 51.0944 33.721 50.6592L33.721 50.6592C33.88 50.4964 34.0307 50.3421 34.1613 50.2218C34.2167 50.1688 34.3523 50.0883 34.5079 49.996C34.8279 49.8062 35.2323 49.5662 35.1972 49.4118C35.145 49.1823 34.6797 49.0131 34.335 49.0671L34.2721 49.0768C33.9319 49.1292 33.4759 49.1993 33.2397 49.4685C33.2339 49.4761 33.2238 49.4875 33.2113 49.5017L33.2113 49.5017ZM40.6287 64.8621C40.3625 65.9089 40.0527 66.2955 39.787 66.627L39.7755 66.6414C39.5073 66.9762 38.5155 67.4127 37.8855 67.3659C37.2555 67.3191 37.1655 65.6334 37.1655 64.7658C37.1655 64.6806 37.131 64.6918 37.0766 64.7096C36.9401 64.7542 36.6784 64.8397 36.5202 63.5499C36.442 62.9113 36.1803 63.0159 35.9531 63.1067C35.7695 63.1801 35.6084 63.2444 35.5851 62.9001C35.5514 62.4026 35.3848 62.2909 35.1668 62.1448C35.0472 62.0646 34.9121 61.9741 34.7751 61.8039C34.4853 61.444 34.141 61.6493 33.7589 61.8772C33.6307 61.9536 33.4982 62.0326 33.3621 62.0937C33.2169 62.1588 33.1267 62.2153 33.0579 62.2584C32.8699 62.3762 32.8407 62.3944 32.2821 62.2179C32.2698 62.214 32.2613 62.2104 32.2521 62.2065C32.2465 62.2042 32.2406 62.2017 32.2335 62.199C31.5074 60.4881 31.1334 58.6485 31.1337 56.79C31.1337 56.3211 31.1589 55.8594 31.203 55.404C31.2274 55.3582 31.256 55.3148 31.2885 55.2744C32.0229 54.405 32.0085 54.2016 32.0085 54.2016L32.8185 53.9208C32.8185 53.9208 34.1163 54.1206 35.0937 54.4887C35.2532 54.5484 35.4307 54.6231 35.6186 54.7021C36.3795 55.0222 37.3104 55.4138 37.9044 55.1727C38.4381 54.9531 38.8548 54.6615 38.8044 54.2178C38.745 53.6607 38.3058 53.5284 37.7748 53.9037C37.6819 53.9696 37.5386 53.7828 37.3787 53.5742C37.2025 53.3443 37.006 53.088 36.8343 53.1144C36.6639 53.1406 36.7803 53.4503 36.8923 53.7481C36.9956 54.0227 37.0951 54.2871 36.9621 54.3096C36.702 54.3535 36.1922 53.3054 36.0515 53.0161L36.0288 52.9695C35.9334 52.776 35.5023 52.2981 35.1144 52.6635C34.5648 53.1859 33.7851 53.3363 33.2507 53.4393C32.9888 53.4898 32.7858 53.529 32.6979 53.595C31.8879 54.2034 31.6701 53.3943 31.6881 52.902C31.7205 52.7895 31.7538 52.6761 31.7898 52.5645C32.0553 52.272 33.0084 52.1748 33.336 52.3926C33.6786 52.6213 33.9283 52.3592 34.0727 52.2077L34.0938 52.1856C34.2342 52.0398 34.1838 51.8121 34.0938 51.6213C34.0038 51.4305 34.2738 51.2865 34.4592 51.237C34.5876 51.2027 34.9248 50.9839 35.2021 50.804L35.2021 50.8039L35.2022 50.8039C35.3251 50.7241 35.4362 50.652 35.5122 50.607C35.7597 50.4603 37.0422 50.3073 37.6209 50.5953C38.0909 50.8437 38.6709 50.7266 39.0078 50.3154C39.291 49.9779 39.632 49.6936 40.0149 49.4757C40.2165 49.3857 39.519 48.7314 38.9466 49.4406C38.3742 50.1498 38.0799 50.211 37.8099 50.211C37.5399 50.211 35.9361 49.8114 35.7399 49.3047C35.5437 48.798 36.2421 48.4191 36.8334 48.1347C37.2242 47.9467 38.0644 47.8857 38.7087 47.839C39.0393 47.815 39.3183 47.7947 39.4587 47.763C39.6382 47.7236 39.8284 47.6734 40.0218 47.6224C40.7351 47.4341 41.4921 47.2342 41.9184 47.5245C42.162 47.6904 41.729 47.9094 41.2624 48.1455C40.691 48.4345 40.0692 48.7491 40.5765 49.023C40.8202 49.1569 41.7026 48.6198 42.3478 48.227C42.5698 48.0919 42.7638 47.9738 42.894 47.9061C43.4906 47.5985 43.202 47.3939 42.8018 47.1101C42.4009 46.8258 41.8881 46.4621 42.0408 45.8361C42.3364 44.6229 40.0025 44.8524 38.3139 45.0185L38.3139 45.0185C38.0334 45.0461 37.7707 45.0719 37.5408 45.0891C41.3249 42.6683 46.0463 42.2275 50.2131 43.906C54.3799 45.5845 57.4775 49.1749 58.527 53.5428C58.5351 53.7594 58.5124 53.9761 58.4595 54.1863C58.3335 54.6867 57.3795 55.1169 56.8332 54.3114C56.6928 54.108 56.097 53.5455 56.1132 54.5076C56.1198 54.8989 56.2758 55.1474 56.3989 55.3434C56.5785 55.6294 56.6879 55.8037 56.1609 56.1465C55.5311 56.5561 55.2668 56.6052 55.0201 56.6511C54.9188 56.6699 54.8205 56.6882 54.7011 56.7306C54.2907 56.8764 53.8911 57.8673 53.9928 58.3974C54.0255 58.5679 54.1785 58.8337 54.3396 59.1137C54.6795 59.704 55.0558 60.3577 54.4185 60.3162C54.198 60.2991 52.5384 59.166 52.2648 58.437C52.092 57.9793 51.9103 57.5277 51.7442 57.1149L51.744 57.1145C51.6316 56.8351 51.5263 56.5736 51.4359 56.34C51.2118 55.7613 50.6259 55.62 50.1273 55.9557C49.8724 56.1273 49.9141 56.3001 49.9682 56.5246C50.02 56.7394 50.0832 57.0015 49.9095 57.3552C49.8852 57.4046 49.8614 57.4536 49.838 57.5019C49.5182 58.1608 49.2655 58.6816 48.78 58.1256C48.1632 57.4192 47.4188 57.1924 46.7617 56.9922C45.9737 56.7521 45.3112 56.5503 45.1449 55.6056C45.0352 54.9886 44.6477 54.817 44.203 54.62C43.9725 54.5179 43.7266 54.409 43.4961 54.2277C42.8211 53.6967 42.4404 53.4177 42.3261 53.7948C42.2716 53.9779 42.9079 54.5854 43.5235 55.1732C44.0367 55.6632 44.5355 56.1395 44.6076 56.3445C44.8443 57.0159 43.9425 57.6045 43.2819 57.7665C42.747 57.8977 42.4576 57.5739 42.0228 57.0877L42.0228 57.0877L42.0228 57.0877C41.9206 56.9734 41.8104 56.8501 41.6871 56.7216C41.5435 56.572 41.4178 56.432 41.3088 56.3106C40.9258 55.8839 40.7474 55.6851 40.7124 56.097C40.6476 56.8611 41.3271 57.987 41.9859 58.4028C42.1051 58.4781 42.2274 58.5448 42.3443 58.6085C42.7789 58.8453 43.1396 59.0419 42.9957 59.4972C42.9654 59.5928 42.9452 59.6637 42.9296 59.7183C42.9041 59.8078 42.8911 59.8532 42.8671 59.8917C42.8423 59.9314 42.8058 59.9637 42.7317 60.0294C42.6569 60.0957 42.5438 60.1959 42.3657 60.372C41.7357 60.9948 41.6151 61.1991 41.661 62.064C41.6899 62.6097 41.6107 62.8319 41.5141 63.1026C41.4576 63.261 41.3952 63.4359 41.3451 63.702C41.283 64.0313 41.1837 64.08 41.0685 64.1366C40.9314 64.2039 40.7717 64.2823 40.6251 64.8567L40.6287 64.8621ZM56.4236 60.1785C56.6999 59.9301 55.9961 59.283 55.5299 59.3208C55.3193 59.3397 54.7469 59.7843 55.0988 60.0597C55.4507 60.3351 56.1473 60.4269 56.4236 60.1785ZM54.9388 58.8942C54.7894 58.8384 54.6571 58.6962 54.5437 58.3542C54.4303 58.0122 54.7174 57.8142 54.9937 57.9555C55.27 58.0968 55.6489 58.5252 55.6489 58.752C55.6489 58.9788 55.0882 58.9527 54.9352 58.8924L54.9388 58.8942ZM47.4777 58.7493C47.8287 59.0229 48.5307 59.1129 48.8052 58.8681H48.8079C49.0779 58.6215 48.375 57.9681 47.9079 58.0104C47.6991 58.0293 47.1267 58.4757 47.4777 58.7493ZM43.1381 61.6266C43.0776 61.7257 42.9836 62.0285 42.8723 62.3871C42.6329 63.1586 42.3133 64.1882 42.0743 64.0026C41.7242 63.7308 42.2165 61.2936 42.3173 61.1082C42.8663 60.102 44.0525 60.1515 43.1381 61.6266ZM41.1247 70.1199C42.3926 70.4909 43.707 70.6791 45.028 70.6788C48.0711 70.6829 51.0307 69.6836 53.4484 67.8357C53.3676 67.8053 53.3077 67.7724 53.2479 67.7395C53.0705 67.6422 52.8947 67.5456 52.1812 67.518C51.129 67.4787 50.3281 68.1711 49.7958 68.6314C49.6214 68.7822 49.4758 68.908 49.3597 68.9751C49.1726 69.0832 48.5914 68.8823 47.8177 68.615C46.6456 68.2099 45.0316 67.6521 43.6762 67.7844C42.6664 67.8816 41.3857 68.3208 40.9564 69.4413C40.8515 69.6794 40.9207 69.9584 41.1247 70.1199ZM54.8247 66.636C54.6744 66.597 54.5285 66.543 54.3891 66.4749C53.9337 66.2432 53.7844 66.3726 53.6572 66.4828C53.5725 66.5562 53.4976 66.6211 53.3487 66.5649C53.2033 66.5101 53.2353 66.3453 53.262 66.2083C53.3036 65.9941 53.3321 65.8476 52.6493 66.2949C51.8438 66.8227 51.7758 66.5323 51.62 65.8673C51.5593 65.608 51.4852 65.2918 51.3489 64.9449C50.8629 63.7083 51.9086 62.2962 52.7889 61.9749C53.6828 61.6516 54.3254 61.5189 54.8278 61.4151C55.0038 61.3788 55.1625 61.346 55.3089 61.3098C56.1152 61.1084 56.6143 60.7732 56.9489 60.5484C57.3067 60.3081 57.4764 60.1941 57.6327 60.5052C57.6903 60.6177 57.7452 60.7257 57.7956 60.8265C57.9308 61.1123 58.0026 61.4239 58.0062 61.74C57.3038 63.5803 56.2185 65.2504 54.822 66.6396L54.8247 66.636ZM57.9278 55.9512C56.6949 57.3696 58.2545 59.526 58.6271 59.6277V59.6322C58.8201 58.6996 58.9175 57.7496 58.9178 56.7972C58.9178 56.5218 58.907 56.2572 58.8935 55.9872C58.7162 55.3842 58.358 54.9657 57.683 55.0179C57.6118 55.0236 57.6804 55.1488 57.7684 55.3093C57.8893 55.5296 58.0466 55.8163 57.9278 55.9512Z" fill="white"/>
<path d="M28.719 13.104V9.4707C28.719 8.3007 29.2725 7.4439 30.6018 7.4439C31.9977 7.4439 32.3856 8.2188 32.3856 9.3267V10.2132H31.23V9.2232C31.23 8.7579 31.0752 8.4924 30.6207 8.4924C30.1662 8.4924 29.9817 8.82 29.9817 9.27V13.302C29.9817 13.752 30.1698 14.0769 30.6243 14.0769C31.0788 14.0769 31.2336 13.7889 31.2336 13.3461V11.9628H32.3856V13.2588C32.3856 14.3334 31.9428 15.1308 30.6018 15.1308C29.2608 15.1308 28.719 14.2668 28.719 13.104Z" fill="white"/>
<path d="M33.1821 7.5321H34.4421V14.0121H35.9487V15.0426H33.1821V7.5321Z" fill="white"/>
<path d="M36.6364 7.5321H37.8964V15.0426H36.6364V7.5321Z" fill="white"/>
<path d="M42.3188 10.17H42.2855L41.4332 15.0435H40.8455L39.9041 10.17H39.8816V15.0435H38.8412V7.5321H40.3136L41.1335 11.7621H41.1452L41.876 7.5321H43.4699V15.0426H42.3188V10.17Z" fill="white"/>
<path fill-rule="evenodd" clip-rule="evenodd" d="M45.5182 7.5321L44.0998 15.0426H45.2968L45.5191 13.6683H46.8583L47.0914 15.0426H48.3874L46.9582 7.5321H45.5182ZM46.6926 12.6612H45.6837L46.1823 9.648H46.194L46.6926 12.6612Z" fill="white"/>
<path d="M48.2194 7.5321H51.5764V8.5626H50.5351V15.0426H49.2607V8.5626H48.2194V7.5321Z" fill="white"/>
<path d="M52.273 7.5321H55.2862V8.5626H53.5357V10.71H54.7876V11.7288H53.5357V14.0103H55.2862V15.0408H52.273V7.5321Z" fill="white"/>
<path fill-rule="evenodd" clip-rule="evenodd" d="M29.9167 18.18L28.4983 25.6878L29.6944 25.6896L29.9167 24.3162H31.2568L31.4899 25.6896H32.7859L31.3567 18.18H29.9167ZM31.0911 23.31H30.0822L30.5808 20.2977H30.5925L31.0911 23.31Z" fill="white"/>
<path d="M33.1489 23.7501V20.1168C33.1489 18.9423 33.7033 18.09 35.0326 18.09C36.4276 18.09 36.8155 18.8649 36.8155 19.9728V20.8584H35.6635V19.8729C35.6635 19.4076 35.5087 19.1421 35.0542 19.1421C34.5997 19.1421 34.4116 19.4634 34.4116 19.917V23.949C34.4116 24.399 34.6006 24.7248 35.0542 24.7248C35.5078 24.7248 35.6635 24.4368 35.6635 23.9931V22.6089H36.8155V23.9049C36.8155 24.9795 36.3727 25.7769 35.0326 25.7769C33.6925 25.7769 33.1489 24.9129 33.1489 23.7501Z" fill="white"/>
<path d="M37.2599 18.18H40.6169V19.2105H39.572V25.6905H38.2976V19.2105H37.2599V18.18Z" fill="white"/>
<path d="M41.3102 18.18H42.5702V25.6896H41.3102V18.18Z" fill="white"/>
<path fill-rule="evenodd" clip-rule="evenodd" d="M43.4134 20.1168V23.7501C43.4134 24.9129 43.9786 25.7769 45.3187 25.7769C46.6588 25.7769 47.2357 24.9129 47.2357 23.7501V20.1168C47.2357 18.9423 46.6471 18.09 45.3187 18.09C43.9903 18.09 43.4134 18.9423 43.4134 20.1168ZM45.973 19.917V23.949C45.973 24.4035 45.7615 24.7248 45.3187 24.7248C44.8759 24.7248 44.6761 24.399 44.6761 23.949V19.917C44.6761 19.4634 44.8642 19.1421 45.3187 19.1421C45.7732 19.1421 45.973 19.467 45.973 19.917Z" fill="white"/>
<path d="M49.1276 20.97V25.6887H48.0647V18.18H49.3058L50.6702 22.4865V18.18H51.7232V25.6896H50.6126L49.1276 20.97Z" fill="white"/>
</svg>
