<svg width="90" height="90" viewBox="0 0 90 90" fill="none" xmlns="http://www.w3.org/2000/svg">
<rect width="90" height="90" fill="#A21942"/>
<path fill-rule="evenodd" clip-rule="evenodd" d="M17.487 21.2481V19.2681C17.487 17.5293 16.8723 16.2711 15.453 15.6285C16.6563 15.0408 17.2197 13.9698 17.2197 12.4713V11.7207C17.2197 8.8839 15.7482 7.3584 12.9375 7.3584C10.1547 7.3584 8.70748 8.8884 8.70748 11.7207V12.4713C8.70748 13.9437 9.24748 15.0408 10.4175 15.6285C8.99908 16.2711 8.40958 17.5293 8.40958 19.2681V21.2481C8.40958 24.0039 9.72178 25.9281 12.9339 25.9281C16.1739 25.9281 17.4834 24.0003 17.4834 21.2481H17.487ZM11.5677 11.5281C11.5677 10.4292 11.9439 9.7875 12.9339 9.7875C13.95 9.7875 14.3253 10.4292 14.3253 11.5281V12.7584C14.3253 13.8555 13.95 14.4999 12.9339 14.4999C11.9439 14.4999 11.5677 13.8555 11.5677 12.7584V11.5281ZM12.9375 23.4423C14.0346 23.4423 14.436 22.6665 14.436 21.5685V18.6246C14.436 17.5275 14.0346 16.7508 12.9375 16.7508C11.8665 16.7508 11.4651 17.5275 11.4651 18.6246V21.5685C11.4651 22.6665 11.8665 23.4423 12.9375 23.4423Z" fill="white"/>
<path d="M62.4745 44.28L53.3269 52.9803C52.9822 53.3232 52.8049 53.5761 52.8049 54.2871V78.6771C52.8059 78.9647 53.0393 79.1973 53.3269 79.1973H62.7769C63.0643 79.1973 63.2975 78.9645 63.298 78.6771V44.4978C63.298 44.2098 63.073 43.6878 62.4754 44.2782" fill="white"/>
<path d="M36.1206 55.62L26.9721 64.3167C26.6283 64.6605 26.4501 64.9125 26.4501 65.6226V78.6726C26.4516 78.9598 26.6848 79.1919 26.9721 79.1919H36.4221C36.7092 79.1919 36.9422 78.9597 36.9432 78.6726V55.8342C36.9432 55.5453 36.7155 55.0188 36.1206 55.6155" fill="white"/>
<path d="M66.6324 33.7248C66.6366 33.6507 66.6084 33.5784 66.555 33.5268C66.5089 33.4831 66.4492 33.4567 66.3858 33.4521H66.3354H66.2607L59.256 35.0397L59.1291 35.0532C59.0778 35.0638 59.0305 35.0884 58.9923 35.1243C58.89 35.2292 58.89 35.3965 58.9923 35.5014L59.0715 35.5806L60.6717 37.1799L44.7993 53.0523L37.4688 45.72C37.4295 45.6798 37.3757 45.6571 37.3194 45.6571C37.2632 45.6571 37.2093 45.6798 37.17 45.72L35.181 47.7099L23.4279 59.4621C23.347 59.5453 23.347 59.6777 23.4279 59.7609L25.4196 61.7517C25.4588 61.7911 25.5121 61.8133 25.5677 61.8133C25.6233 61.8133 25.6765 61.7911 25.7157 61.7517L37.3257 50.1489L42.6447 55.4697C42.6498 55.4785 42.6555 55.4869 42.6618 55.4949L44.6517 57.4821C44.6909 57.5223 44.7446 57.545 44.8007 57.545C44.8568 57.545 44.9105 57.5223 44.9496 57.4821L62.9595 39.4686L64.6389 41.1471C64.6882 41.1972 64.7555 41.2254 64.8257 41.2254C64.8959 41.2254 64.9632 41.1972 65.0124 41.1471C65.0594 41.1016 65.0868 41.0396 65.0889 40.9743V40.9527L66.627 33.8022L66.6324 33.7248Z" fill="white"/>
<path d="M49.3497 57.1428L44.9235 61.605C44.84 61.6758 44.7162 61.6711 44.6382 61.5942L40.6287 57.51C39.8943 56.7792 39.7359 57.3723 39.7359 57.6594V78.6753C39.7357 78.813 39.7902 78.9452 39.8874 79.0428C39.9846 79.1403 40.1166 79.1953 40.2543 79.1955H49.7043C49.9911 79.1945 50.2231 78.962 50.2236 78.6753V57.3075C50.2236 57.0204 49.9977 56.4921 49.3479 57.1428" fill="white"/>
<path fill-rule="evenodd" clip-rule="evenodd" d="M27.882 12.9114V9.5049C27.882 8.37 27.4149 7.5303 26.0919 7.5303H24.1821V14.886H26.0919C27.4149 14.886 27.882 14.04 27.882 12.9114ZM26.6454 13.1283C26.6454 13.5738 26.4501 13.8771 25.9398 13.8771H25.4187V8.5392H25.9398C26.4501 8.5392 26.6454 8.8425 26.6454 9.2772V13.1283Z" fill="white"/>
<path d="M28.6631 7.5303H31.6142V8.5392H29.9042V10.6443H31.13V11.6424H29.8997V13.8771H31.6097V14.886H28.6631V7.5303Z" fill="white"/>
<path d="M32.2433 12.9879V9.4284C32.2433 8.2782 32.7833 7.443 34.0874 7.443C35.4545 7.443 35.8343 8.2026 35.8343 9.288V10.1556H34.7066V9.1899C34.7066 8.7345 34.5545 8.4699 34.1099 8.4699C33.6653 8.4699 33.4799 8.7849 33.4799 9.2295V13.1796C33.4799 13.6242 33.6644 13.9392 34.1099 13.9392C34.5554 13.9392 34.7066 13.6566 34.7066 13.2192V11.8701H35.8343V13.14C35.8343 14.193 35.4005 14.9742 34.0874 14.9742C32.7743 14.9742 32.2433 14.13 32.2433 12.9879Z" fill="white"/>
<path d="M36.5831 7.5303H39.5342V8.5392H37.8242V10.6443H39.0509V11.6424H37.8197V13.8771H39.5297V14.886H36.5831V7.5303Z" fill="white"/>
<path d="M41.3099 10.2645V14.886H40.2722V7.5303H41.4899L42.8246 11.7504V7.5303H43.8551V14.886H42.7679L41.3099 10.2645Z" fill="white"/>
<path d="M44.4924 7.5303H47.78V8.5392H46.7604V14.886H45.5121V8.5392H44.4924V7.5303Z" fill="white"/>
<path d="M52.3152 10.3401L51.6213 14.886H50.4603L49.4703 7.5303H50.67L51.2451 12.1959H51.2559L51.8742 7.5303H52.8831L53.5662 12.1959H53.577L54.1413 7.5303H55.1835L54.225 14.886H53.055L52.3278 10.3401H52.3152Z" fill="white"/>
<path fill-rule="evenodd" clip-rule="evenodd" d="M55.6785 9.4284V12.9879C55.6785 14.13 56.2329 14.9733 57.5451 14.9733C58.8573 14.9733 59.4216 14.1273 59.4216 12.9879V9.4284C59.4216 8.2782 58.8474 7.443 57.5451 7.443C56.2428 7.443 55.6785 8.2782 55.6785 9.4284ZM58.185 9.2331V13.1832C58.185 13.6278 57.9798 13.9428 57.5451 13.9428C57.1104 13.9428 56.9151 13.6278 56.9151 13.1832V9.2331C56.9151 8.7885 57.1005 8.4735 57.5451 8.4735C57.9897 8.4735 58.185 8.7885 58.185 9.2331Z" fill="white"/>
<path fill-rule="evenodd" clip-rule="evenodd" d="M61.4394 14.886V11.5119L62.6004 14.886H63.9L62.7165 11.5443C63.4248 11.3832 63.7065 10.9152 63.7065 10.1232V9.1791C63.7065 8.1486 63.2511 7.5303 62.0028 7.5303H60.2028V14.886H61.4394ZM61.4394 10.8315V8.5419L61.8516 8.5464C62.2801 8.5464 62.4601 8.7417 62.4601 9.1431V10.2231C62.4601 10.6137 62.2756 10.8315 61.8516 10.8315H61.4394Z" fill="white"/>
<path d="M65.6927 11.3058V14.886H64.4561V7.5303H65.6927V10.7631L67.0427 7.5303H68.2577L66.8258 10.8396L68.2901 14.8896H66.9842L65.6927 11.3058Z" fill="white"/>
<path fill-rule="evenodd" clip-rule="evenodd" d="M71.3996 7.5303L70.0109 14.886H71.1827L71.3996 13.5414H72.7127L72.9404 14.886H74.2103L72.8099 7.5303H71.3996ZM72.5525 12.5532H71.5625L72.053 9.60211H72.0647L72.5525 12.5532Z" fill="white"/>
<path d="M75.6639 10.2645V14.886H74.6217V7.5303H75.8376L77.1723 11.7504V7.5303H78.2028V14.886H77.1174L75.6639 10.2645Z" fill="white"/>
<path fill-rule="evenodd" clip-rule="evenodd" d="M82.7164 12.9114V9.5049C82.7164 8.37 82.2493 7.5303 80.929 7.5303H79.0201V14.886H80.9254C82.2493 14.886 82.7164 14.04 82.7164 12.9114ZM81.4789 13.1283C81.4789 13.5738 81.2836 13.8771 80.7742 13.8771H80.2531V8.5392H80.7742C81.2836 8.5392 81.4789 8.8425 81.4789 9.2772V13.1283Z" fill="white"/>
<path d="M24.1821 18.3339H27.1332V19.3428H25.4187V21.4479H26.6454V22.446H25.4187V24.6816H27.1332V25.6905H24.1821V18.3339Z" fill="white"/>
<path d="M27.6759 23.7915V20.2329C27.6759 19.0827 28.2159 18.2475 29.52 18.2475C30.8871 18.2475 31.2669 19.0062 31.2669 20.0916V20.9601H30.1383V19.9944C30.1383 19.5381 29.9871 19.2744 29.5416 19.2744C29.0961 19.2744 28.9116 19.5885 28.9116 20.034V23.9832C28.9116 24.4278 29.0961 24.7428 29.5416 24.7428C29.9871 24.7428 30.1383 24.4611 30.1383 24.0228V22.6737H31.2669V23.94C31.2669 24.9921 30.8331 25.7733 29.52 25.7733C28.2069 25.7733 27.6759 24.93 27.6759 23.7915Z" fill="white"/>
<path fill-rule="evenodd" clip-rule="evenodd" d="M31.9391 20.2329V23.7915C31.9391 24.93 32.4926 25.7769 33.8057 25.7769C35.1188 25.7769 35.6831 24.9309 35.6831 23.7915V20.2329C35.6831 19.0827 35.108 18.2475 33.8057 18.2475C32.5034 18.2475 31.9391 19.0827 31.9391 20.2329ZM34.4457 20.0376V23.9868C34.4457 24.4314 34.2405 24.7464 33.8058 24.7464C33.3711 24.7464 33.1758 24.4314 33.1758 23.9868V20.0376C33.1758 19.5921 33.3612 19.278 33.8058 19.278C34.2504 19.278 34.4457 19.5921 34.4457 20.0376Z" fill="white"/>
<path d="M37.4292 21.0681V25.6905H36.3879V18.3339H37.6029L38.9376 22.5549V18.3339H39.9681V25.6905H38.88L37.4292 21.0681Z" fill="white"/>
<path fill-rule="evenodd" clip-rule="evenodd" d="M40.6737 20.2329V23.7915C40.6737 24.93 41.2263 25.7769 42.5394 25.7769C43.8525 25.7769 44.4168 24.9309 44.4168 23.7915V20.2329C44.4168 19.0827 43.8408 18.2475 42.5394 18.2475C41.238 18.2475 40.6737 19.0827 40.6737 20.2329ZM43.1802 20.0376V23.9868C43.1802 24.4314 42.9741 24.7464 42.5394 24.7464C42.1047 24.7464 41.9094 24.4314 41.9094 23.9868V20.0376C41.9094 19.5921 42.0939 19.278 42.5394 19.278C42.9849 19.278 43.1802 19.5921 43.1802 20.0376Z" fill="white"/>
<path d="M48.5289 20.916H48.4965L47.6604 25.686H47.0853L46.1637 20.916H46.1412V25.686H45.1215V18.3339H46.5615L47.3643 22.4739H47.3751L48.0951 18.3339H49.6584V25.6905H48.5289V20.916Z" fill="white"/>
<path d="M50.3622 18.3339H51.5988V25.6905H50.3622V18.3339Z" fill="white"/>
<path d="M52.2899 23.7915V20.2329C52.2899 19.0827 52.8299 18.2475 54.134 18.2475C55.5011 18.2475 55.8809 19.0062 55.8809 20.0916V20.9601H54.7559V19.9944C54.7559 19.5381 54.6038 19.2744 54.1592 19.2744C53.7146 19.2744 53.5292 19.5885 53.5292 20.034V23.9832C53.5292 24.4278 53.7137 24.7428 54.1592 24.7428C54.6047 24.7428 54.7559 24.4611 54.7559 24.0228V22.6737H55.8845V23.94C55.8845 24.9921 55.4507 25.7733 54.1376 25.7733C52.8245 25.7733 52.2899 24.93 52.2899 23.7915Z" fill="white"/>
<path d="M59.8554 21.7629H61.6131V25.6905H60.7239V24.8877C60.561 25.4412 60.2136 25.7769 59.5413 25.7769C58.4775 25.7769 57.9897 24.9309 57.9897 23.7915V20.2329C57.9897 19.0827 58.5423 18.2475 59.8446 18.2475C61.2117 18.2475 61.6131 19.0062 61.6131 20.0916V20.7423H60.4845V19.9944C60.4845 19.5381 60.3108 19.2744 59.8662 19.2744C59.4216 19.2744 59.2263 19.5885 59.2263 20.034V23.9832C59.2263 24.4278 59.4063 24.7428 59.8338 24.7428C60.2352 24.7428 60.4413 24.5151 60.4413 24.0372V22.7394H59.8554V21.7629Z" fill="white"/>
<path fill-rule="evenodd" clip-rule="evenodd" d="M63.5552 25.6941V22.32L64.7162 25.6905H66.0149L64.8314 22.3488C65.5388 22.1868 65.8214 21.7188 65.8214 20.9268V19.9827C65.8214 18.9522 65.3651 18.3339 64.1177 18.3339H62.3177V25.6941H63.5552ZM63.5551 21.6396V19.35L63.9673 19.3428C64.3948 19.3428 64.5748 19.5381 64.5748 19.9395V21.0321C64.5748 21.4227 64.3903 21.6396 63.9673 21.6396H63.5551Z" fill="white"/>
<path fill-rule="evenodd" clip-rule="evenodd" d="M66.3865 20.2329V23.7915C66.3865 24.93 66.94 25.7769 68.2531 25.7769C69.5662 25.7769 70.1296 24.9309 70.1296 23.7915V20.2329C70.1296 19.0827 69.5554 18.2475 68.2531 18.2475C66.9508 18.2475 66.3865 19.0827 66.3865 20.2329ZM68.8931 20.0376V23.9868C68.8931 24.4314 68.6879 24.7464 68.2532 24.7464C67.8185 24.7464 67.6232 24.4314 67.6232 23.9868V20.0376C67.6232 19.5921 67.8086 19.278 68.2532 19.278C68.6978 19.278 68.8931 19.5921 68.8931 20.0376Z" fill="white"/>
<path d="M73.2977 21.1437L72.6038 25.6905H71.4428L70.4528 18.3339H71.6489L72.224 22.9995H72.2348L72.8531 18.3339H73.862L74.546 22.9995H74.5568L75.1211 18.3339H76.1624L75.2075 25.6905H74.0375L73.3103 21.1437H73.2977Z" fill="white"/>
<path d="M76.5422 18.3339H79.8299V19.3428H78.8102V25.6905H77.5619V19.3428H76.5422V18.3339Z" fill="white"/>
<path d="M82.6398 22.446H81.45V25.686H80.2089V18.3339H81.45V21.4479H82.6434V18.3339H83.8908V25.6905H82.6398V22.446Z" fill="white"/>
</svg>
