<svg width="90" height="90" viewBox="0 0 90 90" fill="none" xmlns="http://www.w3.org/2000/svg">
<rect width="90" height="90" fill="#DDA63A"/>
<path d="M16.83 23.1984H11.8269V22.3416C11.8269 20.9241 12.3354 20.3886 13.1112 19.5588L15.0642 17.4978C16.6437 15.8121 16.992 14.7411 16.992 12.9204V11.1546C16.992 8.559 15.732 7.3269 13.0041 7.3269C10.3284 7.3269 8.96217 8.7453 8.96217 11.2869V13.482H11.7468V11.2068C11.7468 10.1106 12.2814 9.7884 12.9249 9.7884C13.5126 9.7884 14.0211 10.0305 14.0211 11.1546V12.6531C14.0211 14.1525 13.887 14.7411 12.897 15.7842L11.187 17.604C9.52557 19.3716 8.90997 20.5497 8.90997 22.3416V25.6878H16.83V23.1984Z" fill="white"/>
<path d="M37.1808 76.4748V77.7411C37.1783 77.7502 37.1768 77.7596 37.1763 77.769C37.1768 77.779 37.1783 77.789 37.1808 77.7987C37.1941 78.1127 37.4497 78.3621 37.764 78.3675C37.764 78.3675 37.7712 78.3675 37.7757 78.3675H37.7901H52.6401C52.6401 78.3675 52.6482 78.3675 52.6527 78.3675H52.6662C52.9901 78.3612 53.2498 78.0975 53.2512 77.7735C53.2506 77.7721 53.2506 77.7705 53.2512 77.769V76.3326C61.6086 73.593 67.8699 66.8196 69.2469 58.5648C69.2469 58.5468 69.2523 58.5306 69.255 58.5153C69.2599 58.4879 69.2626 58.4603 69.2631 58.4325C69.2633 58.2732 69.2001 58.1204 69.0875 58.0077C68.9749 57.8951 68.8221 57.8319 68.6628 57.8322H21.3426C21.1831 57.8317 21.0299 57.8947 20.9169 58.0074C20.804 58.12 20.7405 58.273 20.7405 58.4325L20.772 58.7025C22.2183 67.0356 28.6506 73.8468 37.1808 76.4748Z" fill="white"/>
<path d="M53.2341 37.638C53.0388 37.9152 48.4641 44.4969 53.3358 49.8186C55.5687 52.2612 55.3752 54.4158 54.738 55.8711H57.861C58.491 53.7228 58.2318 51.0273 55.701 48.2571C52.1136 44.3349 55.7469 39.0348 55.8018 38.9529C56.2302 38.3481 56.0007 37.5687 55.2951 37.2051C54.5895 36.8415 53.6688 37.0368 53.2386 37.638" fill="white"/>
<path d="M45.3249 55.8711H48.4488C49.0788 53.7219 48.8187 51.0273 46.2834 48.2571C42.6942 44.3349 46.3248 39.0366 46.3824 38.9502C46.8081 38.3481 46.5831 37.5696 45.8748 37.2051C45.1665 36.8406 44.2494 37.0359 43.821 37.638C43.6248 37.9143 39.051 44.4969 43.9227 49.8186C46.1556 52.2612 45.9603 54.4167 45.3249 55.8711Z" fill="white"/>
<path d="M34.4061 37.638C34.2081 37.9152 29.6361 44.4969 34.5069 49.8186C36.7407 52.2621 36.5472 54.4167 35.9109 55.8711H39.0339C39.6639 53.7237 39.4047 51.0282 36.8667 48.2571C33.2784 44.3349 36.9117 39.0348 36.9693 38.9511C37.3932 38.3481 37.1673 37.5687 36.459 37.2051C35.7507 36.8415 34.8345 37.0359 34.4061 37.638Z" fill="white"/>
<path d="M26.9154 13.8879H28.7919V14.8968H25.6239V13.8879L27.5661 8.55H25.8192V7.5411H28.8684V8.55L26.9154 13.8879Z" fill="white"/>
<path d="M29.628 7.5411H32.58V8.55H30.8646V10.6551H32.0904V11.6532H30.8646V13.8879H32.58V14.8968H29.628V7.5411Z" fill="white"/>
<path fill-rule="evenodd" clip-rule="evenodd" d="M34.5861 14.8941V11.52L35.7471 14.8968H37.0458L35.8623 11.5551C36.5697 11.394 36.8523 10.926 36.8523 10.134V9.1899C36.8523 8.1594 36.396 7.5411 35.1486 7.5411H33.3486V14.8941H34.5861ZM34.5861 10.8396V8.55H34.9983C35.4213 8.55 35.6058 8.7453 35.6058 9.1467V10.2312C35.6058 10.6218 35.4213 10.8396 34.9983 10.8396H34.5861Z" fill="white"/>
<path fill-rule="evenodd" clip-rule="evenodd" d="M37.6344 9.4392V12.9987C37.6344 14.1381 38.1879 14.9841 39.501 14.9841C40.8141 14.9841 41.3784 14.1381 41.3784 12.9987V9.4392C41.3784 8.289 40.8033 7.4538 39.501 7.4538C38.1987 7.4538 37.6344 8.289 37.6344 9.4392ZM40.14 9.2439V13.194C40.14 13.6386 39.9348 13.9536 39.5001 13.9536C39.0654 13.9536 38.8701 13.6386 38.8701 13.194V9.2439C38.8701 8.7993 39.0555 8.4843 39.5001 8.4843C39.9447 8.4843 40.14 8.7993 40.14 9.2439Z" fill="white"/>
<path d="M28.1241 22.4307H26.9298V25.6707H25.6932V18.3186H26.9298V21.4326H28.1241V18.3186H29.3715V25.6752H28.1241V22.4307Z" fill="white"/>
<path d="M33.7761 18.3186V23.8842C33.7761 25.0236 33.2883 25.7616 32.0292 25.7616C30.7278 25.7616 30.1851 25.0236 30.1851 23.8842V18.3186H31.4217V24.0039C31.4217 24.4377 31.5954 24.7311 32.0292 24.7311C32.463 24.7311 32.6376 24.4377 32.6376 24.0039V18.3186H33.7761Z" fill="white"/>
<path d="M35.6319 21.0528V25.6752H34.5897V18.3186H35.8056L37.1403 22.5396V18.3186H38.1708V25.6752H37.0854L35.6319 21.0528Z" fill="white"/>
<path d="M40.8501 21.7467H42.6087V25.6752H41.7186V24.8724C41.5557 25.425 41.2083 25.7616 40.536 25.7616C39.4722 25.7616 38.9844 24.9156 38.9844 23.7762V20.2176C38.9844 19.0674 39.5379 18.2313 40.8393 18.2313C42.2064 18.2313 42.6087 18.9909 42.6087 20.0763V20.727H41.4801V19.98C41.4801 19.5246 41.3064 19.2645 40.8618 19.2645C40.4172 19.2645 40.221 19.5786 40.221 20.0241V23.9733C40.221 24.4179 40.4055 24.7329 40.8285 24.7329C41.2299 24.7329 41.4369 24.5052 41.4369 24.0273V22.7241H40.8501V21.7467Z" fill="white"/>
<path d="M43.4214 18.3186H46.3734V19.3275H44.6589V21.4326H45.8847V22.4307H44.6589V24.6663H46.3734V25.6752H43.4214V18.3186Z" fill="white"/>
<path fill-rule="evenodd" clip-rule="evenodd" d="M48.3804 25.6752V22.3002L49.5414 25.6752H50.8383L49.6557 22.3326C50.364 22.1715 50.6457 21.7035 50.6457 20.9115V19.9674C50.6457 18.9369 50.1903 18.3186 48.9429 18.3186H47.1429V25.6752H48.3804ZM48.3804 21.6198V19.3302L48.7926 19.3275C49.2201 19.3275 49.4001 19.5228 49.4001 19.9242V21.0123C49.4001 21.4029 49.2156 21.6198 48.7926 21.6198H48.3804Z" fill="white"/>
</svg>
