<svg width="90" height="90" viewBox="0 0 90 90" fill="none" xmlns="http://www.w3.org/2000/svg">
<rect width="90" height="90" fill="#DD1367"/>
<path fill-rule="evenodd" clip-rule="evenodd" d="M31.1636 14.9949L29.9837 11.5668L29.9864 14.9913H28.7264V7.5213H30.5606C31.8287 7.5213 32.2922 8.1495 32.2922 9.1971V10.1592C32.2922 10.9602 32.0051 11.4354 31.2896 11.5992L32.4902 14.9949H31.1636ZM30.4024 8.5464H29.9839V10.8774H30.4024C30.8335 10.8774 31.0207 10.656 31.0207 10.26V9.1539C31.0207 8.7444 30.8335 8.5464 30.4024 8.5464Z" fill="white"/>
<path d="M36.0801 13.9698H34.3377V11.7H35.5833V10.6848H34.3377V8.5464H36.0801V7.5213H33.0804V14.9949H36.0801V13.9698Z" fill="white"/>
<path fill-rule="evenodd" clip-rule="evenodd" d="M36.8632 7.5213H38.8018C40.1464 7.5213 40.6207 8.37 40.6207 9.5283V12.9852C40.6207 14.1318 40.1464 14.9913 38.8018 14.9913H36.8632V7.5213ZM38.6443 13.9698C39.1673 13.9698 39.3644 13.6593 39.3644 13.2093V9.2988C39.3644 8.8578 39.1637 8.55 38.6443 8.55H38.116V13.9698H38.6443Z" fill="white"/>
<path d="M42.705 7.5213H41.445V13.176C41.445 14.3334 41.9958 15.0822 43.3188 15.0822C44.5977 15.0822 45.0936 14.3334 45.0936 13.176V7.5213H43.938V13.2975C43.938 13.7376 43.7625 14.0364 43.3215 14.0364C42.8805 14.0364 42.705 13.7376 42.705 13.2975V7.5213Z" fill="white"/>
<path d="M45.9233 9.45V13.0644C45.9233 14.2218 46.475 15.0813 47.7962 15.0813C49.1174 15.0813 49.5701 14.2884 49.5701 13.2192V11.9304H48.4253V13.3083C48.4253 13.7493 48.2705 14.0346 47.8196 14.0346C47.3687 14.0346 47.1788 13.716 47.1788 13.2642V9.252C47.1788 8.802 47.3669 8.4798 47.8196 8.4798C48.2723 8.4798 48.4253 8.7444 48.4253 9.2079V10.1889H49.5701V9.3078C49.5701 8.2044 49.1858 7.434 47.7962 7.434C46.475 7.434 45.9233 8.2827 45.9233 9.4509" fill="white"/>
<path d="M50.3659 14.994H53.3638V13.9698H51.6232V11.6991H52.8679V10.6848H51.6232V8.5464H53.3638V7.5213H50.3659V14.994Z" fill="white"/>
<path fill-rule="evenodd" clip-rule="evenodd" d="M54.1457 14.9913V7.5213H56.0861C57.4307 7.5213 57.905 8.37 57.905 9.5283V12.9852C57.905 14.1318 57.4307 14.9913 56.0861 14.9913H54.1457ZM56.6487 13.2093V9.2988C56.6487 8.8587 56.4462 8.55 55.9287 8.55H55.3995V13.9698H55.9287C56.4498 13.9698 56.6487 13.6593 56.6487 13.2093Z" fill="white"/>
<rect x="28.727" y="18.2142" width="1.2564" height="7.47269" fill="white"/>
<path d="M34.4384 18.2133H33.3908V22.5018L32.0345 18.2133H30.8006V25.6869H31.8581V20.9916L33.335 25.6869H34.4384V18.2133Z" fill="white"/>
<path d="M38.1422 19.2393V18.2142H35.1452V25.6869H38.1422V24.6609H36.4016V22.3911H37.6463V21.3777H36.4016V19.2393H38.1422Z" fill="white"/>
<path fill-rule="evenodd" clip-rule="evenodd" d="M38.6037 20.142C38.6037 18.9738 39.1779 18.126 40.5 18.126C41.8338 18.126 42.4071 18.972 42.4071 20.142V23.7546C42.4071 24.5709 42.12 25.2108 41.481 25.5186L42.4071 25.6986V26.6373L40.0374 26.1963V25.6896C39.033 25.5114 38.6037 24.7743 38.6037 23.76V20.142ZM40.5001 24.7941C40.9519 24.7941 41.1499 24.4638 41.1499 24.0237V19.9449C41.1499 19.4922 40.9402 19.1727 40.5001 19.1727C40.06 19.1727 39.8602 19.4949 39.8602 19.9449V24.0237C39.8602 24.4638 40.0483 24.7941 40.5001 24.7941Z" fill="white"/>
<path d="M43.1099 18.2142V23.8689C43.1099 25.0263 43.6616 25.7751 44.9846 25.7751C46.2635 25.7751 46.7594 25.0263 46.7594 23.8689V18.2142H45.602V23.9895C45.602 24.4305 45.422 24.7284 44.9846 24.7284C44.5472 24.7284 44.3672 24.4305 44.3672 23.9895V18.2142H43.1099Z" fill="white"/>
<path fill-rule="evenodd" clip-rule="evenodd" d="M47.1662 25.6842L48.5765 18.2142H50.0102L51.4313 25.6842H50.1425L49.9112 24.3162H48.5765L48.3569 25.6842H47.1662ZM49.2381 20.3193L48.7422 23.3181H49.7448L49.2489 20.3193H49.2381Z" fill="white"/>
<path d="M51.9388 18.2142V25.686H54.6946V24.6618H53.1952V18.2142H51.9388Z" fill="white"/>
<rect x="55.2572" y="18.2142" width="1.25639" height="7.47269" fill="white"/>
<path d="M59.3921 25.6869V19.2393H60.4271V18.2142H57.0872V19.2393H58.124V25.6869H59.3921Z" fill="white"/>
<rect x="61.0002" y="18.2142" width="1.25639" height="7.4736" fill="white"/>
<path d="M65.9719 24.6618H64.2304V22.3911H65.476V21.3777H64.2304V19.2393H65.9719V18.2142H62.9731V25.686H65.9719V24.6618Z" fill="white"/>
<path d="M66.4659 23.0751V24.0777C66.4659 25.0596 66.9618 25.7751 68.2407 25.7751C69.5196 25.7751 70.0704 25.047 70.0704 24.0219V23.6619C70.0704 22.8366 69.7392 22.4172 69.057 21.7224L68.2515 20.9286C67.8915 20.5749 67.6566 20.3337 67.6566 19.9152V19.7604C67.6566 19.341 67.8987 19.1439 68.2515 19.1439C68.6493 19.1439 68.8464 19.3518 68.8464 19.782V20.43H69.9939V19.8225C69.9939 18.7425 69.498 18.126 68.2407 18.126C67.0176 18.126 66.4776 18.846 66.4776 19.7676V20.0214C66.4776 20.8809 66.807 21.3111 67.5252 22.0158L68.2623 22.7556C68.6493 23.1156 68.8248 23.3856 68.8248 23.814V24.1002C68.8248 24.4971 68.6448 24.7617 68.2515 24.7617C67.8222 24.7617 67.6341 24.5196 67.6341 24.1002V23.0751H66.4659Z" fill="white"/>
<path d="M8.68337 11.7927V25.6968H11.7371V7.5321H9.29897L6.48647 10.8279V14.0166H6.51257L8.65547 11.7927H8.68337Z" fill="white"/>
<path fill-rule="evenodd" clip-rule="evenodd" d="M22.8826 12.2202V21.0087C22.8826 23.8212 21.4633 25.911 18.3547 25.911C15.2758 25.911 13.8547 23.8212 13.8547 21.0087V12.2202C13.8547 9.3807 15.274 7.3179 18.3547 7.3179C21.4633 7.3179 22.8826 9.3807 22.8826 12.2202ZM16.9075 11.7387V21.4911C16.9075 22.59 17.3089 23.3658 18.3547 23.3658C19.4266 23.3658 19.828 22.59 19.828 21.4911V11.7387C19.828 10.6398 19.4266 9.8631 18.3547 9.8631C17.3089 9.8631 16.9075 10.6398 16.9075 11.7387Z" fill="white"/>
<path d="M53.3069 59.1795H36.6911C36.5861 59.1862 36.5059 59.276 36.5111 59.3811V64.3752C36.5054 64.4806 36.5857 64.571 36.6911 64.5777H53.3069C53.4122 64.571 53.4925 64.4806 53.4869 64.3752V59.3811C53.492 59.276 53.4119 59.1862 53.3069 59.1795Z" fill="white"/>
<path d="M53.3069 48.5532H36.6911C36.5861 48.56 36.506 48.6497 36.5111 48.7548V53.7489C36.505 53.8545 36.5855 53.9451 36.6911 53.9514H53.3069C53.4125 53.9451 53.493 53.8545 53.4869 53.7489V48.7548C53.492 48.6497 53.4119 48.56 53.3069 48.5532Z" fill="white"/>
<path d="M53.0728 41.0049L45.097 33.03C45.0431 32.9769 44.9565 32.9769 44.9026 33.03L36.9268 41.0049C36.8876 41.0443 36.8758 41.1034 36.8971 41.1547C36.9183 41.2061 36.9684 41.2397 37.024 41.2398H52.9756C53.0312 41.2397 53.0813 41.2061 53.1025 41.1547C53.1238 41.1034 53.1121 41.0443 53.0728 41.0049Z" fill="white"/>
<path d="M60.5609 64.6389L68.5367 56.6631C68.5626 56.6373 68.5773 56.6021 68.5773 56.5655C68.5773 56.5288 68.5626 56.4937 68.5367 56.4678L60.5609 48.492C60.5215 48.4528 60.4624 48.441 60.411 48.4623C60.3597 48.4836 60.3261 48.5336 60.326 48.5892V64.5417C60.3261 64.5973 60.3597 64.6474 60.411 64.6686C60.4624 64.6899 60.5215 64.6782 60.5609 64.6389Z" fill="white"/>
<path d="M36.9269 72.1269L44.9027 80.1C44.9284 80.1259 44.9634 80.1405 44.9999 80.1405C45.0364 80.1405 45.0714 80.1259 45.0971 80.1L53.0729 72.1242C53.1128 72.0849 53.1249 72.0254 53.1036 71.9736C53.0823 71.9219 53.0317 71.8882 52.9757 71.8884H37.0241C36.9669 71.887 36.9148 71.9211 36.8932 71.9741C36.8716 72.0271 36.885 72.0879 36.9269 72.1269Z" fill="white"/>
<path d="M29.4389 48.492L21.4631 56.4678C21.4371 56.4937 21.4225 56.5288 21.4225 56.5655C21.4225 56.6021 21.4371 56.6373 21.4631 56.6631L29.4389 64.6389C29.4782 64.6782 29.5373 64.6899 29.5887 64.6686C29.6401 64.6474 29.6736 64.5973 29.6738 64.5417V48.5892C29.6736 48.5336 29.6401 48.4836 29.5887 48.4623C29.5373 48.441 29.4782 48.4528 29.4389 48.492Z" fill="white"/>
</svg>
