<svg width="90" height="90" viewBox="0 0 90 90" fill="none" xmlns="http://www.w3.org/2000/svg">
<rect width="90" height="90" fill="#E5243B"/>
<path d="M26.9217 10.1871V14.8104H25.8795V7.452H27.0936L28.4301 11.6748V7.452H29.4615V14.8104H28.3761L26.9217 10.1871V10.1871Z" fill="white"/>
<path fill-rule="evenodd" clip-rule="evenodd" d="M34.0182 12.9114C34.0182 14.0517 33.4557 14.8986 32.1408 14.8986C30.8385 14.8986 30.2742 14.0517 30.2742 12.9114V9.3519C30.2742 8.1999 30.8259 7.3656 32.1408 7.3656C33.4557 7.3656 34.0182 8.1999 34.0182 9.3519V12.9114ZM32.1408 8.397C31.7061 8.397 31.5108 8.7057 31.5108 9.1557V13.1067C31.5108 13.5522 31.6962 13.8663 32.1408 13.8663C32.5854 13.8663 32.7816 13.5567 32.7816 13.1067V9.1557C32.7816 8.7102 32.5755 8.397 32.1408 8.397Z" fill="white"/>
<path fill-rule="evenodd" clip-rule="evenodd" d="M27.7128 23.1876H27.117V25.6887H25.8795V18.3294H27.7128C28.962 18.3294 29.4174 18.9486 29.4174 19.98V21.5271C29.4174 22.5576 28.962 23.1876 27.7128 23.1876ZM27.5724 19.3347H27.117V22.2327H27.5724C27.9999 22.2327 28.1799 22.0266 28.1799 21.6234V19.9314C28.1799 19.5309 27.9963 19.3347 27.5724 19.3347Z" fill="white"/>
<path fill-rule="evenodd" clip-rule="evenodd" d="M33.9003 23.7852C33.9003 24.9246 33.3369 25.7706 32.022 25.7706C30.7197 25.7706 30.1554 24.9246 30.1554 23.7852V20.2239C30.1554 19.0737 30.7071 18.2385 32.022 18.2385C33.3369 18.2385 33.9003 19.0737 33.9003 20.2239V23.7852ZM32.022 19.2699C31.5864 19.2699 31.392 19.5795 31.392 20.0295V23.9796C31.392 24.4251 31.5765 24.7401 32.022 24.7401C32.4675 24.7401 32.6637 24.4251 32.6637 23.9796V20.0295C32.6637 19.584 32.4576 19.2699 32.022 19.2699Z" fill="white"/>
<path d="M37.0575 25.6842L38.4579 18.3249H37.296L36.4275 23.4585H36.4158L35.5698 18.3249H34.3107L35.7111 25.6842H37.0575V25.6842Z" fill="white"/>
<path d="M42.0282 24.6753H40.3137V22.4379H41.5395V21.4398H40.3137V19.3347H42.0282V18.3249H39.0762V25.6842H42.0282V24.6753V24.6753Z" fill="white"/>
<path fill-rule="evenodd" clip-rule="evenodd" d="M45.1854 25.6842L44.0244 22.3083L44.0289 25.6887H42.7905V18.3294H44.5905C45.8388 18.3294 46.2951 18.9486 46.2951 19.98V20.9187C46.2951 21.7107 46.0107 22.1787 45.3051 22.3407L46.4886 25.6842H45.1854ZM44.4357 19.3383H44.0244V21.6225H44.4357C44.8596 21.6225 45.0441 21.4065 45.0441 21.015V19.935C45.0441 19.5345 44.8596 19.3383 44.4357 19.3383Z" fill="white"/>
<path d="M47.8332 25.6842H49.0815V19.3347H50.1021V18.3249H46.8126V19.3347H47.8332V25.6842V25.6842Z" fill="white"/>
<path d="M51.9561 25.6842H53.1936V22.8843L54.5607 18.3249H53.3781L52.6302 21.114H52.6194L51.8697 18.3249H50.5791L51.9561 22.8843V25.6842V25.6842Z" fill="white"/>
<path d="M12.5658 11.8368H12.5928V25.7274H15.6429V7.5807H13.2066L10.3977 10.8729V14.0571H10.4247L12.5658 11.8368V11.8368Z" fill="white"/>
<path d="M69.3116 42.9381C69.3126 41.5633 70.4275 40.4494 71.8023 40.4496C73.177 40.4498 74.2916 41.5639 74.2923 42.9387C74.2929 44.3135 73.1794 45.4287 71.8047 45.4302C70.4282 45.4302 69.3121 44.3146 69.3116 42.9381" fill="white"/>
<path d="M74.7135 46.3905C76.4229 46.5483 77.7302 47.9831 77.7285 49.6998V56.61C77.7285 57.1433 77.2962 57.5757 76.7628 57.5757C76.2295 57.5757 75.7971 57.1433 75.7971 56.61V50.6745C75.7971 50.4513 75.7332 50.1507 75.3264 50.1507C75.0447 50.1507 74.9862 50.4486 74.9763 50.6385V68.4171C74.9763 69.184 74.3546 69.8058 73.5876 69.8058C72.8207 69.8058 72.1989 69.184 72.1989 68.4171V58.1724C72.1989 58.059 72.1575 57.7656 71.8047 57.7656V57.7656C71.451 57.7656 71.4078 58.059 71.4042 58.1724V68.4171C71.4171 68.9212 71.1555 69.3925 70.7209 69.6484C70.2864 69.9042 69.7473 69.9042 69.3128 69.6484C68.8783 69.3925 68.6167 68.9212 68.6295 68.4171V50.6385C68.6205 50.4486 68.5593 50.1507 68.2803 50.1507C67.8717 50.1507 67.8096 50.4513 67.8096 50.6745V56.61C67.7873 57.1266 67.3619 57.534 66.8448 57.534C66.3277 57.534 65.9023 57.1266 65.88 56.61V49.6998C65.8794 47.9819 67.1887 46.5469 68.8995 46.3905C68.9591 46.3815 69.0192 46.3763 69.0795 46.3752H74.52C74.5836 46.3762 74.647 46.3813 74.7099 46.3905" fill="white"/>
<path d="M54.495 44.2467C54.4947 43.2925 53.9195 42.4326 53.0378 42.0678C52.1561 41.7031 51.1415 41.9055 50.4672 42.5806C49.7929 43.2557 49.5916 44.2705 49.9574 45.1518C50.3231 46.0331 51.1837 46.6072 52.1379 46.6065C53.4403 46.6055 54.4955 45.5491 54.495 44.2467" fill="white"/>
<path d="M47.3832 49.59L45.4221 55.98C45.4221 55.98 45.0729 57.15 46.0656 57.4425C47.0583 57.735 47.3535 56.5929 47.3535 56.5929L48.9348 51.264C48.9348 51.264 49.0248 50.8536 49.329 50.9427C49.6332 51.0318 49.5216 51.4692 49.5216 51.4692L46.7694 61.4592H49.329V68.6115C49.347 69.2773 49.8919 69.8077 50.558 69.8077C51.224 69.8077 51.7689 69.2773 51.7869 68.6115V61.4511H52.4853V68.6034C52.5033 69.2697 53.0486 69.8004 53.7152 69.8004C54.3817 69.8004 54.927 69.2697 54.945 68.6034V61.4511H57.5037L54.7533 51.4611C54.7533 51.4611 54.6372 51.03 54.945 50.94C55.2528 50.85 55.3392 51.2613 55.3392 51.2613L56.9205 56.5902C56.9205 56.5902 57.2211 57.7323 58.2075 57.4398C59.1939 57.1473 58.851 55.98 58.851 55.98L56.8899 49.59C56.8899 49.59 56.1897 47.7441 54.6399 47.7441H49.6377C48.0861 47.7441 47.3877 49.59 47.3877 49.59" fill="white"/>
<path d="M40.3641 44.2467C40.3636 42.9439 39.307 41.8882 38.0043 41.8887C36.7015 41.8892 35.6458 42.9457 35.6463 44.2485C35.6468 45.5513 36.7033 46.607 38.0061 46.6065C39.3086 46.6055 40.3641 45.5493 40.3641 44.2467" fill="white"/>
<path d="M33.2514 49.59L31.2912 55.98C31.2912 55.98 30.9402 57.15 31.9338 57.4425C32.9274 57.735 33.2217 56.5929 33.2217 56.5929L34.803 51.264C34.803 51.264 34.8885 50.8536 35.1972 50.9427C35.5059 51.0318 35.3889 51.4692 35.3889 51.4692L32.6376 61.4592H35.1972V68.6115C35.1972 69.2905 35.7476 69.8409 36.4266 69.8409C37.1055 69.8409 37.656 69.2905 37.656 68.6115V61.4511H38.3544V68.6034C38.3724 69.2692 38.9173 69.7995 39.5833 69.7995C40.2493 69.7995 40.7943 69.2692 40.8123 68.6034V61.4511H43.3728L40.6224 51.4611C40.6224 51.4611 40.5054 51.0228 40.8123 50.9346C41.1192 50.8464 41.2074 51.2559 41.2074 51.2559L42.7878 56.5848C42.7878 56.5848 43.0884 57.7269 44.0757 57.4344C45.063 57.1419 44.7183 55.98 44.7183 55.98L42.7572 49.59C42.7572 49.59 42.0579 47.7441 40.5072 47.7441H35.5059C33.9552 47.7441 33.2514 49.59 33.2514 49.59" fill="white"/>
<path d="M62.4186 57.4515C63.5029 57.4515 64.3821 56.5726 64.3824 55.4883C64.3827 54.404 63.5041 53.5246 62.4198 53.5239C61.3355 53.5232 60.4558 54.4016 60.4548 55.4859C60.4539 56.0072 60.6604 56.5074 61.0288 56.8762C61.3973 57.245 61.8973 57.452 62.4186 57.4515" fill="white"/>
<path d="M57.7107 63.5517C57.6144 63.7812 57.5361 64.2717 57.9969 64.4805C58.5369 64.7289 58.8384 64.2105 58.8384 64.2105L59.9058 60.8058C59.9058 60.8058 60.0912 60.5781 60.0912 60.8139V68.8284H60.0957C60.112 69.3732 60.5583 69.8063 61.1033 69.8063C61.6482 69.8063 62.0945 69.3732 62.1108 68.8284V65.6613C62.1108 65.6613 62.0523 65.2113 62.4132 65.2113C62.7741 65.2113 62.7174 65.6613 62.7174 65.6613V68.8248C62.7174 69.3825 63.1695 69.8346 63.7272 69.8346C64.2849 69.8346 64.737 69.3825 64.737 68.8248V60.8103C64.737 60.5745 64.8612 60.7428 64.8612 60.7428L65.6982 63.0738C65.6982 63.0738 66.0582 64.1151 66.1734 64.161C66.3557 64.237 66.5608 64.2372 66.7433 64.1618C66.9259 64.0863 67.0709 63.9413 67.1463 63.7587C67.2483 63.5215 67.2183 63.2481 67.0671 63.0387L67.0743 63.0315C67.05 62.9559 65.8233 59.9481 65.6793 59.526C65.2365 58.2327 64.4301 58.2444 63.6543 58.2228C62.8785 58.2012 62.4132 58.2228 62.4132 58.2228C62.4132 58.2228 61.9173 58.203 60.8922 58.2327C59.8671 58.2624 59.5422 58.7898 58.4163 61.6941C58.2552 62.1126 57.7107 63.4653 57.7035 63.5463L57.7107 63.5517Z" fill="white"/>
<path d="M16.7994 45.4302C17.8076 45.4313 18.7172 44.8248 19.1038 43.8936C19.4903 42.9625 19.2778 41.8902 18.5653 41.1769C17.8527 40.4636 16.7806 40.2499 15.8491 40.6354C14.9175 41.021 14.31 41.9299 14.31 42.9381C14.3115 44.3128 15.4248 45.4272 16.7994 45.4302Z" fill="white"/>
<path d="M19.7298 46.3779C19.6639 46.3645 19.5971 46.3551 19.53 46.35H14.085C14.0244 46.3548 13.9642 46.3642 13.905 46.3779C12.193 46.5406 10.8865 47.9801 10.89 49.6998V56.61C10.8876 56.9654 11.0819 57.293 11.3949 57.4614C11.3806 57.4882 11.3698 57.5166 11.3625 57.546L9.14851 69.273C9.12905 69.3681 9.14885 69.4671 9.20342 69.5474C9.25799 69.6278 9.34269 69.6826 9.43831 69.6996C9.46054 69.7039 9.48316 69.706 9.50581 69.7059C9.68205 69.7067 9.83361 69.5813 9.86581 69.408L12.078 57.681C12.0822 57.6353 12.0776 57.5891 12.0645 57.5451C12.4895 57.4347 12.7846 57.049 12.78 56.61V50.6745C12.78 50.4513 12.8385 50.1507 13.2453 50.1507C13.5261 50.1507 13.59 50.4486 13.59 50.6385V68.4171C13.59 69.1875 14.2146 69.8121 14.985 69.8121C15.7554 69.8121 16.38 69.1875 16.38 68.4171V58.1724C16.3781 58.063 16.4226 57.9578 16.5025 57.883C16.5825 57.8083 16.6903 57.7708 16.7994 57.78V57.78C17.1531 57.78 17.1891 58.059 17.1891 58.1724V68.4171C17.1891 69.1875 17.8137 69.8121 18.5841 69.8121C19.3545 69.8121 19.9791 69.1875 19.9791 68.4171V50.6385C19.9791 50.4486 20.0457 50.1507 20.3238 50.1507C20.7333 50.1507 20.7891 50.4513 20.7891 50.6745V56.61C20.7891 57.1568 21.2323 57.6 21.7791 57.6C22.3259 57.6 22.7691 57.1568 22.7691 56.61V49.6998C22.7609 47.9757 21.4464 46.5389 19.7298 46.3779V46.3779Z" fill="white"/>
<path d="M29.3544 60.6969L31.1769 57.3894C31.1769 57.3894 31.3965 56.9142 31.3965 56.8008C31.3914 56.4837 31.1794 56.2074 30.8746 56.1202C30.5697 56.033 30.2437 56.1555 30.0717 56.4219H30.0636C30.006 56.4714 29.0889 58.0986 28.7865 58.4019C28.467 58.725 28.1799 58.6845 28.1799 58.6845H25.8003C25.8003 58.6845 25.5123 58.725 25.1937 58.4019C24.8877 58.0995 23.9751 56.4696 23.9166 56.4219L23.9103 56.4273C23.7376 56.1659 23.4156 56.0462 23.114 56.1313C22.8125 56.2164 22.6006 56.4867 22.59 56.7999C22.6003 56.9071 22.6238 57.0126 22.6602 57.114L24.6357 60.6969C24.7034 60.8458 24.7428 61.006 24.7518 61.1694V61.875L23.715 65.7H24.75V68.85H24.7635C24.7689 69.3899 25.2082 69.8247 25.7481 69.8247C26.2847 69.8297 26.7241 69.3992 26.73 68.8626V65.8269C26.7012 65.7913 26.6888 65.7452 26.6958 65.7H27.2808C27.2862 65.7426 27.2825 65.7858 27.27 65.8269V68.8626C27.27 69.4094 27.7132 69.8526 28.26 69.8526C28.8068 69.8526 29.25 69.4094 29.25 68.8626V65.7H30.2661L29.25 61.8525V61.1694C29.2578 61.0071 29.2931 60.8473 29.3544 60.6969V60.6969Z" fill="white"/>
<path d="M26.9892 57.4515C28.0737 57.452 28.9532 56.5734 28.9539 55.4889C28.9546 54.4044 28.0761 53.5247 26.9916 53.5239C25.9071 53.5231 25.0273 54.4014 25.0263 55.4859C25.0253 56.007 25.2317 56.5071 25.6 56.8759C25.9682 57.2446 26.4681 57.4517 26.9892 57.4515Z" fill="white"/>
</svg>
