<svg width="90" height="90" viewBox="0 0 90 90" fill="none" xmlns="http://www.w3.org/2000/svg">
<rect width="90" height="90" fill="#FF3A21"/>
<path d="M27.2493 14.9769C27.9234 14.9769 28.2708 14.6403 28.4328 14.0877V14.8896H29.322V10.9611H27.5652V11.9376H28.1511V13.2408C28.1511 13.7178 27.9441 13.9455 27.5427 13.9455C27.1197 13.9455 26.9352 13.6305 26.9352 13.1859V9.234C26.9352 8.7912 27.1305 8.4753 27.576 8.4753C28.0215 8.4753 28.1943 8.7354 28.1943 9.1953V9.9441H29.322V9.2925C29.322 8.2071 28.9206 7.4466 27.5544 7.4466C26.2521 7.4466 25.6995 8.2827 25.6995 9.4329V12.9933C25.6995 14.1327 26.1864 14.9796 27.2493 14.9796" fill="white"/>
<path d="M33.0867 13.8807H31.3731V11.6442H32.5998V10.6452H31.3731V8.541H33.0867V7.5303H30.1365V14.8905H33.0867V13.8807Z" fill="white"/>
<path d="M34.9002 10.2663L36.3528 14.8905H37.4382V7.5303H36.4086V11.7531L35.073 7.5303H33.8589V14.8905H34.9002V10.2663Z" fill="white"/>
<path fill-rule="evenodd" clip-rule="evenodd" d="M41.9517 9.5067V12.9141L41.9481 12.9069C41.9481 14.04 41.4819 14.8869 40.158 14.8869H38.25V7.5267H40.1616C41.4855 7.5267 41.9517 8.3673 41.9517 9.5067ZM39.4866 8.5401V13.8735L40.0077 13.8807C40.5171 13.8807 40.7115 13.5765 40.7115 13.1319V9.27811C40.7115 8.84431 40.5171 8.5401 40.0077 8.5401H39.4866Z" fill="white"/>
<path d="M45.7173 13.8807H44.0046V11.6442H45.2304V10.6452H44.0046V8.541H45.7173V7.5303H42.7671V14.8905H45.7173V13.8807Z" fill="white"/>
<path fill-rule="evenodd" clip-rule="evenodd" d="M48.87 14.8905L47.7153 11.5137L47.7189 14.8896H46.4814V7.5294H48.2814C49.5289 7.5294 49.9843 8.1486 49.9843 9.18V10.125C49.9843 10.917 49.699 11.3841 48.9942 11.547L50.1724 14.8905H48.87ZM48.1257 8.5437H47.7153V10.8279H48.1257C48.5532 10.8279 48.7332 10.6119 48.7332 10.2195V9.1395C48.7332 8.7381 48.5496 8.5437 48.1257 8.5437Z" fill="white"/>
<path d="M28.6497 24.6699H26.9361V22.4343H28.1619V21.4362H26.9361V19.3302H28.6497V18.3204H25.6995V25.6797H28.6497V24.6699Z" fill="white"/>
<path fill-rule="evenodd" clip-rule="evenodd" d="M30.8214 26.1792V25.6788C29.8341 25.506 29.4111 24.7788 29.4111 23.7798V20.2194C29.4111 19.0692 29.9628 18.2331 31.2759 18.2331C32.589 18.2331 33.1524 19.0692 33.1524 20.2194V23.7798C33.1524 24.5835 32.8716 25.2126 32.2416 25.5159L33.1524 25.6905V26.613L30.8214 26.1792ZM31.2767 19.2645C30.842 19.2645 30.6467 19.5804 30.6467 20.025V24.0417C30.6467 24.4755 30.8312 24.8004 31.2767 24.8004C31.7222 24.8004 31.9166 24.4755 31.9166 24.0417V20.025C31.9166 19.5804 31.7114 19.2645 31.2767 19.2645Z" fill="white"/>
<path d="M33.9561 18.3204V23.8887C33.9561 25.0281 34.4961 25.7661 35.8002 25.7661C37.0602 25.7661 37.5471 25.0281 37.5471 23.8887V18.3204H36.4086V24.0075C36.4086 24.4422 36.2349 24.7347 35.8002 24.7347C35.3655 24.7347 35.1927 24.4422 35.1927 24.0075V18.3204H33.9561Z" fill="white"/>
<path fill-rule="evenodd" clip-rule="evenodd" d="M40.86 24.3333H39.5442L39.33 25.6797H38.16L39.5442 18.324H40.9572L42.3567 25.6833H41.0877L40.86 24.3333ZM40.2066 20.394H40.194L39.7034 23.346H40.6935L40.2066 20.394Z" fill="white"/>
<path d="M42.9624 18.3204V25.6797H45.6741V24.6708H44.1999V18.3204H42.9624Z" fill="white"/>
<rect x="46.3365" y="18.3204" width="1.2375" height="7.35929" fill="white"/>
<path d="M50.5135 25.6797V19.3302H51.5323V18.3213H48.2473V19.3302H49.2661V25.6797H50.5135Z" fill="white"/>
<path d="M53.3771 25.6797H54.6146V22.8798L55.9799 18.3213H54.7991L54.0503 21.1095H54.0395L53.2916 18.3213H52.0001L53.3771 22.8798V25.6797Z" fill="white"/>
<path d="M14.3496 13.2876C13.1454 13.2876 12.2625 13.7151 11.7801 14.5476H11.7531V10.0224H16.9992V7.533H8.97121V17.7579H11.7531V17.3547C11.7531 16.2846 12.2355 15.6951 13.0914 15.6951C14.0283 15.6951 14.4045 16.3386 14.4045 17.3295V21.7188C14.4045 22.6827 14.0553 23.3505 13.1184 23.3505C12.0744 23.3505 11.7009 22.6548 11.7009 21.5856V19.3095H8.91541V21.3705C8.91541 24.1272 10.0134 25.8939 13.1184 25.8939C16.1964 25.8939 17.4537 24.2613 17.4537 21.7449V17.3025C17.4537 14.4387 15.9822 13.2876 14.3496 13.2876Z" fill="white"/>
<path fill-rule="evenodd" clip-rule="evenodd" d="M54.3663 34.0542H65.5515V34.0569C65.5896 34.0567 65.6264 34.0716 65.6535 34.0984C65.6807 34.1253 65.6961 34.1618 65.6964 34.2V45.3798C65.6954 45.459 65.6306 45.5225 65.5515 45.522H61.8354C61.7562 45.5225 61.6914 45.459 61.6905 45.3798V41.22L56.8143 46.0989C58.5575 48.5625 59.4925 51.5067 59.49 54.5247C59.49 61.7931 54.1701 67.8384 47.2194 68.9787V73.3311H51.6294C51.6668 73.3311 51.7028 73.346 51.7293 73.3725C51.7558 73.399 51.7707 73.4349 51.7707 73.4724V77.4567C51.7709 77.4943 51.7561 77.5305 51.7296 77.5572C51.7031 77.5839 51.667 77.5989 51.6294 77.5989H47.2194V81.81C47.2191 81.8479 47.2038 81.8842 47.1768 81.9109C47.1498 81.9376 47.1133 81.9524 47.0754 81.9522H43.0938C43.056 81.9524 43.0197 81.9375 42.9929 81.9108C42.9662 81.8841 42.9513 81.8478 42.9516 81.81V77.6025H38.5416C38.5035 77.6032 38.4667 77.5885 38.4396 77.5618C38.4125 77.535 38.3973 77.4984 38.3976 77.4603V73.476C38.3976 73.438 38.4128 73.4017 38.4399 73.3751C38.467 73.3485 38.5036 73.334 38.5416 73.3347H42.9516V69.0516C35.7642 68.1183 30.1923 61.9659 30.1923 54.5283C30.1923 46.4481 36.765 39.8781 44.8425 39.8781C48.1191 39.8758 51.3008 40.9779 53.874 43.0065L58.8195 38.0565H54.3663C54.2876 38.056 54.2241 37.9921 54.2241 37.9134V34.1973C54.2245 34.1188 54.2878 34.0552 54.3663 34.0542ZM34.0586 54.5247C34.0586 60.4804 38.8867 65.3085 44.8424 65.3085C50.7957 65.3025 55.6203 60.478 55.6262 54.5247C55.6262 48.569 50.7982 43.7409 44.8424 43.7409C38.8867 43.7409 34.0586 48.569 34.0586 54.5247Z" fill="white"/>
<path d="M51.5384 50.0985H38.4587C38.3845 50.0954 38.3214 50.1521 38.3165 50.2263V53.3925C38.3179 53.4286 38.3338 53.4627 38.3605 53.4871C38.3872 53.5114 38.4226 53.5241 38.4587 53.5221H51.5384C51.5749 53.5246 51.6109 53.5122 51.6382 53.4878C51.6654 53.4634 51.6817 53.429 51.6833 53.3925V50.2263C51.678 50.1513 51.6135 50.0944 51.5384 50.0985Z" fill="white"/>
<path d="M51.5384 55.7523H38.4587C38.3832 55.7503 38.32 55.8091 38.3165 55.8846V59.0508C38.3184 59.0866 38.3344 59.1202 38.3611 59.1442C38.3878 59.1682 38.4229 59.1806 38.4587 59.1786H51.5384C51.5746 59.1811 51.6103 59.1689 51.6375 59.1449C51.6648 59.1209 51.6812 59.087 51.6833 59.0508V55.8846C51.6794 55.8082 51.6148 55.7492 51.5384 55.7523Z" fill="white"/>
</svg>
