<svg width="90" height="90" viewBox="0 0 90 90" fill="none" xmlns="http://www.w3.org/2000/svg">
<rect width="90" height="90" fill="#BF8B2E"/>
<path d="M8.98377 11.8242H9.01167V25.7157H12.0627V7.5681H9.62457L6.81567 10.8612V14.0454H6.84177L8.98377 11.8242Z" fill="white"/>
<path d="M13.8817 11.3166V13.5099H16.6645V11.2347C16.6645 10.1385 17.2045 9.8172 17.8426 9.8172C18.4321 9.8172 18.9397 10.0575 18.9397 11.1825V12.6801C18.9397 14.1804 18.8065 14.7681 17.8147 15.8121L16.1047 17.6328C14.446 19.3995 13.8286 20.5767 13.8286 22.3704V25.7166H21.7486V23.2263H16.7446V22.3704C16.7446 20.9511 17.2531 20.4165 18.0289 19.5867L19.9801 17.5257C21.5596 15.84 21.9079 14.7681 21.9079 12.9483V11.1825C21.9079 8.5851 20.6479 7.3548 17.9191 7.3548C15.2425 7.3548 13.8781 8.77321 13.8781 11.3148" fill="white"/>
<path d="M70.0693 48.2112C66.3991 45.3123 61.9981 45 60.2764 45C59.3683 45 58.5277 45.081 57.9121 45.2277L57.6709 45.2835C55.3462 45.8325 51.4555 46.7514 46.9258 52.3728L46.7926 52.5375C46.7203 52.6363 46.6807 52.7553 46.6792 52.8777C46.6796 52.9823 46.7072 53.0849 46.7593 53.1756L46.8619 53.3439C47.6095 54.5949 48.2305 55.6812 48.7249 56.6028C48.8139 56.7757 48.9813 56.8946 49.1739 56.9216C49.3665 56.9487 49.5602 56.8804 49.6933 56.7387C49.7248 56.6973 49.7572 56.6532 49.7833 56.6199C53.6911 51.21 56.7565 50.49 58.7851 50.0103L59.0398 49.95C59.449 49.8714 59.8652 49.8361 60.2818 49.8447C61.225 49.8447 64.5037 50.0013 67.0615 52.0209C69.3376 53.8209 70.4914 56.6865 70.4914 60.5484C70.4914 67.0212 67.3603 69.5484 64.7314 70.524C63.7035 70.9032 62.6158 71.0947 61.5202 71.0892C59.8525 71.0806 58.207 70.7061 56.6998 69.9921L56.5117 69.9021C54.2518 68.9211 50.8777 66.8754 47.6872 60.4692C41.1478 47.3292 35.6542 46.089 32.0164 45.2655L31.8256 45.2232C31.5466 45.1593 30.76 45.0126 29.4856 45.0126C27.3796 45.0126 23.3278 45.4266 19.8556 48.1986C17.485 50.0886 14.6572 53.7633 14.6572 60.5286C14.6572 64.6479 15.5059 67.3686 17.6812 70.2297C18.0898 70.7877 21.8797 75.6819 29.1562 75.6819C30.2716 75.6782 31.3841 75.5691 32.479 75.3561C33.8074 75.1023 35.8576 74.4453 38.149 72.7659L40.0615 74.4921C40.2901 74.6848 40.6284 74.6691 40.8382 74.4561C40.93 74.3591 40.9795 74.2296 40.9759 74.0961L42.4555 64.9809V64.8747C42.4542 64.7227 42.3888 64.5783 42.2755 64.4769C42.1716 64.3807 42.0336 64.3299 41.8921 64.3356L33.0127 66.78L32.8435 66.8079C32.7345 66.8304 32.6357 66.8876 32.5618 66.9708C32.4625 67.0789 32.4106 67.2222 32.4177 67.3689C32.4248 67.5155 32.4903 67.6531 32.5996 67.7511L34.4383 69.4143C33.4717 70.0074 32.5051 70.4043 31.5655 70.5843C30.7897 70.7349 30.0014 70.812 29.2111 70.8147C24.1828 70.8147 21.7087 67.5144 21.607 67.3749L21.5575 67.3065C20.0275 65.2968 19.5109 63.5859 19.5109 60.5259C19.5109 56.6505 20.6449 53.7759 22.8814 51.9939C25.3699 50.0085 28.5721 49.8537 29.4955 49.8537C29.918 49.8461 30.3401 49.8814 30.7555 49.959L30.9517 50.0031C33.8551 50.661 37.8313 51.561 43.3447 62.6346C46.2562 68.4846 49.9075 72.3042 54.4966 74.3202C55.0303 74.5902 57.877 75.9501 61.5256 75.9501C63.1995 75.9555 64.8608 75.6608 66.4306 75.0798C69.1108 74.0799 75.3478 70.6608 75.3478 60.552C75.3451 53.7948 72.4759 50.112 70.0693 48.2112Z" fill="white"/>
<path fill-rule="evenodd" clip-rule="evenodd" d="M29.9557 14.8851V11.511L31.1167 14.8869H32.4127L31.2301 11.5452C31.9375 11.3841 32.2201 10.9161 32.2201 10.1241V9.18C32.2201 8.1468 31.7701 7.5285 30.5191 7.5285H28.7191V14.8851H29.9557ZM29.9556 10.827V8.541L30.3678 8.5428C30.7917 8.5428 30.9762 8.7381 30.9762 9.13951V10.2195C30.9762 10.6101 30.7917 10.827 30.3678 10.827H29.9556Z" fill="white"/>
<path d="M32.8852 7.5285H35.8363V8.5383H34.1263V10.6425H35.3521V11.6415H34.1227V13.8762H35.8327V14.8851H32.8852V7.5285Z" fill="white"/>
<path d="M36.4223 13.3011V12.3111H37.5725V13.32C37.5725 13.7322 37.7525 13.9716 38.18 13.9716C38.5706 13.9716 38.7443 13.7106 38.7443 13.32V13.041C38.7443 12.618 38.5706 12.357 38.1908 11.9988L37.4645 11.2725C36.7589 10.5777 36.4331 10.1547 36.4331 9.3078V9.0585C36.4331 8.1468 36.965 7.4385 38.1692 7.4385C39.4067 7.4385 39.8945 8.046 39.8945 9.1089V9.7065H38.7659V9.0657C38.7659 8.6427 38.5706 8.4357 38.18 8.4357C37.8335 8.4357 37.5941 8.631 37.5941 9.0432V9.1953C37.5941 9.6075 37.8218 9.846 38.18 10.1934L38.9702 10.98C39.6434 11.664 39.9692 12.0762 39.9692 12.8898V13.2498C39.9692 14.2587 39.4292 14.9751 38.1692 14.9751C36.9092 14.9751 36.4223 14.2668 36.4223 13.3011Z" fill="white"/>
<path fill-rule="evenodd" clip-rule="evenodd" d="M42.4236 7.5285H40.5903V14.8851H41.8269V12.3894H42.4236C43.671 12.3894 44.1273 11.7603 44.1273 10.7298V9.1782C44.1273 8.1468 43.671 7.5285 42.4236 7.5285ZM41.8267 11.4345V8.5383H42.2821C42.7051 8.5383 42.8896 8.7336 42.8896 9.135V10.827C42.8896 11.2284 42.7051 11.4345 42.2821 11.4345H41.8267Z" fill="white"/>
<path fill-rule="evenodd" clip-rule="evenodd" d="M44.7555 9.4275V12.9861C44.7555 14.13 45.3081 14.9724 46.6212 14.9724C47.9343 14.9724 48.4986 14.1255 48.4986 12.9861V9.4275C48.4986 8.2773 47.9226 7.4421 46.6212 7.4421C45.3198 7.4421 44.7555 8.2773 44.7555 9.4275ZM47.2622 9.2322V13.1814C47.2622 13.6269 47.0561 13.941 46.6214 13.941C46.1867 13.941 45.9914 13.6269 45.9914 13.1814V9.2322C45.9914 8.7876 46.1759 8.4726 46.6214 8.4726C47.0669 8.4726 47.2622 8.7876 47.2622 9.2322Z" fill="white"/>
<path d="M50.2344 10.26V14.8824H49.1931V7.5285H50.4081L51.7428 11.7495V7.5285H52.7733V14.8851H51.6879L50.2344 10.26Z" fill="white"/>
<path d="M53.4132 13.3011V12.3111H54.5634V13.32C54.5634 13.7322 54.7434 13.9716 55.1709 13.9716C55.5615 13.9716 55.7352 13.7106 55.7352 13.32V13.041C55.7352 12.618 55.5615 12.357 55.1817 11.9988L54.4545 11.2725C53.7498 10.5777 53.424 10.1547 53.424 9.3078V9.0585C53.424 8.1468 53.9559 7.4385 55.1601 7.4385C56.3967 7.4385 56.8854 8.046 56.8854 9.1089V9.7065H55.7568V9.0657C55.7568 8.6427 55.5615 8.4357 55.1709 8.4357C54.8235 8.4357 54.585 8.631 54.585 9.0432V9.1953C54.585 9.6075 54.8127 9.846 55.1709 10.1934L55.9629 10.9746C56.6361 11.6586 56.961 12.0708 56.961 12.8844V13.2444C56.961 14.2533 56.421 14.9697 55.161 14.9697C53.901 14.9697 53.4132 14.2668 53.4132 13.3011Z" fill="white"/>
<path d="M57.5793 7.5285H58.8168V14.8851H57.5793V7.5285Z" fill="white"/>
<path fill-rule="evenodd" clip-rule="evenodd" d="M59.5216 7.5285H61.3126C62.5492 7.5285 62.9614 8.1036 62.9614 9.1485V9.8973C62.9614 10.5156 62.7337 10.9062 62.2234 11.0673C62.8417 11.2077 63.1459 11.6199 63.1459 12.2931V13.2696C63.1459 14.3109 62.6797 14.8896 61.4422 14.8896H59.5216V7.5285ZM60.759 10.6317H61.1928C61.5941 10.6317 61.7786 10.4256 61.7786 10.035V9.135C61.7786 8.7336 61.5986 8.5383 61.182 8.5383H60.759V10.6317ZM60.759 13.8762V11.5758H61.2882C61.7274 11.5758 61.9074 11.7819 61.9074 12.1725V13.2795C61.9074 13.6701 61.7121 13.8762 61.299 13.8762H60.759Z" fill="white"/>
<path d="M63.7536 7.5285H64.9902V13.8762H66.4662V14.8851H63.7536V7.5285Z" fill="white"/>
<path d="M67.0197 7.5285H69.9708V8.5383H68.2563V10.6425H69.4803V11.6415H68.2563V13.8762H69.9708V14.8851H67.0197V7.5285Z" fill="white"/>
<path d="M28.7191 23.7879V20.2293C28.7191 19.0791 29.2591 18.2439 30.5632 18.2439C31.9303 18.2439 32.3101 19.0035 32.3101 20.088V20.9565H31.1824V19.9908C31.1824 19.5345 31.0303 19.2708 30.5848 19.2708C30.1393 19.2708 29.9548 19.5858 29.9548 20.0304V23.9796C29.9548 24.4242 30.1393 24.7392 30.5848 24.7392C31.0303 24.7392 31.1824 24.4575 31.1824 24.0192V22.6701H32.3101V23.94C32.3101 24.9921 31.8763 25.7733 30.5632 25.7733C29.2501 25.7733 28.7191 24.93 28.7191 23.7879Z" fill="white"/>
<path fill-rule="evenodd" clip-rule="evenodd" d="M33.0913 20.2293V23.7879C33.0913 24.93 33.6448 25.7733 34.9579 25.7733C36.271 25.7733 36.8353 24.9273 36.8353 23.7879V20.2293C36.8353 19.0791 36.2602 18.2439 34.9579 18.2439C33.6556 18.2439 33.0913 19.0791 33.0913 20.2293ZM35.5976 20.034V23.9832C35.5976 24.4278 35.3924 24.7428 34.9577 24.7428C34.523 24.7428 34.3277 24.4278 34.3277 23.9832V20.034C34.3277 19.5894 34.5131 19.2744 34.9577 19.2744C35.4023 19.2744 35.5976 19.5894 35.5976 20.034Z" fill="white"/>
<path d="M38.6901 21.0645V25.6869H37.6479V18.3303H38.8638L40.1985 22.5513V18.3303H41.229V25.6869H40.14L38.6901 21.0645Z" fill="white"/>
<path d="M41.9778 24.1029V23.1129H43.128V24.1218C43.128 24.534 43.308 24.7725 43.7355 24.7725C44.1261 24.7725 44.2998 24.5124 44.2998 24.1218V23.8392C44.2998 23.4162 44.1261 23.1561 43.7463 22.7979L43.02 22.0734C42.3144 21.3795 41.9895 20.9565 41.9895 20.1096V19.8603C41.9895 18.9486 42.5205 18.2403 43.7256 18.2403C44.9622 18.2403 45.4509 18.8478 45.4509 19.9107V20.5074H44.3214V19.8675C44.3214 19.4445 44.1261 19.2375 43.7355 19.2375C43.3881 19.2375 43.1496 19.4328 43.1496 19.845V19.9971C43.1496 20.4093 43.3773 20.6478 43.7355 20.9952L44.5275 21.7764C45.1998 22.4595 45.5256 22.8717 45.5256 23.6862V24.0462C45.5256 25.0551 44.9856 25.7706 43.7256 25.7706C42.4656 25.7706 41.9778 25.0686 41.9778 24.1029Z" fill="white"/>
<path d="M49.8763 18.3303V23.8968C49.8763 25.0362 49.3885 25.7733 48.1294 25.7733C46.8271 25.7733 46.2853 25.0362 46.2853 23.8968V18.3303H47.5201V24.0156C47.5201 24.4503 47.6938 24.7428 48.1276 24.7428C48.5614 24.7428 48.7351 24.4503 48.7351 24.0156V18.3303H49.8763Z" fill="white"/>
<path d="M54.0974 20.9124H54.065L53.2289 25.6869H52.6502L51.7322 20.9124H51.7097V25.6869H50.69V18.3303H52.13L52.9328 22.4748H52.9436L53.6636 18.3303H55.2269V25.6869H54.0974V20.9124Z" fill="white"/>
<path fill-rule="evenodd" clip-rule="evenodd" d="M57.8701 18.3303H56.0394V25.6869H57.276V23.1912H57.8701C59.1175 23.1912 59.5738 22.5621 59.5738 21.5316V19.98C59.5738 18.9486 59.1175 18.3303 57.8701 18.3303ZM57.2759 22.2363V19.3392H57.7313C58.1588 19.3392 58.3388 19.5345 58.3388 19.9359V21.6288C58.3388 22.0302 58.1552 22.2363 57.7313 22.2363H57.2759Z" fill="white"/>
<path d="M59.978 18.3303H63.2702V19.3392H62.2451V25.6869H60.9977V19.3392H59.978V18.3303Z" fill="white"/>
<path d="M63.8516 18.3303H65.0882V25.6869H63.8516V18.3303Z" fill="white"/>
<path fill-rule="evenodd" clip-rule="evenodd" d="M65.8035 20.2293V23.7879C65.8035 24.93 66.357 25.7733 67.6701 25.7733C68.9832 25.7733 69.5475 24.9273 69.5475 23.7879V20.2293C69.5475 19.0791 68.9724 18.2439 67.6701 18.2439C66.3678 18.2439 65.8035 19.0791 65.8035 20.2293ZM68.3099 20.034V23.9832C68.3099 24.4278 68.1047 24.7428 67.67 24.7428C67.2353 24.7428 67.04 24.4278 67.04 23.9832V20.034C67.04 19.5894 67.2254 19.2744 67.67 19.2744C68.1146 19.2744 68.3099 19.5894 68.3099 20.034Z" fill="white"/>
<path d="M71.3053 21.0645V25.6869H70.2631V18.3303H71.4781L72.8101 22.5513V18.3303H73.8415V25.6869H72.7588L71.3053 21.0645Z" fill="white"/>
<path fill-rule="evenodd" clip-rule="evenodd" d="M29.9124 29.133L28.5237 36.4896H29.7L29.9124 35.1441H31.23L31.4532 36.4896H32.7204L31.32 29.133H29.9124ZM31.0655 34.1568H30.0755L30.566 31.2048H30.5768L31.0655 34.1568Z" fill="white"/>
<path d="M34.3061 31.8672V36.4896H33.2648V29.133H34.4798L35.8145 33.3531V29.133H36.8459V36.4896H35.7605L34.3061 31.8672Z" fill="white"/>
<path fill-rule="evenodd" clip-rule="evenodd" d="M41.2828 34.5141V31.1076C41.2828 29.97 40.8166 29.133 39.4927 29.133H37.5829V36.4896H39.4927C40.8166 36.4896 41.2828 35.6427 41.2828 34.5141ZM40.0461 34.731C40.0461 35.1765 39.8508 35.4798 39.3405 35.4798H38.8194V30.1419H39.3405C39.8508 30.1419 40.0461 30.4452 40.0461 30.8799V34.731Z" fill="white"/>
<path fill-rule="evenodd" clip-rule="evenodd" d="M45.0261 29.133H43.1928V36.4896H44.4294V33.9939H45.0261C46.2744 33.9939 46.7298 33.3639 46.7298 32.3334V30.7818C46.7298 29.7513 46.2744 29.133 45.0261 29.133ZM44.4292 33.039V30.1419H44.8846C45.3085 30.1419 45.493 30.3372 45.493 30.7386V32.4315C45.493 32.8329 45.3085 33.039 44.8846 33.039H44.4292Z" fill="white"/>
<path fill-rule="evenodd" clip-rule="evenodd" d="M48.6394 36.4896V33.1146L49.8004 36.4896H51.0973L49.9147 33.147C50.623 32.9859 50.9047 32.5179 50.9047 31.7259V30.7818C50.9047 29.7513 50.4493 29.133 49.2019 29.133H47.4019V36.4896H48.6394ZM48.6393 32.4342V30.1446L49.0497 30.1491C49.4772 30.1491 49.6572 30.3444 49.6572 30.7458V31.8258C49.6572 32.2173 49.4727 32.4342 49.0497 32.4342H48.6393Z" fill="white"/>
<path fill-rule="evenodd" clip-rule="evenodd" d="M51.6124 31.0311V34.5906C51.6124 35.73 52.165 36.576 53.4781 36.576C54.7912 36.576 55.3555 35.73 55.3555 34.5906V31.0311C55.3555 29.8809 54.7795 29.0457 53.4781 29.0457C52.1767 29.0457 51.6124 29.8809 51.6124 31.0311ZM54.1191 30.8358V34.7859C54.1191 35.2305 53.913 35.5455 53.4783 35.5455C53.0436 35.5455 52.8483 35.2305 52.8483 34.7859V30.8358C52.8483 30.3912 53.0328 30.0762 53.4783 30.0762C53.9238 30.0762 54.1191 30.3912 54.1191 30.8358Z" fill="white"/>
<path fill-rule="evenodd" clip-rule="evenodd" d="M59.7933 34.5141V31.1076C59.7933 29.97 59.3262 29.133 58.0032 29.133H56.0934V36.4896H58.0032C59.3262 36.4896 59.7933 35.6427 59.7933 34.5141ZM58.5557 34.731C58.5557 35.1765 58.3613 35.4798 57.851 35.4798H57.3299V30.1419H57.851C58.3613 30.1419 58.5557 30.4452 58.5557 30.8799V34.731Z" fill="white"/>
<path d="M64.1224 29.133V34.6986C64.1224 35.838 63.6337 36.576 62.3755 36.576C61.0732 36.576 60.5305 35.838 60.5305 34.6986V29.133H61.768V34.8183C61.768 35.2521 61.9417 35.5455 62.3755 35.5455C62.8093 35.5455 62.983 35.2521 62.983 34.8183V29.133H64.1224Z" fill="white"/>
<path d="M64.8605 34.5906V31.0311C64.8605 29.8809 65.4005 29.0457 66.7046 29.0457C68.0717 29.0457 68.4515 29.8053 68.4515 30.8907V31.7583H67.3202V30.7926C67.3202 30.3372 67.169 30.0726 66.7235 30.0726C66.278 30.0726 66.0935 30.3876 66.0935 30.8322V34.7823C66.0935 35.2269 66.278 35.5419 66.7235 35.5419C67.169 35.5419 67.3202 35.2593 67.3202 34.8219V33.4728H68.4488V34.74C68.4488 35.7921 68.015 36.5733 66.7019 36.5733C65.3888 36.5733 64.8605 35.73 64.8605 34.5906Z" fill="white"/>
<path d="M69.0156 29.133H72.3033V30.1419H71.28V36.4896H70.0353V30.1419H69.0156V29.133Z" fill="white"/>
<path d="M72.8892 29.133H74.1258V36.4896H72.8892V29.133Z" fill="white"/>
<path fill-rule="evenodd" clip-rule="evenodd" d="M74.8421 31.0311V34.5906C74.8421 35.73 75.3947 36.576 76.7078 36.576C78.0209 36.576 78.5852 35.73 78.5852 34.5906V31.0311C78.5852 29.8809 78.0101 29.0457 76.7078 29.0457C75.4055 29.0457 74.8421 29.8809 74.8421 31.0311ZM77.3479 30.8358V34.7859C77.3479 35.2305 77.1427 35.5455 76.708 35.5455C76.2733 35.5455 76.078 35.2305 76.078 34.7859V30.8358C76.078 30.3912 76.2634 30.0762 76.708 30.0762C77.1526 30.0762 77.3479 30.3912 77.3479 30.8358Z" fill="white"/>
<path d="M80.3429 31.8672V36.4896H79.3007V29.133H80.5166L81.8513 33.3531V29.133H82.8818V36.4896H81.7964L80.3429 31.8672Z" fill="white"/>
</svg>
